%TF.GenerationSoftware,KiCad,Pcbnew,9.0.2*%
%TF.CreationDate,2025-09-28T04:05:33+05:30*%
%TF.ProjectId,Sippy,53697070-792e-46b6-9963-61645f706362,rev?*%
%TF.SameCoordinates,PX4ef6d80PY35fa5c0*%
%TF.FileFunction,Soldermask,Bot*%
%TF.FilePolarity,Negative*%
%FSLAX46Y46*%
G04 Gerber Fmt 4.6, Leading zero omitted, Abs format (unit mm)*
G04 Created by KiCad (PCBNEW 9.0.2) date 2025-09-28 04:05:33*
%MOMM*%
%LPD*%
G01*
G04 APERTURE LIST*
G04 Aperture macros list*
%AMRoundRect*
0 Rectangle with rounded corners*
0 $1 Rounding radius*
0 $2 $3 $4 $5 $6 $7 $8 $9 X,Y pos of 4 corners*
0 Add a 4 corners polygon primitive as box body*
4,1,4,$2,$3,$4,$5,$6,$7,$8,$9,$2,$3,0*
0 Add four circle primitives for the rounded corners*
1,1,$1+$1,$2,$3*
1,1,$1+$1,$4,$5*
1,1,$1+$1,$6,$7*
1,1,$1+$1,$8,$9*
0 Add four rect primitives between the rounded corners*
20,1,$1+$1,$2,$3,$4,$5,0*
20,1,$1+$1,$4,$5,$6,$7,0*
20,1,$1+$1,$6,$7,$8,$9,0*
20,1,$1+$1,$8,$9,$2,$3,0*%
%AMFreePoly0*
4,1,9,3.862500,-0.866500,0.737500,-0.866500,0.737500,-0.450000,-0.737500,-0.450000,-0.737500,0.450000,0.737500,0.450000,0.737500,0.866500,3.862500,0.866500,3.862500,-0.866500,3.862500,-0.866500,$1*%
G04 Aperture macros list end*
%ADD10C,0.650000*%
%ADD11O,2.100000X1.000000*%
%ADD12O,1.600000X1.000000*%
%ADD13C,3.200000*%
%ADD14RoundRect,0.250000X0.550000X0.550000X-0.550000X0.550000X-0.550000X-0.550000X0.550000X-0.550000X0*%
%ADD15C,1.600000*%
%ADD16R,1.700000X1.700000*%
%ADD17C,1.700000*%
%ADD18C,1.000000*%
%ADD19RoundRect,0.250000X-0.450000X0.262500X-0.450000X-0.262500X0.450000X-0.262500X0.450000X0.262500X0*%
%ADD20RoundRect,0.150000X0.675000X0.150000X-0.675000X0.150000X-0.675000X-0.150000X0.675000X-0.150000X0*%
%ADD21RoundRect,0.250000X-0.250000X-0.475000X0.250000X-0.475000X0.250000X0.475000X-0.250000X0.475000X0*%
%ADD22RoundRect,0.250000X-0.262500X-0.450000X0.262500X-0.450000X0.262500X0.450000X-0.262500X0.450000X0*%
%ADD23RoundRect,0.250000X0.475000X-0.250000X0.475000X0.250000X-0.475000X0.250000X-0.475000X-0.250000X0*%
%ADD24RoundRect,0.225000X-0.425000X-0.225000X0.425000X-0.225000X0.425000X0.225000X-0.425000X0.225000X0*%
%ADD25FreePoly0,0.000000*%
%ADD26RoundRect,0.150000X0.587500X0.150000X-0.587500X0.150000X-0.587500X-0.150000X0.587500X-0.150000X0*%
%ADD27RoundRect,0.250000X-0.475000X0.250000X-0.475000X-0.250000X0.475000X-0.250000X0.475000X0.250000X0*%
%ADD28RoundRect,0.150000X-0.587500X-0.150000X0.587500X-0.150000X0.587500X0.150000X-0.587500X0.150000X0*%
%ADD29RoundRect,0.250000X-0.650000X1.000000X-0.650000X-1.000000X0.650000X-1.000000X0.650000X1.000000X0*%
%ADD30RoundRect,0.250000X0.450000X-0.262500X0.450000X0.262500X-0.450000X0.262500X-0.450000X-0.262500X0*%
%ADD31RoundRect,0.250000X-0.550000X-0.550000X0.550000X-0.550000X0.550000X0.550000X-0.550000X0.550000X0*%
%ADD32RoundRect,0.087500X-0.087500X0.225000X-0.087500X-0.225000X0.087500X-0.225000X0.087500X0.225000X0*%
%ADD33RoundRect,0.087500X-0.225000X0.087500X-0.225000X-0.087500X0.225000X-0.087500X0.225000X0.087500X0*%
G04 APERTURE END LIST*
D10*
%TO.C,J2*%
X-12000000Y-6510000D03*
X-12000000Y-12290000D03*
D11*
X-11470000Y-5080000D03*
D12*
X-15650000Y-5080000D03*
D11*
X-11470000Y-13720000D03*
D12*
X-15650000Y-13720000D03*
%TD*%
D13*
%TO.C,H1*%
X-15400000Y11400000D03*
%TD*%
D14*
%TO.C,C7*%
X-15336495Y5121200D03*
D15*
X-17336495Y5121200D03*
%TD*%
D16*
%TO.C,J1*%
X5550000Y-13373900D03*
D17*
X8090000Y-13373900D03*
%TD*%
D18*
%TO.C,TP43*%
X-6200000Y-1000000D03*
%TD*%
D19*
%TO.C,R13*%
X-14000000Y-1087500D03*
X-14000000Y-2912500D03*
%TD*%
D20*
%TO.C,U4*%
X-9375000Y-7495000D03*
X-9375000Y-8765000D03*
X-9375000Y-10035000D03*
X-9375000Y-11305000D03*
X-14625000Y-11305000D03*
X-14625000Y-10035000D03*
X-14625000Y-8765000D03*
X-14625000Y-7495000D03*
%TD*%
D18*
%TO.C,TP8*%
X14800000Y-10200000D03*
%TD*%
D19*
%TO.C,R12*%
X-12000000Y-1087500D03*
X-12000000Y-2912500D03*
%TD*%
D18*
%TO.C,TP29*%
X6656352Y-6530891D03*
%TD*%
%TO.C,TP7*%
X10400000Y-10600000D03*
%TD*%
D19*
%TO.C,R2*%
X16600000Y-8087500D03*
X16600000Y-9912500D03*
%TD*%
D18*
%TO.C,TP25*%
X3000000Y-9400000D03*
%TD*%
%TO.C,TP3*%
X4400000Y4800000D03*
%TD*%
%TO.C,TP4*%
X17000000Y-11800000D03*
%TD*%
D21*
%TO.C,C17*%
X-2750000Y5600000D03*
X-850000Y5600000D03*
%TD*%
D18*
%TO.C,TP41*%
X-10200000Y-3000000D03*
%TD*%
%TO.C,TP9*%
X14600000Y-7000000D03*
%TD*%
%TO.C,TP20*%
X1800000Y-11000000D03*
%TD*%
%TO.C,TP26*%
X11200000Y-12000000D03*
%TD*%
D22*
%TO.C,R11*%
X-13112500Y800000D03*
X-11287500Y800000D03*
%TD*%
D18*
%TO.C,TP45*%
X6305266Y1780981D03*
%TD*%
%TO.C,TP16*%
X13200000Y-12200000D03*
%TD*%
%TO.C,TP14*%
X15600000Y-800000D03*
%TD*%
%TO.C,TP12*%
X15600000Y-3600000D03*
%TD*%
%TO.C,TP24*%
X1200000Y-9600000D03*
%TD*%
%TO.C,TP33*%
X-17200000Y-12400000D03*
%TD*%
D21*
%TO.C,C13*%
X-2750000Y-430000D03*
X-850000Y-430000D03*
%TD*%
D18*
%TO.C,TP44*%
X-15600000Y7000000D03*
%TD*%
D21*
%TO.C,C12*%
X2250000Y-2800000D03*
X4150000Y-2800000D03*
%TD*%
D19*
%TO.C,R16*%
X3600000Y1912500D03*
X3600000Y87500D03*
%TD*%
D21*
%TO.C,C14*%
X-2750000Y1600000D03*
X-850000Y1600000D03*
%TD*%
D23*
%TO.C,C8*%
X11856250Y-8743750D03*
X11856250Y-6843750D03*
%TD*%
D18*
%TO.C,TP28*%
X4000000Y-11400000D03*
%TD*%
D21*
%TO.C,C15*%
X-2750000Y3600000D03*
X-850000Y3600000D03*
%TD*%
D18*
%TO.C,TP11*%
X14400000Y-4600000D03*
%TD*%
%TO.C,TP27*%
X14400000Y-13400000D03*
%TD*%
%TO.C,TP31*%
X10160745Y-1594103D03*
%TD*%
D24*
%TO.C,U5*%
X-2750000Y-5500000D03*
D25*
X-2662500Y-4000000D03*
D24*
X-2750000Y-2500000D03*
%TD*%
D18*
%TO.C,TP32*%
X5200000Y-6600000D03*
%TD*%
D19*
%TO.C,R1*%
X1400000Y5512500D03*
X1400000Y3687500D03*
%TD*%
D26*
%TO.C,Q1*%
X6600000Y-9100000D03*
X6600000Y-11000000D03*
X4725000Y-10050000D03*
%TD*%
D27*
%TO.C,C9*%
X11856250Y-2443750D03*
X11856250Y-4343750D03*
%TD*%
D18*
%TO.C,TP15*%
X15600000Y600000D03*
%TD*%
%TO.C,TP2*%
X15600000Y3400000D03*
%TD*%
D28*
%TO.C,Q3*%
X-8737500Y800000D03*
X-8737500Y2700000D03*
X-6862500Y1750000D03*
%TD*%
D18*
%TO.C,TP39*%
X-10000000Y4400000D03*
%TD*%
D16*
%TO.C,J3*%
X-16985000Y-2000000D03*
D17*
X-16985000Y540000D03*
%TD*%
D19*
%TO.C,R15*%
X1600000Y1912500D03*
X1600000Y87500D03*
%TD*%
D29*
%TO.C,D4*%
X-5800000Y-4000000D03*
X-5800000Y-8000000D03*
%TD*%
D18*
%TO.C,TP10*%
X15400000Y-5800000D03*
%TD*%
%TO.C,TP21*%
X4400000Y3400000D03*
%TD*%
D21*
%TO.C,C11*%
X2250000Y-4800000D03*
X4150000Y-4800000D03*
%TD*%
D30*
%TO.C,R5*%
X8662500Y-10962500D03*
X8662500Y-9137500D03*
%TD*%
D22*
%TO.C,R10*%
X-13112500Y2750000D03*
X-11287500Y2750000D03*
%TD*%
D31*
%TO.C,C16*%
X-3600000Y-12000000D03*
D15*
X-1600000Y-12000000D03*
%TD*%
D18*
%TO.C,TP42*%
X-8647175Y-5732756D03*
%TD*%
%TO.C,TP1*%
X15600000Y2000000D03*
%TD*%
%TO.C,TP6*%
X3788207Y-6779363D03*
%TD*%
%TO.C,TP30*%
X-5800000Y3400000D03*
%TD*%
%TO.C,TP40*%
X-16800000Y-9800000D03*
%TD*%
%TO.C,TP13*%
X15600000Y-2200000D03*
%TD*%
%TO.C,TP38*%
X-7453274Y-11473602D03*
%TD*%
%TO.C,TP23*%
X2395617Y-6743149D03*
%TD*%
%TO.C,TP19*%
X15600000Y4800000D03*
%TD*%
%TO.C,TP22*%
X5600000Y-3200000D03*
%TD*%
%TO.C,TP17*%
X14600000Y-11800000D03*
%TD*%
D32*
%TO.C,U2*%
X8556250Y-4193750D03*
X9056250Y-4193750D03*
X9556250Y-4193750D03*
X10056250Y-4193750D03*
D33*
X10218750Y-4856250D03*
X10218750Y-5356250D03*
X10218750Y-5856250D03*
D32*
X10056250Y-6518750D03*
X9556250Y-6518750D03*
X9056250Y-6518750D03*
X8556250Y-6518750D03*
D33*
X8393750Y-5856250D03*
X8393750Y-5356250D03*
X8393750Y-4856250D03*
%TD*%
M02*
