M48
; DRILL file {KiCad 9.0.2} date 2025-09-28T04:05:36+0530
; FORMAT={-:-/ absolute / metric / decimal}
; #@! TF.CreationDate,2025-09-28T04:05:36+05:30
; #@! TF.GenerationSoftware,Kicad,Pcbnew,9.0.2
; #@! TF.FileFunction,MixedPlating,1,2
FMAT,2
METRIC
; #@! TA.AperFunction,Plated,PTH,ViaDrill
T1C0.350
; #@! TA.AperFunction,Plated,PTH,ComponentDrill
T2C0.350
; #@! TA.AperFunction,Plated,PTH,ComponentDrill
T3C0.600
; #@! TA.AperFunction,Plated,PTH,ComponentDrill
T4C0.800
; #@! TA.AperFunction,Plated,PTH,ComponentDrill
T5C1.000
; #@! TA.AperFunction,NonPlated,NPTH,ComponentDrill
T6C0.650
; #@! TA.AperFunction,NonPlated,NPTH,ComponentDrill
T7C3.200
%
G90
G05
T1
X-16.4Y-11.4
X-16.192Y-7.808
X-14.313Y0.025
X-14.147Y1.795
X-13.0Y-2.0
X-12.8Y-9.4
X-12.555Y8.024
X-10.8Y-2.0
X-10.551Y8.014
X-10.231Y2.63
X-9.6Y-4.4
X-8.553Y8.021
X-7.6Y0.0
X-7.21Y-7.001
X-6.865Y-10.706
X-6.8Y3.8
X-6.526Y8.021
X-5.54Y5.26
X-4.661Y-5.574
X-4.6Y0.2
X-4.526Y8.019
X-4.399Y3.087
X-4.307Y-1.512
X-4.2Y-3.25
X-4.2Y-4.75
X-3.342Y-13.762
X-2.71Y-8.555
X-2.565Y8.016
X-1.738Y3.617
X-1.719Y1.584
X-1.712Y-0.46
X-1.281Y7.144
X-1.239Y-6.202
X-1.2Y-2.0
X0.305Y-12.405
X1.6Y-7.0
X1.616Y6.853
X1.8Y-12.2
X2.0Y-9.0
X2.472Y-1.252
X3.0Y3.8
X3.139Y-6.075
X3.2Y5.4
X3.444Y3.134
X3.773Y-1.585
X4.0Y-9.0
X4.216Y-3.788
X4.344Y-5.939
X5.0Y2.2
X5.253Y-9.001
X5.651Y-4.647
X6.4Y2.8
X6.499Y-5.272
X6.6Y-4.4
X7.54Y-6.0
X9.25Y-5.455
X10.0Y-2.8
X10.4Y-9.2
X11.581Y-9.889
X11.826Y-1.048
X12.0Y-12.6
X13.2Y-9.8
X13.24Y-8.924
X14.8Y-9.35
X15.05Y-12.55
X15.6Y-7.0
X15.8Y-13.0
X16.2Y-4.6
X16.4Y4.2
X16.4Y2.8
X16.4Y1.4
X16.4Y0.6
X16.4Y-0.8
X16.4Y-2.2
X16.4Y-3.2
X16.4Y-5.8
X17.3Y-13.5
X17.8Y-11.2
T2
X5.9Y-0.16
X5.9Y-1.56
X6.6Y0.54
X6.6Y-0.86
X6.6Y-2.26
X7.3Y-0.16
X7.3Y-1.56
X8.0Y0.54
X8.0Y-0.86
X8.0Y-2.26
X8.7Y-0.16
X8.7Y-1.56
T4
X-17.336Y5.121
X-15.336Y5.121
X-3.6Y-12.0
X-1.6Y-12.0
T5
X-16.985Y0.54
X-16.985Y-2.0
X5.55Y-13.374
X8.09Y-13.374
T6
X-12.0Y-6.51
X-12.0Y-12.29
T7
X-15.4Y11.4
T3
G00X-15.35Y-5.08
M15
G01X-15.95Y-5.08
M16
G05
G00X-15.35Y-13.72
M15
G01X-15.95Y-13.72
M16
G05
G00X-10.92Y-5.08
M15
G01X-12.02Y-5.08
M16
G05
G00X-10.92Y-13.72
M15
G01X-12.02Y-13.72
M16
G05
M30
