%TF.GenerationSoftware,KiCad,Pcbnew,9.0.2*%
%TF.CreationDate,2025-09-28T04:05:33+05:30*%
%TF.ProjectId,Sippy,53697070-792e-46b6-9963-61645f706362,rev?*%
%TF.SameCoordinates,PX4ef6d80PY35fa5c0*%
%TF.FileFunction,Legend,Top*%
%TF.FilePolarity,Positive*%
%FSLAX46Y46*%
G04 Gerber Fmt 4.6, Leading zero omitted, Abs format (unit mm)*
G04 Created by KiCad (PCBNEW 9.0.2) date 2025-09-28 04:05:33*
%MOMM*%
%LPD*%
G01*
G04 APERTURE LIST*
%ADD10C,0.200000*%
G04 APERTURE END LIST*
D10*
X-14614839Y-1193482D02*
X-14567220Y-1098244D01*
X-14567220Y-1098244D02*
X-14567220Y-955387D01*
X-14567220Y-955387D02*
X-14614839Y-812530D01*
X-14614839Y-812530D02*
X-14710077Y-717292D01*
X-14710077Y-717292D02*
X-14805315Y-669673D01*
X-14805315Y-669673D02*
X-14995791Y-622054D01*
X-14995791Y-622054D02*
X-15138648Y-622054D01*
X-15138648Y-622054D02*
X-15329124Y-669673D01*
X-15329124Y-669673D02*
X-15424362Y-717292D01*
X-15424362Y-717292D02*
X-15519600Y-812530D01*
X-15519600Y-812530D02*
X-15567220Y-955387D01*
X-15567220Y-955387D02*
X-15567220Y-1050625D01*
X-15567220Y-1050625D02*
X-15519600Y-1193482D01*
X-15519600Y-1193482D02*
X-15471981Y-1241101D01*
X-15471981Y-1241101D02*
X-15138648Y-1241101D01*
X-15138648Y-1241101D02*
X-15138648Y-1050625D01*
X-15567220Y-1669673D02*
X-14567220Y-1669673D01*
X-14567220Y-1669673D02*
X-15567220Y-2241101D01*
X-15567220Y-2241101D02*
X-14567220Y-2241101D01*
X-15567220Y-2717292D02*
X-14567220Y-2717292D01*
X-14567220Y-2717292D02*
X-14567220Y-2955387D01*
X-14567220Y-2955387D02*
X-14614839Y-3098244D01*
X-14614839Y-3098244D02*
X-14710077Y-3193482D01*
X-14710077Y-3193482D02*
X-14805315Y-3241101D01*
X-14805315Y-3241101D02*
X-14995791Y-3288720D01*
X-14995791Y-3288720D02*
X-15138648Y-3288720D01*
X-15138648Y-3288720D02*
X-15329124Y-3241101D01*
X-15329124Y-3241101D02*
X-15424362Y-3193482D01*
X-15424362Y-3193482D02*
X-15519600Y-3098244D01*
X-15519600Y-3098244D02*
X-15567220Y-2955387D01*
X-15567220Y-2955387D02*
X-15567220Y-2717292D01*
X-15043410Y1796994D02*
X-15091029Y1654137D01*
X-15091029Y1654137D02*
X-15138648Y1606518D01*
X-15138648Y1606518D02*
X-15233886Y1558899D01*
X-15233886Y1558899D02*
X-15376743Y1558899D01*
X-15376743Y1558899D02*
X-15471981Y1606518D01*
X-15471981Y1606518D02*
X-15519600Y1654137D01*
X-15519600Y1654137D02*
X-15567220Y1749375D01*
X-15567220Y1749375D02*
X-15567220Y2130327D01*
X-15567220Y2130327D02*
X-14567220Y2130327D01*
X-14567220Y2130327D02*
X-14567220Y1796994D01*
X-14567220Y1796994D02*
X-14614839Y1701756D01*
X-14614839Y1701756D02*
X-14662458Y1654137D01*
X-14662458Y1654137D02*
X-14757696Y1606518D01*
X-14757696Y1606518D02*
X-14852934Y1606518D01*
X-14852934Y1606518D02*
X-14948172Y1654137D01*
X-14948172Y1654137D02*
X-14995791Y1701756D01*
X-14995791Y1701756D02*
X-15043410Y1796994D01*
X-15043410Y1796994D02*
X-15043410Y2130327D01*
X-15186267Y1130327D02*
X-15186267Y368422D01*
X-15567220Y749375D02*
X-14805315Y749375D01*
%TO.C,R14*%
X-9935000Y-2227064D02*
X-9935000Y-1772936D01*
X-8465000Y-2227064D02*
X-8465000Y-1772936D01*
%TO.C,D1*%
X-8000000Y1412750D02*
X-8000000Y3712750D01*
X-5100000Y1412750D02*
X-8000000Y1412750D01*
X-5100000Y1412750D02*
X-4800000Y1712750D01*
X-4800000Y3712750D02*
X-8000000Y3712750D01*
X-4800000Y3712750D02*
X-4800000Y1712750D01*
%TO.C,C4*%
X-9275000Y6471252D02*
X-9275000Y5948748D01*
X-7805000Y6471252D02*
X-7805000Y5948748D01*
%TO.C,C10*%
X-12661252Y1535000D02*
X-12138748Y1535000D01*
X-12661252Y65000D02*
X-12138748Y65000D01*
%TO.C,J2*%
X-18500000Y-4700000D02*
X-18500000Y-14100000D01*
X-16600000Y-4700000D02*
X-18500000Y-4700000D01*
X-16600000Y-14100000D02*
X-18500000Y-14100000D01*
X-12700000Y-4700000D02*
X-14700000Y-4700000D01*
X-12700000Y-14100000D02*
X-14700000Y-14100000D01*
%TO.C,R9*%
X-6827064Y-11065000D02*
X-6372936Y-11065000D01*
X-6827064Y-12535000D02*
X-6372936Y-12535000D01*
%TO.C,R8*%
X-6827064Y-5065000D02*
X-6372936Y-5065000D01*
X-6827064Y-6535000D02*
X-6372936Y-6535000D01*
%TO.C,C2*%
X-5275000Y6471252D02*
X-5275000Y5948748D01*
X-3805000Y6471252D02*
X-3805000Y5948748D01*
%TO.C,R4*%
X-2572936Y-8865000D02*
X-3027064Y-8865000D01*
X-2572936Y-10335000D02*
X-3027064Y-10335000D01*
%TO.C,R6*%
X-6172936Y-2902250D02*
X-6627064Y-2902250D01*
X-6172936Y-4372250D02*
X-6627064Y-4372250D01*
%TO.C,C1*%
X-3275000Y6471252D02*
X-3275000Y5948748D01*
X-1805000Y6471252D02*
X-1805000Y5948748D01*
%TO.C,C5*%
X-11275000Y6471252D02*
X-11275000Y5948748D01*
X-9805000Y6471252D02*
X-9805000Y5948748D01*
%TO.C,Q2*%
X-7960000Y-637250D02*
X-7960000Y12750D01*
X-7960000Y-637250D02*
X-7960000Y-1287250D01*
X-4840000Y-637250D02*
X-4840000Y12750D01*
X-4840000Y-637250D02*
X-4840000Y-1287250D01*
X-7910000Y-1799750D02*
X-8240000Y-2039750D01*
X-8240000Y-1559750D01*
X-7910000Y-1799750D01*
G36*
X-7910000Y-1799750D02*
G01*
X-8240000Y-2039750D01*
X-8240000Y-1559750D01*
X-7910000Y-1799750D01*
G37*
%TO.C,R3*%
X-3027064Y-6865000D02*
X-2572936Y-6865000D01*
X-3027064Y-8335000D02*
X-2572936Y-8335000D01*
%TO.C,C3*%
X-7275000Y6471252D02*
X-7275000Y5948748D01*
X-5805000Y6471252D02*
X-5805000Y5948748D01*
%TO.C,R7*%
X-9935000Y2572936D02*
X-9935000Y3027064D01*
X-8465000Y2572936D02*
X-8465000Y3027064D01*
%TO.C,C6*%
X-13275000Y6471252D02*
X-13275000Y5948748D01*
X-11805000Y6471252D02*
X-11805000Y5948748D01*
%TO.C,TP18*%
X-1400000Y-3170961D02*
G75*
G02*
X-2600000Y-3170961I-600000J0D01*
G01*
X-2600000Y-3170961D02*
G75*
G02*
X-1400000Y-3170961I600000J0D01*
G01*
%TO.C,U3*%
X-6600000Y-7240000D02*
X-7400000Y-7240000D01*
X-6600000Y-7240000D02*
X-5800000Y-7240000D01*
X-6600000Y-10360000D02*
X-7400000Y-10360000D01*
X-6600000Y-10360000D02*
X-5800000Y-10360000D01*
X-7900000Y-7290000D02*
X-8140000Y-6960000D01*
X-7660000Y-6960000D01*
X-7900000Y-7290000D01*
G36*
X-7900000Y-7290000D02*
G01*
X-8140000Y-6960000D01*
X-7660000Y-6960000D01*
X-7900000Y-7290000D01*
G37*
%TO.C,TP5*%
X-1200000Y-4577535D02*
G75*
G02*
X-2400000Y-4577535I-600000J0D01*
G01*
X-2400000Y-4577535D02*
G75*
G02*
X-1200000Y-4577535I600000J0D01*
G01*
%TO.C,C7*%
X-18936495Y4838200D02*
X-18936495Y5404200D01*
X-18896495Y4604200D02*
X-18896495Y5638200D01*
X-18856495Y4444200D02*
X-18856495Y5798200D01*
X-18816495Y4316200D02*
X-18816495Y5926200D01*
X-18776495Y4207200D02*
X-18776495Y6035200D01*
X-18736495Y4110200D02*
X-18736495Y6132200D01*
X-18696495Y4023200D02*
X-18696495Y6219200D01*
X-18656495Y3944200D02*
X-18656495Y6298200D01*
X-18616495Y3870200D02*
X-18616495Y6372200D01*
X-18576495Y3802200D02*
X-18576495Y6440200D01*
X-18536495Y3738200D02*
X-18536495Y6504200D01*
X-18496495Y3678200D02*
X-18496495Y6564200D01*
X-18456495Y3622200D02*
X-18456495Y6620200D01*
X-18416495Y3568200D02*
X-18416495Y6674200D01*
X-18376495Y3517200D02*
X-18376495Y6725200D01*
X-18336495Y6161200D02*
X-18336495Y6773200D01*
X-18336495Y3469200D02*
X-18336495Y4081200D01*
X-18296495Y6161200D02*
X-18296495Y6820200D01*
X-18296495Y3422200D02*
X-18296495Y4081200D01*
X-18256495Y6161200D02*
X-18256495Y6864200D01*
X-18256495Y3378200D02*
X-18256495Y4081200D01*
X-18216495Y6161200D02*
X-18216495Y6906200D01*
X-18216495Y3336200D02*
X-18216495Y4081200D01*
X-18176495Y6161200D02*
X-18176495Y6946200D01*
X-18176495Y3296200D02*
X-18176495Y4081200D01*
X-18136495Y6161200D02*
X-18136495Y6985200D01*
X-18136495Y3257200D02*
X-18136495Y4081200D01*
X-18096495Y6161200D02*
X-18096495Y7022200D01*
X-18096495Y3220200D02*
X-18096495Y4081200D01*
X-18056495Y6161200D02*
X-18056495Y7057200D01*
X-18056495Y3185200D02*
X-18056495Y4081200D01*
X-18016495Y6161200D02*
X-18016495Y7091200D01*
X-18016495Y3151200D02*
X-18016495Y4081200D01*
X-17976495Y6161200D02*
X-17976495Y7124200D01*
X-17976495Y3118200D02*
X-17976495Y4081200D01*
X-17936495Y6161200D02*
X-17936495Y7156200D01*
X-17936495Y3086200D02*
X-17936495Y4081200D01*
X-17896495Y6161200D02*
X-17896495Y7186200D01*
X-17896495Y3056200D02*
X-17896495Y4081200D01*
X-17856495Y6161200D02*
X-17856495Y7215200D01*
X-17856495Y3027200D02*
X-17856495Y4081200D01*
X-17816495Y6161200D02*
X-17816495Y7243200D01*
X-17816495Y2999200D02*
X-17816495Y4081200D01*
X-17776495Y6161200D02*
X-17776495Y7270200D01*
X-17776495Y2972200D02*
X-17776495Y4081200D01*
X-17736495Y6161200D02*
X-17736495Y7296200D01*
X-17736495Y2946200D02*
X-17736495Y4081200D01*
X-17696495Y6161200D02*
X-17696495Y7320200D01*
X-17696495Y2922200D02*
X-17696495Y4081200D01*
X-17656495Y6161200D02*
X-17656495Y7344200D01*
X-17656495Y2898200D02*
X-17656495Y4081200D01*
X-17616495Y6161200D02*
X-17616495Y7367200D01*
X-17616495Y2875200D02*
X-17616495Y4081200D01*
X-17576495Y6161200D02*
X-17576495Y7389200D01*
X-17576495Y2853200D02*
X-17576495Y4081200D01*
X-17536495Y6161200D02*
X-17536495Y7410200D01*
X-17536495Y2832200D02*
X-17536495Y4081200D01*
X-17496495Y6161200D02*
X-17496495Y7430200D01*
X-17496495Y2812200D02*
X-17496495Y4081200D01*
X-17456495Y6161200D02*
X-17456495Y7450200D01*
X-17456495Y2792200D02*
X-17456495Y4081200D01*
X-17416495Y6161200D02*
X-17416495Y7468200D01*
X-17416495Y2774200D02*
X-17416495Y4081200D01*
X-17376495Y6161200D02*
X-17376495Y7486200D01*
X-17376495Y2756200D02*
X-17376495Y4081200D01*
X-17336495Y6161200D02*
X-17336495Y7503200D01*
X-17336495Y2739200D02*
X-17336495Y4081200D01*
X-17296495Y6161200D02*
X-17296495Y7519200D01*
X-17296495Y2723200D02*
X-17296495Y4081200D01*
X-17256495Y6161200D02*
X-17256495Y7534200D01*
X-17256495Y2708200D02*
X-17256495Y4081200D01*
X-17216495Y6161200D02*
X-17216495Y7549200D01*
X-17216495Y2693200D02*
X-17216495Y4081200D01*
X-17176495Y6161200D02*
X-17176495Y7563200D01*
X-17176495Y2679200D02*
X-17176495Y4081200D01*
X-17136495Y6161200D02*
X-17136495Y7576200D01*
X-17136495Y2666200D02*
X-17136495Y4081200D01*
X-17096495Y6161200D02*
X-17096495Y7588200D01*
X-17096495Y2654200D02*
X-17096495Y4081200D01*
X-17056495Y6161200D02*
X-17056495Y7600200D01*
X-17056495Y2642200D02*
X-17056495Y4081200D01*
X-17016495Y6161200D02*
X-17016495Y7611200D01*
X-17016495Y2631200D02*
X-17016495Y4081200D01*
X-16976495Y6161200D02*
X-16976495Y7622200D01*
X-16976495Y2620200D02*
X-16976495Y4081200D01*
X-16936495Y6161200D02*
X-16936495Y7631200D01*
X-16936495Y2611200D02*
X-16936495Y4081200D01*
X-16896495Y6161200D02*
X-16896495Y7640200D01*
X-16896495Y2602200D02*
X-16896495Y4081200D01*
X-16856495Y6161200D02*
X-16856495Y7649200D01*
X-16856495Y2593200D02*
X-16856495Y4081200D01*
X-16816495Y6161200D02*
X-16816495Y7657200D01*
X-16816495Y2585200D02*
X-16816495Y4081200D01*
X-16776495Y6161200D02*
X-16776495Y7664200D01*
X-16776495Y2578200D02*
X-16776495Y4081200D01*
X-16736495Y6161200D02*
X-16736495Y7670200D01*
X-16736495Y2572200D02*
X-16736495Y4081200D01*
X-16696495Y6161200D02*
X-16696495Y7676200D01*
X-16696495Y2566200D02*
X-16696495Y4081200D01*
X-16656495Y6161200D02*
X-16656495Y7681200D01*
X-16656495Y2561200D02*
X-16656495Y4081200D01*
X-16616495Y6161200D02*
X-16616495Y7686200D01*
X-16616495Y2556200D02*
X-16616495Y4081200D01*
X-16576495Y6161200D02*
X-16576495Y7690200D01*
X-16576495Y2552200D02*
X-16576495Y4081200D01*
X-16536495Y6161200D02*
X-16536495Y7693200D01*
X-16536495Y2549200D02*
X-16536495Y4081200D01*
X-16496495Y6161200D02*
X-16496495Y7696200D01*
X-16496495Y2546200D02*
X-16496495Y4081200D01*
X-16456495Y6161200D02*
X-16456495Y7698200D01*
X-16456495Y2544200D02*
X-16456495Y4081200D01*
X-16416495Y6161200D02*
X-16416495Y7700200D01*
X-16416495Y2542200D02*
X-16416495Y4081200D01*
X-16376495Y6161200D02*
X-16376495Y7701200D01*
X-16376495Y2541200D02*
X-16376495Y4081200D01*
X-16336495Y6161200D02*
X-16336495Y7701200D01*
X-16336495Y2541200D02*
X-16336495Y4081200D01*
X-13781720Y3396200D02*
X-13781720Y3896200D01*
X-13531720Y3646200D02*
X-14031720Y3646200D01*
X-13716495Y5121200D02*
G75*
G02*
X-18956495Y5121200I-2620000J0D01*
G01*
X-18956495Y5121200D02*
G75*
G02*
X-13716495Y5121200I2620000J0D01*
G01*
%TO.C,U1*%
X-400000Y14500000D02*
X-400000Y8300000D01*
X-400000Y14500000D02*
X18000000Y14500000D01*
X-400000Y-10350000D02*
X-400000Y-11350000D01*
X-400000Y-11350000D02*
X1100000Y-11350000D01*
X18000000Y14500000D02*
X18000000Y8300000D01*
X18000000Y-11350000D02*
X16500000Y-11350000D01*
X18000000Y-11350000D02*
X18000000Y-10350000D01*
X-400000Y7625000D02*
X-900000Y7625000D01*
X-400000Y8125000D01*
X-400000Y7625000D01*
G36*
X-400000Y7625000D02*
G01*
X-900000Y7625000D01*
X-400000Y8125000D01*
X-400000Y7625000D01*
G37*
%TO.C,J1*%
X4170000Y-14753900D02*
X4170000Y-13373900D01*
X5550000Y-14753900D02*
X4170000Y-14753900D01*
X6820000Y-11993900D02*
X9470000Y-11993900D01*
X6820000Y-14753900D02*
X6820000Y-11993900D01*
X6820000Y-14753900D02*
X9470000Y-14753900D01*
X9470000Y-14753900D02*
X9470000Y-11993900D01*
%TO.C,D3*%
X-12160000Y-940000D02*
X-12160000Y-3625000D01*
X-12160000Y-3625000D02*
X-10240000Y-3625000D01*
X-10240000Y-3625000D02*
X-10240000Y-940000D01*
%TO.C,D2*%
X-14160000Y-940000D02*
X-14160000Y-3625000D01*
X-14160000Y-3625000D02*
X-12240000Y-3625000D01*
X-12240000Y-3625000D02*
X-12240000Y-940000D01*
%TD*%
M02*
