%TF.GenerationSoftware,KiCad,Pcbnew,9.0.2*%
%TF.CreationDate,2025-09-28T04:05:32+05:30*%
%TF.ProjectId,Sippy,53697070-792e-46b6-9963-61645f706362,rev?*%
%TF.SameCoordinates,PX4ef6d80PY35fa5c0*%
%TF.FileFunction,Copper,L1,Top*%
%TF.FilePolarity,Positive*%
%FSLAX46Y46*%
G04 Gerber Fmt 4.6, Leading zero omitted, Abs format (unit mm)*
G04 Created by KiCad (PCBNEW 9.0.2) date 2025-09-28 04:05:32*
%MOMM*%
%LPD*%
G01*
G04 APERTURE LIST*
G04 Aperture macros list*
%AMRoundRect*
0 Rectangle with rounded corners*
0 $1 Rounding radius*
0 $2 $3 $4 $5 $6 $7 $8 $9 X,Y pos of 4 corners*
0 Add a 4 corners polygon primitive as box body*
4,1,4,$2,$3,$4,$5,$6,$7,$8,$9,$2,$3,0*
0 Add four circle primitives for the rounded corners*
1,1,$1+$1,$2,$3*
1,1,$1+$1,$4,$5*
1,1,$1+$1,$6,$7*
1,1,$1+$1,$8,$9*
0 Add four rect primitives between the rounded corners*
20,1,$1+$1,$2,$3,$4,$5,0*
20,1,$1+$1,$4,$5,$6,$7,0*
20,1,$1+$1,$6,$7,$8,$9,0*
20,1,$1+$1,$8,$9,$2,$3,0*%
G04 Aperture macros list end*
%TA.AperFunction,SMDPad,CuDef*%
%ADD10RoundRect,0.250000X0.450000X-0.262500X0.450000X0.262500X-0.450000X0.262500X-0.450000X-0.262500X0*%
%TD*%
%TA.AperFunction,SMDPad,CuDef*%
%ADD11R,0.700000X0.700000*%
%TD*%
%TA.AperFunction,SMDPad,CuDef*%
%ADD12RoundRect,0.250000X-0.475000X0.250000X-0.475000X-0.250000X0.475000X-0.250000X0.475000X0.250000X0*%
%TD*%
%TA.AperFunction,SMDPad,CuDef*%
%ADD13RoundRect,0.250000X-0.250000X-0.475000X0.250000X-0.475000X0.250000X0.475000X-0.250000X0.475000X0*%
%TD*%
%TA.AperFunction,SMDPad,CuDef*%
%ADD14R,1.450000X0.600000*%
%TD*%
%TA.AperFunction,SMDPad,CuDef*%
%ADD15R,1.450000X0.300000*%
%TD*%
%TA.AperFunction,HeatsinkPad*%
%ADD16O,2.100000X1.000000*%
%TD*%
%TA.AperFunction,HeatsinkPad*%
%ADD17O,1.600000X1.000000*%
%TD*%
%TA.AperFunction,SMDPad,CuDef*%
%ADD18RoundRect,0.250000X-0.262500X-0.450000X0.262500X-0.450000X0.262500X0.450000X-0.262500X0.450000X0*%
%TD*%
%TA.AperFunction,SMDPad,CuDef*%
%ADD19RoundRect,0.250000X0.262500X0.450000X-0.262500X0.450000X-0.262500X-0.450000X0.262500X-0.450000X0*%
%TD*%
%TA.AperFunction,SMDPad,CuDef*%
%ADD20RoundRect,0.150000X0.150000X-0.587500X0.150000X0.587500X-0.150000X0.587500X-0.150000X-0.587500X0*%
%TD*%
%TA.AperFunction,SMDPad,CuDef*%
%ADD21C,1.000000*%
%TD*%
%TA.AperFunction,SMDPad,CuDef*%
%ADD22RoundRect,0.150000X-0.512500X-0.150000X0.512500X-0.150000X0.512500X0.150000X-0.512500X0.150000X0*%
%TD*%
%TA.AperFunction,ComponentPad*%
%ADD23RoundRect,0.250000X0.550000X0.550000X-0.550000X0.550000X-0.550000X-0.550000X0.550000X-0.550000X0*%
%TD*%
%TA.AperFunction,ComponentPad*%
%ADD24C,1.600000*%
%TD*%
%TA.AperFunction,SMDPad,CuDef*%
%ADD25R,1.500000X0.900000*%
%TD*%
%TA.AperFunction,SMDPad,CuDef*%
%ADD26R,0.900000X1.500000*%
%TD*%
%TA.AperFunction,HeatsinkPad*%
%ADD27C,0.600000*%
%TD*%
%TA.AperFunction,HeatsinkPad*%
%ADD28R,3.900000X3.900000*%
%TD*%
%TA.AperFunction,ComponentPad*%
%ADD29R,1.700000X1.700000*%
%TD*%
%TA.AperFunction,ComponentPad*%
%ADD30C,1.700000*%
%TD*%
%TA.AperFunction,SMDPad,CuDef*%
%ADD31RoundRect,0.243750X0.456250X-0.243750X0.456250X0.243750X-0.456250X0.243750X-0.456250X-0.243750X0*%
%TD*%
%TA.AperFunction,ComponentPad*%
%ADD32RoundRect,0.250000X-0.550000X-0.550000X0.550000X-0.550000X0.550000X0.550000X-0.550000X0.550000X0*%
%TD*%
%TA.AperFunction,ViaPad*%
%ADD33C,0.600000*%
%TD*%
%TA.AperFunction,Conductor*%
%ADD34C,0.300000*%
%TD*%
%TA.AperFunction,Conductor*%
%ADD35C,0.400000*%
%TD*%
%TA.AperFunction,Conductor*%
%ADD36C,0.500000*%
%TD*%
%TA.AperFunction,Conductor*%
%ADD37C,0.350000*%
%TD*%
%TA.AperFunction,Conductor*%
%ADD38C,0.250000*%
%TD*%
%TA.AperFunction,Conductor*%
%ADD39C,0.200000*%
%TD*%
G04 APERTURE END LIST*
D10*
%TO.P,R14,1*%
%TO.N,Net-(U4-PROG)*%
X-9200000Y-2912500D03*
%TO.P,R14,2*%
%TO.N,GND*%
X-9200000Y-1087500D03*
%TD*%
D11*
%TO.P,D1,1,DOUT*%
%TO.N,unconnected-(D1-DOUT-Pad1)*%
X-5485000Y2012750D03*
%TO.P,D1,2,VSS*%
%TO.N,GND*%
X-5485000Y3112750D03*
%TO.P,D1,3,DIN*%
%TO.N,Net-(D1-DIN)*%
X-7315000Y3112750D03*
%TO.P,D1,4,VDD*%
%TO.N,POWER*%
X-7315000Y2012750D03*
%TD*%
D12*
%TO.P,C4,1*%
%TO.N,GND*%
X-8540000Y7160000D03*
%TO.P,C4,2*%
%TO.N,+3V3*%
X-8540000Y5260000D03*
%TD*%
D13*
%TO.P,C10,1*%
%TO.N,PACK_P*%
X-13350000Y800000D03*
%TO.P,C10,2*%
%TO.N,GND*%
X-11450000Y800000D03*
%TD*%
D14*
%TO.P,J2,A1,GND*%
%TO.N,GND*%
X-10555000Y-6150000D03*
%TO.P,J2,A4,VBUS*%
%TO.N,VUSB*%
X-10555000Y-6950000D03*
D15*
%TO.P,J2,A5,CC1*%
%TO.N,Net-(J2-CC1)*%
X-10555000Y-8150000D03*
%TO.P,J2,A6,D+*%
%TO.N,Net-(J2-D+-PadA6)*%
X-10555000Y-9150000D03*
%TO.P,J2,A7,D-*%
%TO.N,Net-(J2-D--PadA7)*%
X-10555000Y-9650000D03*
%TO.P,J2,A8,SBU1*%
%TO.N,unconnected-(J2-SBU1-PadA8)*%
X-10555000Y-10650000D03*
D14*
%TO.P,J2,A9,VBUS*%
%TO.N,VUSB*%
X-10555000Y-11850000D03*
%TO.P,J2,A12,GND*%
%TO.N,GND*%
X-10555000Y-12650000D03*
%TO.P,J2,B1,GND*%
X-10555000Y-12650000D03*
%TO.P,J2,B4,VBUS*%
%TO.N,VUSB*%
X-10555000Y-11850000D03*
D15*
%TO.P,J2,B5,CC2*%
%TO.N,Net-(J2-CC2)*%
X-10555000Y-11150000D03*
%TO.P,J2,B6,D+*%
%TO.N,Net-(J2-D+-PadA6)*%
X-10555000Y-10150000D03*
%TO.P,J2,B7,D-*%
%TO.N,Net-(J2-D--PadA7)*%
X-10555000Y-8650000D03*
%TO.P,J2,B8,SBU2*%
%TO.N,unconnected-(J2-SBU2-PadB8)*%
X-10555000Y-7650000D03*
D14*
%TO.P,J2,B9,VBUS*%
%TO.N,VUSB*%
X-10555000Y-6950000D03*
%TO.P,J2,B12,GND*%
%TO.N,GND*%
X-10555000Y-6150000D03*
D16*
%TO.P,J2,S1,SHIELD*%
X-11470000Y-5080000D03*
D17*
X-15650000Y-5080000D03*
D16*
X-11470000Y-13720000D03*
D17*
X-15650000Y-13720000D03*
%TD*%
D18*
%TO.P,R9,1*%
%TO.N,Net-(J2-CC2)*%
X-7512500Y-11800000D03*
%TO.P,R9,2*%
%TO.N,GND*%
X-5687500Y-11800000D03*
%TD*%
%TO.P,R8,1*%
%TO.N,Net-(J2-CC1)*%
X-7512500Y-5800000D03*
%TO.P,R8,2*%
%TO.N,GND*%
X-5687500Y-5800000D03*
%TD*%
D12*
%TO.P,C2,1*%
%TO.N,GND*%
X-4540000Y7160000D03*
%TO.P,C2,2*%
%TO.N,+3V3*%
X-4540000Y5260000D03*
%TD*%
D19*
%TO.P,R4,1*%
%TO.N,Net-(U1-USB_D+)*%
X-1887500Y-9600000D03*
%TO.P,R4,2*%
%TO.N,USB_D+*%
X-3712500Y-9600000D03*
%TD*%
%TO.P,R6,1*%
%TO.N,WS2812B_IN*%
X-5487500Y-3637250D03*
%TO.P,R6,2*%
%TO.N,Net-(Q2-B)*%
X-7312500Y-3637250D03*
%TD*%
D12*
%TO.P,C1,1*%
%TO.N,GND*%
X-2540000Y7160000D03*
%TO.P,C1,2*%
%TO.N,+3V3*%
X-2540000Y5260000D03*
%TD*%
%TO.P,C5,1*%
%TO.N,GND*%
X-10540000Y7160000D03*
%TO.P,C5,2*%
%TO.N,+3V3*%
X-10540000Y5260000D03*
%TD*%
D20*
%TO.P,Q2,1,B*%
%TO.N,Net-(Q2-B)*%
X-7350000Y-1574750D03*
%TO.P,Q2,2,E*%
%TO.N,GND*%
X-5450000Y-1574750D03*
%TO.P,Q2,3,C*%
%TO.N,Net-(D1-DIN)*%
X-6400000Y300250D03*
%TD*%
D18*
%TO.P,R3,1*%
%TO.N,USB_D-*%
X-3712500Y-7600000D03*
%TO.P,R3,2*%
%TO.N,Net-(U1-USB_D-)*%
X-1887500Y-7600000D03*
%TD*%
D12*
%TO.P,C3,1*%
%TO.N,GND*%
X-6540000Y7160000D03*
%TO.P,C3,2*%
%TO.N,+3V3*%
X-6540000Y5260000D03*
%TD*%
D10*
%TO.P,R7,1*%
%TO.N,Net-(D1-DIN)*%
X-9200000Y1887500D03*
%TO.P,R7,2*%
%TO.N,POWER*%
X-9200000Y3712500D03*
%TD*%
D12*
%TO.P,C6,1*%
%TO.N,GND*%
X-12540000Y7160000D03*
%TO.P,C6,2*%
%TO.N,+3V3*%
X-12540000Y5260000D03*
%TD*%
D21*
%TO.P,TP18,1,1*%
%TO.N,Net-(U1-IO16)*%
X-2000000Y-3170961D03*
%TD*%
D22*
%TO.P,U3,1,I/O1*%
%TO.N,Net-(J2-D--PadA7)*%
X-7737500Y-7850000D03*
%TO.P,U3,2,GND*%
%TO.N,GND*%
X-7737500Y-8800000D03*
%TO.P,U3,3,I/O2*%
%TO.N,Net-(J2-D+-PadA6)*%
X-7737500Y-9750000D03*
%TO.P,U3,4,I/O2*%
%TO.N,USB_D+*%
X-5462500Y-9750000D03*
%TO.P,U3,5,VBUS*%
%TO.N,VUSB*%
X-5462500Y-8800000D03*
%TO.P,U3,6,I/O1*%
%TO.N,USB_D-*%
X-5462500Y-7850000D03*
%TD*%
D21*
%TO.P,TP5,1,1*%
%TO.N,Net-(U1-IO17)*%
X-1800000Y-4577535D03*
%TD*%
D23*
%TO.P,C7,1*%
%TO.N,+3V3*%
X-15336495Y5121200D03*
D24*
%TO.P,C7,2*%
%TO.N,GND*%
X-17336495Y5121200D03*
%TD*%
D25*
%TO.P,U1,1,GND*%
%TO.N,GND*%
X50000Y6860000D03*
%TO.P,U1,2,3V3*%
%TO.N,+3V3*%
X50000Y5590000D03*
%TO.P,U1,3,EN*%
%TO.N,ESP32_EN*%
X50000Y4320000D03*
%TO.P,U1,4,IO4*%
%TO.N,Net-(U1-IO4)*%
X50000Y3050000D03*
%TO.P,U1,5,IO5*%
%TO.N,SPI_MOSI*%
X50000Y1780000D03*
%TO.P,U1,6,IO6*%
%TO.N,Net-(U1-IO6)*%
X50000Y510000D03*
%TO.P,U1,7,IO7*%
%TO.N,SPI_MISO*%
X50000Y-760000D03*
%TO.P,U1,8,IO15*%
%TO.N,SPI_SCK*%
X50000Y-2030000D03*
%TO.P,U1,9,IO16*%
%TO.N,Net-(U1-IO16)*%
X50000Y-3300000D03*
%TO.P,U1,10,IO17*%
%TO.N,Net-(U1-IO17)*%
X50000Y-4570000D03*
%TO.P,U1,11,IO18*%
%TO.N,Net-(U1-IO18)*%
X50000Y-5840000D03*
%TO.P,U1,12,IO8*%
%TO.N,Net-(U1-IO8)*%
X50000Y-7110000D03*
%TO.P,U1,13,USB_D-*%
%TO.N,Net-(U1-USB_D-)*%
X50000Y-8380000D03*
%TO.P,U1,14,USB_D+*%
%TO.N,Net-(U1-USB_D+)*%
X50000Y-9650000D03*
D26*
%TO.P,U1,15,IO3*%
%TO.N,Net-(U1-IO3)*%
X1815000Y-10900000D03*
%TO.P,U1,16,IO46*%
%TO.N,GND*%
X3085000Y-10900000D03*
%TO.P,U1,17,IO9*%
%TO.N,Net-(U1-IO9)*%
X4355000Y-10900000D03*
%TO.P,U1,18,IO10*%
%TO.N,Net-(U1-IO10)*%
X5625000Y-10900000D03*
%TO.P,U1,19,IO11*%
%TO.N,Net-(U1-IO11)*%
X6895000Y-10900000D03*
%TO.P,U1,20,IO12*%
%TO.N,LSM6DSL_INT1*%
X8165000Y-10900000D03*
%TO.P,U1,21,IO13*%
%TO.N,LSM6DSL_SS*%
X9435000Y-10900000D03*
%TO.P,U1,22,IO14*%
%TO.N,WS2812B_IN*%
X10705000Y-10900000D03*
%TO.P,U1,23,IO21*%
%TO.N,Net-(U1-IO21)*%
X11975000Y-10900000D03*
%TO.P,U1,24,IO47*%
%TO.N,Net-(U1-IO47)*%
X13245000Y-10900000D03*
%TO.P,U1,25,IO48*%
%TO.N,Net-(U1-IO48)*%
X14515000Y-10900000D03*
%TO.P,U1,26,IO45*%
%TO.N,BUZZER*%
X15785000Y-10900000D03*
D25*
%TO.P,U1,27,IO0*%
%TO.N,ESP32_GP0_BOOT*%
X17550000Y-9650000D03*
%TO.P,U1,28,IO35*%
%TO.N,Net-(U1-IO35)*%
X17550000Y-8380000D03*
%TO.P,U1,29,IO36*%
%TO.N,Net-(U1-IO36)*%
X17550000Y-7110000D03*
%TO.P,U1,30,IO37*%
%TO.N,Net-(U1-IO37)*%
X17550000Y-5840000D03*
%TO.P,U1,31,IO38*%
%TO.N,Net-(U1-IO38)*%
X17550000Y-4570000D03*
%TO.P,U1,32,IO39*%
%TO.N,Net-(U1-IO39)*%
X17550000Y-3300000D03*
%TO.P,U1,33,IO40*%
%TO.N,Net-(U1-IO40)*%
X17550000Y-2030000D03*
%TO.P,U1,34,IO41*%
%TO.N,Net-(U1-IO41)*%
X17550000Y-760000D03*
%TO.P,U1,35,IO42*%
%TO.N,Net-(U1-IO42)*%
X17550000Y510000D03*
%TO.P,U1,36,RXD0*%
%TO.N,ESP32_RXD*%
X17550000Y1780000D03*
%TO.P,U1,37,TXD0*%
%TO.N,ESP32_TXD*%
X17550000Y3050000D03*
%TO.P,U1,38,IO2*%
%TO.N,Net-(U1-IO2)*%
X17550000Y4320000D03*
%TO.P,U1,39,IO1*%
%TO.N,VBAT_OUT*%
X17550000Y5590000D03*
%TO.P,U1,40,GND*%
%TO.N,GND*%
X17550000Y6860000D03*
D27*
%TO.P,U1,41,GND*%
X5900000Y-160000D03*
X5900000Y-1560000D03*
X6600000Y540000D03*
X6600000Y-860000D03*
X6600000Y-2260000D03*
X7300000Y-160000D03*
D28*
X7300000Y-860000D03*
D27*
X7300000Y-1560000D03*
X8000000Y540000D03*
X8000000Y-860000D03*
X8000000Y-2260000D03*
X8700000Y-160000D03*
X8700000Y-1560000D03*
%TD*%
D29*
%TO.P,J1,1,Pin_1*%
%TO.N,POWER*%
X5550000Y-13373900D03*
D30*
%TO.P,J1,2,Pin_2*%
%TO.N,Net-(J1-Pin_2)*%
X8090000Y-13373900D03*
%TD*%
D31*
%TO.P,D3,1,K*%
%TO.N,Net-(D3-K)*%
X-11200000Y-2877500D03*
%TO.P,D3,2,A*%
%TO.N,VUSB*%
X-11200000Y-1002500D03*
%TD*%
%TO.P,D2,1,K*%
%TO.N,Net-(D2-K)*%
X-13200000Y-2877500D03*
%TO.P,D2,2,A*%
%TO.N,VUSB*%
X-13200000Y-1002500D03*
%TD*%
D29*
%TO.P,J3,1,Pin_1*%
%TO.N,GND*%
X-16985000Y-2000000D03*
D30*
%TO.P,J3,2,Pin_2*%
%TO.N,PACK_P*%
X-16985000Y540000D03*
%TD*%
D32*
%TO.P,C16,1*%
%TO.N,POWER*%
X-3600000Y-12000000D03*
D24*
%TO.P,C16,2*%
%TO.N,GND*%
X-1600000Y-12000000D03*
%TD*%
D33*
%TO.N,GND*%
X17300000Y-13500000D03*
%TO.N,POWER*%
X-7600000Y0D03*
X-10230608Y2629750D03*
%TO.N,PACK_P*%
X-16400000Y-11400000D03*
X-4600000Y200000D03*
X-1200000Y-2000000D03*
%TO.N,GND*%
X1616022Y6852788D03*
X4216377Y-3787716D03*
X-1711823Y-459506D03*
X4344295Y-5938766D03*
X-6525681Y8021368D03*
X-2564784Y8016254D03*
X-10550505Y8013697D03*
X5253431Y-9001139D03*
X13240315Y-8924252D03*
X-3341561Y-13762055D03*
X-12555246Y8023925D03*
X-7210257Y-7001145D03*
X5000000Y2200000D03*
X-4661379Y-5573814D03*
X-14313185Y25471D03*
X304839Y-12405114D03*
X-4526054Y8018811D03*
X-1737598Y3616664D03*
X9249564Y-5454571D03*
X-1281136Y7144294D03*
X-4306979Y-1511620D03*
X11825759Y-1047633D03*
X-1238868Y-6202017D03*
X-1719187Y1584103D03*
X2472254Y-1252309D03*
X-8553436Y8021368D03*
X-4399033Y3087419D03*
%TO.N,+3V3*%
X-5540000Y5260000D03*
X-4200000Y-4750000D03*
X3200000Y5400000D03*
X-4200000Y-3250000D03*
%TO.N,VUSB*%
X-6864569Y-10705519D03*
X-12800000Y-9400000D03*
X-14147134Y1794930D03*
X-16192185Y-7807815D03*
%TO.N,ESP32_RXD*%
X16400000Y1400000D03*
%TO.N,ESP32_TXD*%
X16400000Y2800000D03*
%TO.N,WS2812B_IN*%
X10400000Y-9200000D03*
X-2710241Y-8555202D03*
%TO.N,Net-(U4-PROG)*%
X-9600000Y-4400000D03*
%TO.N,BUZZER*%
X15800000Y-13000000D03*
%TO.N,ESP32_EN*%
X3000000Y3800000D03*
%TO.N,ESP32_GP0_BOOT*%
X17800000Y-11200000D03*
%TO.N,VBAT_OUT*%
X6400000Y2800000D03*
%TO.N,LSM6DSL_SS*%
X7540000Y-6000000D03*
%TO.N,LSM6DSL_INT1*%
X10000000Y-2800000D03*
%TO.N,Net-(U1-IO39)*%
X16400000Y-3200000D03*
%TO.N,Net-(U1-IO40)*%
X16400000Y-2200000D03*
%TO.N,Net-(U1-IO41)*%
X16400000Y-800000D03*
%TO.N,Net-(U1-IO42)*%
X16400000Y600000D03*
%TO.N,Net-(U1-IO3)*%
X1800000Y-12200000D03*
%TO.N,SPI_MISO*%
X5651165Y-4647049D03*
%TO.N,SPI_SCK*%
X6498770Y-5272048D03*
%TO.N,SPI_MOSI*%
X6600000Y-4400000D03*
%TO.N,Net-(D1-DIN)*%
X-6800000Y3800000D03*
%TO.N,Net-(D2-K)*%
X-13000000Y-2000000D03*
%TO.N,Net-(D3-K)*%
X-10800000Y-2000000D03*
%TO.N,Net-(U1-IO38)*%
X16200000Y-4600000D03*
%TO.N,Net-(U1-IO18)*%
X3139399Y-6074724D03*
%TO.N,Net-(U1-IO21)*%
X11581427Y-9888922D03*
%TO.N,Net-(U1-IO35)*%
X14800000Y-9350000D03*
%TO.N,Net-(U1-IO36)*%
X15600000Y-7000000D03*
%TO.N,Net-(U1-IO37)*%
X16400000Y-5800000D03*
%TO.N,Net-(U1-IO47)*%
X13200000Y-9800000D03*
%TO.N,Net-(U1-IO48)*%
X15050000Y-12549578D03*
%TO.N,Net-(U1-IO2)*%
X16400000Y4200000D03*
%TO.N,Net-(U1-IO4)*%
X3443762Y3134358D03*
%TO.N,Net-(U1-IO6)*%
X3773496Y-1585469D03*
%TO.N,Net-(U1-IO8)*%
X1600000Y-7000000D03*
%TO.N,Net-(U1-IO9)*%
X2000000Y-9000000D03*
%TO.N,Net-(U1-IO10)*%
X4000000Y-9000000D03*
%TO.N,Net-(U1-IO11)*%
X12000000Y-12600000D03*
%TD*%
D34*
%TO.N,POWER*%
X-10251000Y1369130D02*
X-9905870Y1024000D01*
D35*
X-7600000Y0D02*
X-7400000Y200000D01*
D34*
X-9200000Y3712500D02*
X-9687500Y3712500D01*
X-9687500Y3712500D02*
X-10251000Y3149000D01*
X-10251000Y3149000D02*
X-10251000Y1369130D01*
X-9905870Y1024000D02*
X-8303750Y1024000D01*
X-8303750Y1024000D02*
X-7315000Y2012750D01*
D35*
X-7400000Y200000D02*
X-7400000Y1927750D01*
X-7400000Y1927750D02*
X-7315000Y2012750D01*
D36*
%TO.N,PACK_P*%
X-1600000Y-1600000D02*
X-2800000Y-1600000D01*
D37*
X-17200000Y-7526834D02*
X-16073166Y-6400000D01*
D36*
X-1200000Y-2000000D02*
X-1600000Y-1600000D01*
D37*
X-16985000Y540000D02*
X-14760000Y540000D01*
X-17200000Y-10600000D02*
X-17200000Y-7526834D01*
X-16073166Y-6400000D02*
X-14600000Y-6400000D01*
X-14076000Y-5876000D02*
X-14076000Y-4324000D01*
X-14760000Y540000D02*
X-14500000Y800000D01*
X-14076000Y-4324000D02*
X-15200000Y-3200000D01*
X-15200000Y-3200000D02*
X-15200000Y-600000D01*
D36*
X-2800000Y-1600000D02*
X-4600000Y200000D01*
D37*
X-16340000Y540000D02*
X-16985000Y540000D01*
X-14600000Y-6400000D02*
X-14076000Y-5876000D01*
X-15200000Y-600000D02*
X-16340000Y540000D01*
X-16400000Y-11400000D02*
X-17200000Y-10600000D01*
X-14500000Y800000D02*
X-13350000Y800000D01*
D36*
%TO.N,+3V3*%
X-12868800Y4931200D02*
X-12540000Y5260000D01*
X3200000Y5400000D02*
X240000Y5400000D01*
X-5540000Y5260000D02*
X-12540000Y5260000D01*
X240000Y5400000D02*
X50000Y5590000D01*
X50000Y5590000D02*
X-2460000Y5590000D01*
X-2400000Y5400000D02*
X-2540000Y5260000D01*
X-15336495Y5121200D02*
X-12928800Y5121200D01*
X-2540000Y5260000D02*
X-5540000Y5260000D01*
D34*
X-4200000Y-4750000D02*
X-4200000Y-3250000D01*
D38*
%TO.N,VUSB*%
X-10555000Y-6950000D02*
X-11382000Y-6950000D01*
D34*
X-14147134Y1794930D02*
X-13542064Y2400000D01*
D38*
X-11382000Y-6950000D02*
X-12800000Y-8368000D01*
D39*
X-13200000Y-1002500D02*
X-14202500Y-1002500D01*
X-14600000Y-3126834D02*
X-13600000Y-4126834D01*
D38*
X-5938385Y-8886063D02*
X-5548563Y-8886063D01*
D39*
X-15876000Y-6876000D02*
X-16192185Y-7192185D01*
D38*
X-6864569Y-10705519D02*
X-6864569Y-10674569D01*
D34*
X-12499000Y1530870D02*
X-12499000Y-301500D01*
D38*
X-6451000Y-9398678D02*
X-5938385Y-8886063D01*
D39*
X-16192185Y-7192185D02*
X-16192185Y-7807815D01*
D38*
X-12800000Y-10432000D02*
X-11382000Y-11850000D01*
D39*
X-14402834Y-6876000D02*
X-15876000Y-6876000D01*
D34*
X-13368130Y2400000D02*
X-12499000Y1530870D01*
D39*
X-13600000Y-4126834D02*
X-13600000Y-6073166D01*
D38*
X-6451000Y-10261000D02*
X-6451000Y-9398678D01*
D39*
X-14202500Y-1002500D02*
X-14600000Y-1400000D01*
X-13200000Y-1002500D02*
X-11200000Y-1002500D01*
X-13600000Y-6073166D02*
X-14402834Y-6876000D01*
D34*
X-13542064Y2400000D02*
X-13368130Y2400000D01*
D38*
X-5548563Y-8886063D02*
X-5462500Y-8800000D01*
D39*
X-14600000Y-1400000D02*
X-14600000Y-3126834D01*
D34*
X-12499000Y-301500D02*
X-13200000Y-1002500D01*
D38*
X-6864569Y-10674569D02*
X-6451000Y-10261000D01*
X-11382000Y-11850000D02*
X-10555000Y-11850000D01*
X-12800000Y-8368000D02*
X-12800000Y-9400000D01*
X-12800000Y-9400000D02*
X-12800000Y-10432000D01*
%TO.N,ESP32_RXD*%
X16400000Y1400000D02*
X17170000Y1400000D01*
X17170000Y1400000D02*
X17550000Y1780000D01*
%TO.N,ESP32_TXD*%
X16400000Y2800000D02*
X17300000Y2800000D01*
X17300000Y2800000D02*
X17550000Y3050000D01*
D39*
%TO.N,Net-(J2-CC2)*%
X-7512500Y-11800000D02*
X-8162500Y-11150000D01*
X-8162500Y-11150000D02*
X-10555000Y-11150000D01*
D38*
%TO.N,WS2812B_IN*%
X-3574000Y-6026000D02*
X-3574000Y-2990702D01*
X-2726000Y-6874000D02*
X-3574000Y-6026000D01*
X-3940702Y-2624000D02*
X-4474250Y-2624000D01*
X10705000Y-10900000D02*
X10705000Y-9505000D01*
X-2710241Y-8555202D02*
X-2726000Y-8539443D01*
X-4474250Y-2624000D02*
X-5487500Y-3637250D01*
X10705000Y-9505000D02*
X10400000Y-9200000D01*
X-2726000Y-8539443D02*
X-2726000Y-6874000D01*
X-3574000Y-2990702D02*
X-3940702Y-2624000D01*
D39*
%TO.N,Net-(U4-PROG)*%
X-9600000Y-4400000D02*
X-9600000Y-3200000D01*
X-9600000Y-3200000D02*
X-9312500Y-2912500D01*
X-9312500Y-2912500D02*
X-9200000Y-2912500D01*
D36*
%TO.N,BUZZER*%
X15800000Y-13000000D02*
X15800000Y-10915000D01*
X15800000Y-10915000D02*
X15785000Y-10900000D01*
%TO.N,ESP32_EN*%
X3000000Y3800000D02*
X2480000Y4320000D01*
X2480000Y4320000D02*
X50000Y4320000D01*
%TO.N,ESP32_GP0_BOOT*%
X17800000Y-11200000D02*
X17800000Y-9900000D01*
X17800000Y-9900000D02*
X17550000Y-9650000D01*
D38*
%TO.N,VBAT_OUT*%
X9190000Y5590000D02*
X17550000Y5590000D01*
X6400000Y2800000D02*
X9190000Y5590000D01*
%TO.N,LSM6DSL_SS*%
X9435000Y-7895000D02*
X9435000Y-10900000D01*
X7540000Y-6000000D02*
X9435000Y-7895000D01*
%TO.N,LSM6DSL_INT1*%
X6914000Y-6259298D02*
X8165000Y-7510298D01*
X8165000Y-7510298D02*
X8165000Y-10900000D01*
X6914000Y-5740702D02*
X6914000Y-6259298D01*
X8226000Y-5374000D02*
X7280702Y-5374000D01*
X10000000Y-3600000D02*
X8226000Y-5374000D01*
X7280702Y-5374000D02*
X6914000Y-5740702D01*
X10000000Y-2800000D02*
X10000000Y-3600000D01*
%TO.N,Net-(U1-IO39)*%
X16400000Y-3200000D02*
X17450000Y-3200000D01*
X17450000Y-3200000D02*
X17550000Y-3300000D01*
%TO.N,Net-(U1-IO40)*%
X17380000Y-2200000D02*
X17550000Y-2030000D01*
X16400000Y-2200000D02*
X17380000Y-2200000D01*
%TO.N,Net-(U1-IO41)*%
X17510000Y-800000D02*
X17550000Y-760000D01*
X16400000Y-800000D02*
X17510000Y-800000D01*
%TO.N,Net-(U1-IO42)*%
X16400000Y600000D02*
X17460000Y600000D01*
X17460000Y600000D02*
X17550000Y510000D01*
%TO.N,Net-(U1-IO3)*%
X1800000Y-12200000D02*
X1800000Y-10915000D01*
X1800000Y-10915000D02*
X1815000Y-10900000D01*
%TO.N,SPI_MISO*%
X1577000Y-1705000D02*
X632000Y-760000D01*
X5651165Y-4647049D02*
X3684859Y-4647049D01*
X632000Y-760000D02*
X50000Y-760000D01*
X3684859Y-4647049D02*
X1577000Y-2539190D01*
X1577000Y-2539190D02*
X1577000Y-1705000D01*
%TO.N,SPI_SCK*%
X3672048Y-5272048D02*
X1126000Y-2726000D01*
X1126000Y-2726000D02*
X1126000Y-2524000D01*
X632000Y-2030000D02*
X50000Y-2030000D01*
X6498770Y-5272048D02*
X3672048Y-5272048D01*
X1126000Y-2524000D02*
X632000Y-2030000D01*
%TO.N,SPI_MOSI*%
X5621049Y-4021049D02*
X4400000Y-2800000D01*
X6289414Y-4400000D02*
X5910463Y-4021049D01*
X3438000Y-38000D02*
X3200000Y-38000D01*
X3200000Y-38000D02*
X1382000Y1780000D01*
X1382000Y1780000D02*
X50000Y1780000D01*
X5910463Y-4021049D02*
X5621049Y-4021049D01*
X4400000Y-1000000D02*
X3438000Y-38000D01*
X6600000Y-4400000D02*
X6289414Y-4400000D01*
X4400000Y-2800000D02*
X4400000Y-1000000D01*
%TO.N,USB_D-*%
X-5462500Y-7850000D02*
X-3962500Y-7850000D01*
X-3962500Y-7850000D02*
X-3712500Y-7600000D01*
%TO.N,USB_D+*%
X-5312500Y-9600000D02*
X-5462500Y-9750000D01*
X-3712500Y-9600000D02*
X-5312500Y-9600000D01*
%TO.N,Net-(U1-USB_D-)*%
X-1107500Y-8380000D02*
X50000Y-8380000D01*
X-1887500Y-7600000D02*
X-1107500Y-8380000D01*
%TO.N,Net-(U1-USB_D+)*%
X0Y-9600000D02*
X50000Y-9650000D01*
X-1887500Y-9600000D02*
X0Y-9600000D01*
D34*
%TO.N,Net-(D1-DIN)*%
X-8312500Y1887500D02*
X-8016000Y2184000D01*
X-8016000Y2184000D02*
X-8016000Y2713750D01*
X-9200000Y1887500D02*
X-8312500Y1887500D01*
X-6400000Y300250D02*
X-6400000Y2499750D01*
X-7013000Y3112750D02*
X-7315000Y3112750D01*
X-6400000Y2499750D02*
X-7013000Y3112750D01*
D38*
X-6800000Y3800000D02*
X-6800000Y3627750D01*
D34*
X-7617000Y3112750D02*
X-7315000Y3112750D01*
X-8016000Y2713750D02*
X-7617000Y3112750D01*
D38*
X-6800000Y3627750D02*
X-7315000Y3112750D01*
D39*
%TO.N,Net-(D2-K)*%
X-13000000Y-2000000D02*
X-13000000Y-2677500D01*
X-13000000Y-2677500D02*
X-13200000Y-2877500D01*
%TO.N,Net-(D3-K)*%
X-10800000Y-2477500D02*
X-11200000Y-2877500D01*
X-10800000Y-2000000D02*
X-10800000Y-2477500D01*
D38*
%TO.N,Net-(J2-D--PadA7)*%
X-11606000Y-8674000D02*
X-11582000Y-8650000D01*
X-9450000Y-8650000D02*
X-10555000Y-8650000D01*
X-11606000Y-9626000D02*
X-11606000Y-8674000D01*
X-11582000Y-8650000D02*
X-10555000Y-8650000D01*
X-10555000Y-9650000D02*
X-11582000Y-9650000D01*
X-7737500Y-7850000D02*
X-8650000Y-7850000D01*
X-8650000Y-7850000D02*
X-9450000Y-8650000D01*
X-11582000Y-9650000D02*
X-11606000Y-9626000D01*
%TO.N,Net-(J2-D+-PadA6)*%
X-8850000Y-9750000D02*
X-7737500Y-9750000D01*
X-9504000Y-9174000D02*
X-9504000Y-10126000D01*
X-9528000Y-9150000D02*
X-9504000Y-9174000D01*
X-9528000Y-10150000D02*
X-10555000Y-10150000D01*
X-10555000Y-9150000D02*
X-9450000Y-9150000D01*
X-9450000Y-9150000D02*
X-8850000Y-9750000D01*
X-9504000Y-10126000D02*
X-9528000Y-10150000D01*
X-10555000Y-9150000D02*
X-9528000Y-9150000D01*
D39*
%TO.N,Net-(J2-CC1)*%
X-10555000Y-8150000D02*
X-9552454Y-8150000D01*
X-9552454Y-8150000D02*
X-7512500Y-6110046D01*
X-7512500Y-6110046D02*
X-7512500Y-5800000D01*
D34*
%TO.N,Net-(Q2-B)*%
X-7350000Y-1574750D02*
X-7350000Y-3599750D01*
X-7350000Y-3599750D02*
X-7312500Y-3637250D01*
D38*
%TO.N,Net-(U1-IO38)*%
X16200000Y-4600000D02*
X17520000Y-4600000D01*
X17520000Y-4600000D02*
X17550000Y-4570000D01*
%TO.N,Net-(U1-IO17)*%
X42465Y-4577535D02*
X50000Y-4570000D01*
X-1800000Y-4577535D02*
X42465Y-4577535D01*
D39*
%TO.N,Net-(U1-IO18)*%
X2904675Y-5840000D02*
X50000Y-5840000D01*
X3139399Y-6074724D02*
X2904675Y-5840000D01*
%TO.N,Net-(U1-IO21)*%
X11581427Y-10506427D02*
X11975000Y-10900000D01*
X11581427Y-9888922D02*
X11581427Y-10506427D01*
%TO.N,Net-(U1-IO35)*%
X15770000Y-8380000D02*
X17550000Y-8380000D01*
X14800000Y-9350000D02*
X15770000Y-8380000D01*
D38*
%TO.N,Net-(U1-IO36)*%
X15600000Y-7000000D02*
X17440000Y-7000000D01*
X17440000Y-7000000D02*
X17550000Y-7110000D01*
%TO.N,Net-(U1-IO37)*%
X16400000Y-5800000D02*
X17510000Y-5800000D01*
X17510000Y-5800000D02*
X17550000Y-5840000D01*
%TO.N,Net-(U1-IO47)*%
X13200000Y-9800000D02*
X13200000Y-10855000D01*
X13200000Y-10855000D02*
X13245000Y-10900000D01*
D39*
%TO.N,Net-(U1-IO48)*%
X15050000Y-12549578D02*
X14515000Y-12014578D01*
X14515000Y-12014578D02*
X14515000Y-10900000D01*
D38*
%TO.N,Net-(U1-IO16)*%
X-2000000Y-3170961D02*
X-79039Y-3170961D01*
X-79039Y-3170961D02*
X50000Y-3300000D01*
D39*
%TO.N,Net-(U1-IO2)*%
X17430000Y4200000D02*
X17550000Y4320000D01*
X16400000Y4200000D02*
X17430000Y4200000D01*
D38*
%TO.N,Net-(U1-IO4)*%
X3219656Y3134358D02*
X3135298Y3050000D01*
X3135298Y3050000D02*
X50000Y3050000D01*
X3443762Y3134358D02*
X3219656Y3134358D01*
D39*
%TO.N,Net-(U1-IO6)*%
X3773496Y-1585469D02*
X3660713Y-1585469D01*
X3660713Y-1585469D02*
X1565244Y510000D01*
X1565244Y510000D02*
X50000Y510000D01*
%TO.N,Net-(U1-IO8)*%
X160000Y-7000000D02*
X50000Y-7110000D01*
X1600000Y-7000000D02*
X160000Y-7000000D01*
%TO.N,Net-(U1-IO9)*%
X4355000Y-10368000D02*
X4355000Y-10900000D01*
X2987000Y-9000000D02*
X4355000Y-10368000D01*
X2000000Y-9000000D02*
X2987000Y-9000000D01*
D38*
%TO.N,Net-(U1-IO10)*%
X4624000Y-9824000D02*
X5131000Y-9824000D01*
X4000000Y-9000000D02*
X4000000Y-9200000D01*
X5625000Y-10318000D02*
X5625000Y-10900000D01*
X4000000Y-9200000D02*
X4624000Y-9824000D01*
X5131000Y-9824000D02*
X5625000Y-10318000D01*
%TO.N,Net-(U1-IO11)*%
X11597900Y-12197900D02*
X7192900Y-12197900D01*
X7192900Y-12197900D02*
X6895000Y-11900000D01*
X6895000Y-11900000D02*
X6895000Y-10900000D01*
X12000000Y-12600000D02*
X11597900Y-12197900D01*
%TD*%
%TA.AperFunction,Conductor*%
%TO.N,GND*%
G36*
X-911427Y5121194D02*
G01*
X-894322Y5089193D01*
X-888868Y5061770D01*
X-888867Y5061768D01*
X-841132Y4990329D01*
X-843870Y4988500D01*
X-829993Y4955000D01*
X-843870Y4921501D01*
X-841132Y4919671D01*
X-888867Y4848233D01*
X-888868Y4848231D01*
X-900500Y4789749D01*
X-900500Y3850252D01*
X-888868Y3791770D01*
X-888867Y3791768D01*
X-841132Y3720329D01*
X-843870Y3718500D01*
X-829993Y3685000D01*
X-843870Y3651501D01*
X-841132Y3649671D01*
X-888867Y3578233D01*
X-888868Y3578231D01*
X-900500Y3519749D01*
X-900500Y2580252D01*
X-888868Y2521770D01*
X-888867Y2521768D01*
X-841132Y2450329D01*
X-843870Y2448500D01*
X-829993Y2415000D01*
X-843870Y2381501D01*
X-841132Y2379671D01*
X-888867Y2308233D01*
X-888868Y2308231D01*
X-900500Y2249749D01*
X-900500Y1310252D01*
X-888868Y1251770D01*
X-888867Y1251768D01*
X-841132Y1180329D01*
X-843870Y1178500D01*
X-829993Y1145000D01*
X-843870Y1111501D01*
X-841132Y1109671D01*
X-888867Y1038233D01*
X-888868Y1038231D01*
X-900500Y979749D01*
X-900500Y40252D01*
X-888868Y-18230D01*
X-888867Y-18232D01*
X-841132Y-89671D01*
X-843870Y-91500D01*
X-829993Y-125000D01*
X-843870Y-158499D01*
X-841132Y-160329D01*
X-888867Y-231767D01*
X-888868Y-231769D01*
X-900500Y-290251D01*
X-900500Y-1229748D01*
X-888868Y-1288230D01*
X-888867Y-1288232D01*
X-841132Y-1359671D01*
X-843870Y-1361500D01*
X-829993Y-1395000D01*
X-838728Y-1426869D01*
X-843329Y-1434630D01*
X-844552Y-1435448D01*
X-888867Y-1501769D01*
X-891768Y-1516348D01*
X-897217Y-1525543D01*
X-908459Y-1533965D01*
X-916263Y-1545644D01*
X-926856Y-1547750D01*
X-935499Y-1554226D01*
X-949404Y-1552233D01*
X-963180Y-1554972D01*
X-982232Y-1547800D01*
X-1006812Y-1533609D01*
X-1006816Y-1533607D01*
X-1021341Y-1529715D01*
X-1049358Y-1513539D01*
X-1323381Y-1239515D01*
X-1323390Y-1239508D01*
X-1426108Y-1180203D01*
X-1426112Y-1180201D01*
X-1432600Y-1178462D01*
X-1450327Y-1173713D01*
X-1468400Y-1168870D01*
X-1540687Y-1149500D01*
X-1540691Y-1149500D01*
X-2587509Y-1149500D01*
X-2631703Y-1131194D01*
X-4113540Y350643D01*
X-4129716Y378661D01*
X-4133608Y393186D01*
X-4199500Y507314D01*
X-4199502Y507316D01*
X-4199505Y507320D01*
X-4292681Y600496D01*
X-4292685Y600499D01*
X-4292686Y600500D01*
X-4405946Y665891D01*
X-4406815Y666393D01*
X-4406818Y666394D01*
X-4534102Y700499D01*
X-4534107Y700500D01*
X-4534108Y700500D01*
X-4665892Y700500D01*
X-4665893Y700500D01*
X-4665899Y700499D01*
X-4793183Y666394D01*
X-4793186Y666393D01*
X-4907316Y600499D01*
X-4907320Y600496D01*
X-5000496Y507320D01*
X-5000499Y507316D01*
X-5066393Y393186D01*
X-5066394Y393183D01*
X-5100499Y265899D01*
X-5100500Y265891D01*
X-5100500Y134110D01*
X-5100499Y134102D01*
X-5066394Y6818D01*
X-5066393Y6815D01*
X-5051933Y-18230D01*
X-5013642Y-84552D01*
X-5000499Y-107315D01*
X-5000496Y-107319D01*
X-4907320Y-200495D01*
X-4907316Y-200498D01*
X-4907314Y-200500D01*
X-4793186Y-266392D01*
X-4778661Y-270284D01*
X-4750643Y-286460D01*
X-3076614Y-1960489D01*
X-3017304Y-1994731D01*
X-2973886Y-2019799D01*
X-2859309Y-2050500D01*
X-1812491Y-2050500D01*
X-1768297Y-2068806D01*
X-1686461Y-2150642D01*
X-1670285Y-2178659D01*
X-1666393Y-2193184D01*
X-1666390Y-2193192D01*
X-1600503Y-2307310D01*
X-1600496Y-2307319D01*
X-1507320Y-2400495D01*
X-1507316Y-2400498D01*
X-1507314Y-2400500D01*
X-1414005Y-2454372D01*
X-1393186Y-2466392D01*
X-1393183Y-2466393D01*
X-1337720Y-2481254D01*
X-1265892Y-2500500D01*
X-1265891Y-2500500D01*
X-1134109Y-2500500D01*
X-1134108Y-2500500D01*
X-1006814Y-2466392D01*
X-992937Y-2458379D01*
X-945513Y-2452135D01*
X-907561Y-2481254D01*
X-900388Y-2500313D01*
X-888868Y-2558230D01*
X-888867Y-2558232D01*
X-841132Y-2629671D01*
X-843870Y-2631500D01*
X-829993Y-2665000D01*
X-843870Y-2698499D01*
X-841132Y-2700329D01*
X-888867Y-2771767D01*
X-888867Y-2771769D01*
X-893519Y-2795155D01*
X-920096Y-2834928D01*
X-954818Y-2845461D01*
X-1341601Y-2845461D01*
X-1385795Y-2827155D01*
X-1393568Y-2817684D01*
X-1455886Y-2724419D01*
X-1553459Y-2626846D01*
X-1668187Y-2550187D01*
X-1668189Y-2550186D01*
X-1795674Y-2497380D01*
X-1931007Y-2470461D01*
X-2068993Y-2470461D01*
X-2204327Y-2497380D01*
X-2204328Y-2497380D01*
X-2331812Y-2550186D01*
X-2331814Y-2550187D01*
X-2446542Y-2626846D01*
X-2544115Y-2724419D01*
X-2620774Y-2839147D01*
X-2620775Y-2839149D01*
X-2673581Y-2966633D01*
X-2673581Y-2966634D01*
X-2700500Y-3101967D01*
X-2700500Y-3239954D01*
X-2673581Y-3375287D01*
X-2673581Y-3375288D01*
X-2620775Y-3502772D01*
X-2620774Y-3502774D01*
X-2544115Y-3617502D01*
X-2544114Y-3617503D01*
X-2446542Y-3715075D01*
X-2331811Y-3791736D01*
X-2204328Y-3844541D01*
X-2181629Y-3849056D01*
X-2167016Y-3851963D01*
X-2127242Y-3878539D01*
X-2117910Y-3925455D01*
X-2144486Y-3965229D01*
X-2246542Y-4033420D01*
X-2344115Y-4130993D01*
X-2420774Y-4245721D01*
X-2420775Y-4245723D01*
X-2473581Y-4373207D01*
X-2473581Y-4373208D01*
X-2500500Y-4508541D01*
X-2500500Y-4646528D01*
X-2473581Y-4781861D01*
X-2473581Y-4781862D01*
X-2420775Y-4909346D01*
X-2420774Y-4909348D01*
X-2364100Y-4994166D01*
X-2344114Y-5024077D01*
X-2246542Y-5121649D01*
X-2131811Y-5198310D01*
X-2004328Y-5251115D01*
X-1868993Y-5278035D01*
X-1731007Y-5278035D01*
X-1595672Y-5251115D01*
X-1468189Y-5198310D01*
X-1353458Y-5121649D01*
X-1255886Y-5024077D01*
X-1193568Y-4930812D01*
X-1153794Y-4904236D01*
X-1141601Y-4903035D01*
X-963000Y-4903035D01*
X-918806Y-4921341D01*
X-900500Y-4965535D01*
X-900500Y-5039748D01*
X-888868Y-5098230D01*
X-888867Y-5098232D01*
X-841132Y-5169671D01*
X-843870Y-5171500D01*
X-829993Y-5205000D01*
X-843870Y-5238499D01*
X-841132Y-5240329D01*
X-888867Y-5311767D01*
X-888868Y-5311769D01*
X-900500Y-5370251D01*
X-900500Y-6309748D01*
X-888868Y-6368230D01*
X-888867Y-6368232D01*
X-841132Y-6439671D01*
X-843870Y-6441500D01*
X-829993Y-6475000D01*
X-843870Y-6508499D01*
X-841132Y-6510329D01*
X-888867Y-6581767D01*
X-888868Y-6581769D01*
X-900500Y-6640251D01*
X-900500Y-7579748D01*
X-888868Y-7638230D01*
X-888867Y-7638232D01*
X-841132Y-7709671D01*
X-843870Y-7711500D01*
X-829993Y-7745000D01*
X-843870Y-7778499D01*
X-841132Y-7780329D01*
X-888867Y-7851767D01*
X-888868Y-7851769D01*
X-900500Y-7910251D01*
X-900500Y-7975785D01*
X-918806Y-8019979D01*
X-963000Y-8038285D01*
X-1007194Y-8019979D01*
X-1156194Y-7870979D01*
X-1174500Y-7826785D01*
X-1174500Y-7095737D01*
X-1176147Y-7078179D01*
X-1177354Y-7065301D01*
X-1222207Y-6937118D01*
X-1224428Y-6934109D01*
X-1254508Y-6893352D01*
X-1302850Y-6827850D01*
X-1412118Y-6747207D01*
X-1540299Y-6702354D01*
X-1540304Y-6702353D01*
X-1560301Y-6700478D01*
X-1570734Y-6699500D01*
X-2204266Y-6699500D01*
X-2213876Y-6700401D01*
X-2234697Y-6702353D01*
X-2234702Y-6702354D01*
X-2364310Y-6747706D01*
X-2412070Y-6745023D01*
X-2439077Y-6719965D01*
X-2465535Y-6674138D01*
X-2465536Y-6674137D01*
X-2465537Y-6674135D01*
X-3230194Y-5909478D01*
X-3248500Y-5865284D01*
X-3248500Y-2947850D01*
X-3248501Y-2947844D01*
X-3263281Y-2892686D01*
X-3264972Y-2886374D01*
X-3270682Y-2865063D01*
X-3283502Y-2842859D01*
X-3313533Y-2790843D01*
X-3313540Y-2790834D01*
X-3740835Y-2363539D01*
X-3740844Y-2363532D01*
X-3815058Y-2320684D01*
X-3815067Y-2320680D01*
X-3897843Y-2298501D01*
X-3897848Y-2298500D01*
X-3897849Y-2298500D01*
X-4431397Y-2298500D01*
X-4517103Y-2298500D01*
X-4517104Y-2298500D01*
X-4517110Y-2298501D01*
X-4573118Y-2313508D01*
X-4620544Y-2307264D01*
X-4649664Y-2269314D01*
X-4651601Y-2248232D01*
X-4650000Y-2227897D01*
X-4650000Y-1824750D01*
X-6250000Y-1824750D01*
X-6250000Y-2227900D01*
X-6247101Y-2264736D01*
X-6247101Y-2264740D01*
X-6201282Y-2422449D01*
X-6201281Y-2422451D01*
X-6117685Y-2563805D01*
X-6001558Y-2679932D01*
X-5982699Y-2691085D01*
X-5953977Y-2729338D01*
X-5960716Y-2776696D01*
X-5977399Y-2795169D01*
X-6072150Y-2865099D01*
X-6152793Y-2974366D01*
X-6152793Y-2974367D01*
X-6197646Y-3102548D01*
X-6197647Y-3102553D01*
X-6200500Y-3132987D01*
X-6200500Y-4141512D01*
X-6197647Y-4171946D01*
X-6197646Y-4171951D01*
X-6152793Y-4300132D01*
X-6152793Y-4300133D01*
X-6136987Y-4321549D01*
X-6072150Y-4409400D01*
X-5995597Y-4465898D01*
X-5966570Y-4487321D01*
X-5941882Y-4528293D01*
X-5953397Y-4574722D01*
X-5994369Y-4599410D01*
X-5998399Y-4599817D01*
X-5998396Y-4599839D01*
X-6102688Y-4610492D01*
X-6102695Y-4610493D01*
X-6269122Y-4665641D01*
X-6418344Y-4757682D01*
X-6542318Y-4881656D01*
X-6634359Y-5030878D01*
X-6689508Y-5197308D01*
X-6691874Y-5220467D01*
X-6714578Y-5262571D01*
X-6760404Y-5276289D01*
X-6802508Y-5253585D01*
X-6813042Y-5234757D01*
X-6847207Y-5137118D01*
X-6858624Y-5121649D01*
X-6875907Y-5098231D01*
X-6927850Y-5027850D01*
X-7037118Y-4947207D01*
X-7083972Y-4930812D01*
X-7165299Y-4902354D01*
X-7165304Y-4902353D01*
X-7185301Y-4900478D01*
X-7195734Y-4899500D01*
X-7829266Y-4899500D01*
X-7838876Y-4900401D01*
X-7859697Y-4902353D01*
X-7859702Y-4902354D01*
X-7987883Y-4947207D01*
X-7987884Y-4947207D01*
X-8097150Y-5027850D01*
X-8177793Y-5137116D01*
X-8177793Y-5137117D01*
X-8222646Y-5265298D01*
X-8222647Y-5265303D01*
X-8225500Y-5295737D01*
X-8225500Y-6304262D01*
X-8222647Y-6334696D01*
X-8222645Y-6334704D01*
X-8219929Y-6342466D01*
X-8222612Y-6390226D01*
X-8234728Y-6407301D01*
X-9522806Y-7695380D01*
X-9567000Y-7713686D01*
X-9611194Y-7695380D01*
X-9629500Y-7651186D01*
X-9629500Y-7480252D01*
X-9641133Y-7421769D01*
X-9649183Y-7409722D01*
X-9658515Y-7362808D01*
X-9649183Y-7340278D01*
X-9641133Y-7328231D01*
X-9629500Y-7269748D01*
X-9629500Y-6952259D01*
X-9611194Y-6908065D01*
X-9591784Y-6895592D01*
X-9591836Y-6895497D01*
X-9590497Y-6894765D01*
X-9588832Y-6893696D01*
X-9587911Y-6893352D01*
X-9472810Y-6807187D01*
X-9472809Y-6807186D01*
X-9386650Y-6692094D01*
X-9386648Y-6692091D01*
X-9336403Y-6557377D01*
X-9330001Y-6497835D01*
X-9330000Y-6497822D01*
X-9330000Y-6400000D01*
X-10305000Y-6400000D01*
X-10314193Y-6409192D01*
X-10323306Y-6431194D01*
X-10367500Y-6449500D01*
X-10742500Y-6449500D01*
X-10786694Y-6431194D01*
X-10795808Y-6409192D01*
X-10805000Y-6400000D01*
X-11385715Y-6400000D01*
X-11429909Y-6381694D01*
X-11446085Y-6353676D01*
X-11463718Y-6287868D01*
X-11463719Y-6287865D01*
X-11475241Y-6267909D01*
X-11539485Y-6156635D01*
X-11539487Y-6156633D01*
X-11539490Y-6156629D01*
X-11646630Y-6049489D01*
X-11646639Y-6049482D01*
X-11703547Y-6016626D01*
X-11732667Y-5978676D01*
X-11726423Y-5931250D01*
X-11688473Y-5902130D01*
X-11672297Y-5900000D01*
X-9330000Y-5900000D01*
X-9330000Y-5802177D01*
X-9330001Y-5802164D01*
X-9336403Y-5742622D01*
X-9386648Y-5607908D01*
X-9386650Y-5607905D01*
X-9472809Y-5492813D01*
X-9472814Y-5492808D01*
X-9587906Y-5406649D01*
X-9587909Y-5406647D01*
X-9722623Y-5356402D01*
X-9782165Y-5350000D01*
X-9904163Y-5350000D01*
X-9948357Y-5331694D01*
X-9949893Y-5330000D01*
X-10753012Y-5330000D01*
X-10735795Y-5320060D01*
X-10679940Y-5264205D01*
X-10640444Y-5195796D01*
X-10620000Y-5119496D01*
X-10620000Y-5040504D01*
X-10640444Y-4964204D01*
X-10679940Y-4895795D01*
X-10735795Y-4839940D01*
X-10753012Y-4830000D01*
X-9945728Y-4830000D01*
X-9911397Y-4811649D01*
X-9874021Y-4819721D01*
X-9793186Y-4866392D01*
X-9793184Y-4866392D01*
X-9793183Y-4866393D01*
X-9715288Y-4887264D01*
X-9665892Y-4900500D01*
X-9665891Y-4900500D01*
X-9534109Y-4900500D01*
X-9534108Y-4900500D01*
X-9406814Y-4866392D01*
X-9292686Y-4800500D01*
X-9199500Y-4707314D01*
X-9133608Y-4593186D01*
X-9099500Y-4465892D01*
X-9099500Y-4334108D01*
X-9133608Y-4206814D01*
X-9199500Y-4092686D01*
X-9199502Y-4092684D01*
X-9199505Y-4092680D01*
X-9281194Y-4010991D01*
X-9299500Y-3966797D01*
X-9299500Y-3688000D01*
X-9281194Y-3643806D01*
X-9237000Y-3625500D01*
X-8695738Y-3625500D01*
X-8695734Y-3625500D01*
X-8665301Y-3622646D01*
X-8537118Y-3577793D01*
X-8427850Y-3497150D01*
X-8347207Y-3387882D01*
X-8302354Y-3259699D01*
X-8299500Y-3229266D01*
X-8299500Y-3132987D01*
X-8025500Y-3132987D01*
X-8025500Y-4141512D01*
X-8022647Y-4171946D01*
X-8022646Y-4171951D01*
X-7977793Y-4300132D01*
X-7977793Y-4300133D01*
X-7961987Y-4321549D01*
X-7897150Y-4409400D01*
X-7787882Y-4490043D01*
X-7659699Y-4534896D01*
X-7629266Y-4537750D01*
X-7629262Y-4537750D01*
X-6995738Y-4537750D01*
X-6995734Y-4537750D01*
X-6965301Y-4534896D01*
X-6837118Y-4490043D01*
X-6727850Y-4409400D01*
X-6647207Y-4300132D01*
X-6602354Y-4171949D01*
X-6599500Y-4141516D01*
X-6599500Y-3132984D01*
X-6602354Y-3102551D01*
X-6647207Y-2974368D01*
X-6652916Y-2966633D01*
X-6683167Y-2925644D01*
X-6727850Y-2865100D01*
X-6792097Y-2817684D01*
X-6837117Y-2784457D01*
X-6957643Y-2742283D01*
X-6993311Y-2710407D01*
X-6999500Y-2683290D01*
X-6999500Y-2483319D01*
X-6981194Y-2439125D01*
X-6946432Y-2404363D01*
X-6910802Y-2368733D01*
X-6859427Y-2263643D01*
X-6849500Y-2195510D01*
X-6849500Y-953990D01*
X-6859427Y-885857D01*
X-6910802Y-780767D01*
X-6993517Y-698052D01*
X-7098607Y-646677D01*
X-7098609Y-646676D01*
X-7098610Y-646676D01*
X-7159877Y-637750D01*
X-7166740Y-636750D01*
X-7533260Y-636750D01*
X-7540123Y-637750D01*
X-7601391Y-646676D01*
X-7706485Y-698053D01*
X-7789197Y-780765D01*
X-7840574Y-885859D01*
X-7850500Y-953990D01*
X-7850500Y-2195509D01*
X-7840574Y-2263640D01*
X-7840574Y-2263641D01*
X-7840573Y-2263643D01*
X-7789198Y-2368733D01*
X-7789197Y-2368734D01*
X-7718806Y-2439125D01*
X-7700500Y-2483319D01*
X-7700500Y-2709533D01*
X-7718806Y-2753727D01*
X-7742356Y-2768525D01*
X-7787882Y-2784455D01*
X-7897150Y-2865100D01*
X-7977793Y-2974366D01*
X-7977793Y-2974367D01*
X-8022646Y-3102548D01*
X-8022647Y-3102553D01*
X-8025500Y-3132987D01*
X-8299500Y-3132987D01*
X-8299500Y-2595734D01*
X-8302354Y-2565301D01*
X-8347207Y-2437118D01*
X-8357021Y-2423821D01*
X-8379633Y-2393182D01*
X-8427850Y-2327850D01*
X-8482484Y-2287528D01*
X-8537117Y-2247207D01*
X-8634758Y-2213041D01*
X-8670426Y-2181165D01*
X-8673108Y-2133405D01*
X-8641232Y-2097737D01*
X-8620464Y-2091871D01*
X-8597305Y-2089505D01*
X-8430879Y-2034358D01*
X-8281657Y-1942317D01*
X-8157683Y-1818343D01*
X-8065642Y-1669121D01*
X-8010493Y-1502691D01*
X-8000001Y-1399986D01*
X-8000000Y-1399977D01*
X-8000000Y-1337500D01*
X-9137500Y-1337500D01*
X-9181694Y-1319194D01*
X-9200000Y-1275000D01*
X-9200000Y-1087500D01*
X-9387500Y-1087500D01*
X-9431694Y-1069194D01*
X-9450000Y-1025000D01*
X-9450000Y-837500D01*
X-8950000Y-837500D01*
X-8000001Y-837500D01*
X-8000001Y-775024D01*
X-8000002Y-775012D01*
X-8010493Y-672312D01*
X-8010494Y-672305D01*
X-8065642Y-505878D01*
X-8157683Y-356656D01*
X-8281657Y-232682D01*
X-8430879Y-140641D01*
X-8597309Y-85492D01*
X-8700014Y-75000D01*
X-8950000Y-75000D01*
X-8950000Y-837500D01*
X-9450000Y-837500D01*
X-9450000Y-75000D01*
X-9699976Y-75000D01*
X-9699988Y-75001D01*
X-9802688Y-85492D01*
X-9802695Y-85493D01*
X-9969122Y-140641D01*
X-10118344Y-232682D01*
X-10242318Y-356656D01*
X-10305779Y-459542D01*
X-10344561Y-487546D01*
X-10391785Y-479926D01*
X-10409262Y-463844D01*
X-10415741Y-455066D01*
X-10426070Y-441070D01*
X-10426071Y-441069D01*
X-10426072Y-441068D01*
X-10533820Y-361545D01*
X-10656292Y-318690D01*
X-10691960Y-286814D01*
X-10694642Y-239054D01*
X-10679843Y-215503D01*
X-10607683Y-143343D01*
X-10515642Y5879D01*
X-10460493Y172309D01*
X-10450001Y275014D01*
X-10450000Y275023D01*
X-10450000Y550000D01*
X-11387500Y550000D01*
X-11431694Y568306D01*
X-11450000Y612500D01*
X-11450000Y800000D01*
X-11637500Y800000D01*
X-11681694Y818306D01*
X-11700000Y862500D01*
X-11700000Y2025000D01*
X-11200000Y2025000D01*
X-11200000Y1050000D01*
X-10453440Y1050000D01*
X-10409246Y1031694D01*
X-10121088Y743535D01*
X-10121079Y743528D01*
X-10062769Y709862D01*
X-10062768Y709862D01*
X-10048011Y701343D01*
X-10041158Y697386D01*
X-10041156Y697386D01*
X-10041155Y697385D01*
X-9986606Y682769D01*
X-9952014Y673500D01*
X-9952013Y673500D01*
X-8257607Y673500D01*
X-8257606Y673500D01*
X-8168462Y697386D01*
X-8155622Y704800D01*
X-8146852Y709862D01*
X-8108887Y731782D01*
X-8088538Y743530D01*
X-7907194Y924874D01*
X-7863000Y943180D01*
X-7818806Y924874D01*
X-7800500Y880680D01*
X-7800500Y498254D01*
X-7818806Y454060D01*
X-7831750Y444128D01*
X-7907311Y400503D01*
X-7907320Y400496D01*
X-8000496Y307320D01*
X-8000499Y307316D01*
X-8066393Y193186D01*
X-8066394Y193183D01*
X-8100499Y65899D01*
X-8100500Y65891D01*
X-8100500Y-65890D01*
X-8100499Y-65898D01*
X-8066394Y-193182D01*
X-8066393Y-193185D01*
X-8057317Y-208904D01*
X-8005011Y-299501D01*
X-8000499Y-307315D01*
X-8000496Y-307319D01*
X-7907320Y-400495D01*
X-7907316Y-400498D01*
X-7907314Y-400500D01*
X-7797599Y-463844D01*
X-7793186Y-466392D01*
X-7793183Y-466393D01*
X-7742676Y-479926D01*
X-7665892Y-500500D01*
X-7665891Y-500500D01*
X-7534109Y-500500D01*
X-7534108Y-500500D01*
X-7406814Y-466392D01*
X-7292686Y-400500D01*
X-7199500Y-307314D01*
X-7133608Y-193186D01*
X-7103835Y-82065D01*
X-7087659Y-54050D01*
X-7079520Y-45913D01*
X-7026793Y45413D01*
X-7023745Y56790D01*
X-7023370Y58188D01*
X-6994249Y96138D01*
X-6946823Y102381D01*
X-6908873Y73260D01*
X-6900500Y42011D01*
X-6900500Y-320509D01*
X-6890574Y-388640D01*
X-6890574Y-388641D01*
X-6890573Y-388643D01*
X-6839198Y-493733D01*
X-6756483Y-576448D01*
X-6651393Y-627823D01*
X-6583260Y-637750D01*
X-6583259Y-637750D01*
X-6257784Y-637750D01*
X-6213590Y-656056D01*
X-6195284Y-700250D01*
X-6200426Y-725075D01*
X-6201283Y-727054D01*
X-6247101Y-884759D01*
X-6247101Y-884763D01*
X-6250000Y-921599D01*
X-6250000Y-1324750D01*
X-5700000Y-1324750D01*
X-5200000Y-1324750D01*
X-4650000Y-1324750D01*
X-4650000Y-921599D01*
X-4652900Y-884763D01*
X-4652900Y-884759D01*
X-4698719Y-727050D01*
X-4698720Y-727048D01*
X-4782316Y-585694D01*
X-4898445Y-469565D01*
X-5039799Y-385969D01*
X-5039801Y-385968D01*
X-5197501Y-340151D01*
X-5197514Y-340149D01*
X-5200000Y-339952D01*
X-5200000Y-1324750D01*
X-5700000Y-1324750D01*
X-5700000Y-339952D01*
X-5702487Y-340149D01*
X-5702500Y-340151D01*
X-5819563Y-374162D01*
X-5867110Y-368913D01*
X-5897018Y-331581D01*
X-5899500Y-314144D01*
X-5899500Y921010D01*
X-5908058Y979748D01*
X-5909427Y989143D01*
X-5960802Y1094233D01*
X-6031194Y1164625D01*
X-6049500Y1208819D01*
X-6049500Y1448006D01*
X-6031194Y1492200D01*
X-5987000Y1510506D01*
X-5952278Y1499974D01*
X-5913231Y1473883D01*
X-5854748Y1462250D01*
X-5115252Y1462250D01*
X-5056769Y1473883D01*
X-4990448Y1518198D01*
X-4946133Y1584519D01*
X-4934500Y1643002D01*
X-4934500Y2260491D01*
X-4916194Y2304685D01*
X-4896784Y2317158D01*
X-4896836Y2317253D01*
X-4895497Y2317985D01*
X-4893832Y2319054D01*
X-4892911Y2319398D01*
X-4777810Y2405563D01*
X-4777809Y2405564D01*
X-4691650Y2520656D01*
X-4691648Y2520659D01*
X-4641403Y2655373D01*
X-4635001Y2714915D01*
X-4635000Y2714928D01*
X-4635000Y2862750D01*
X-6241430Y2862750D01*
X-6285624Y2881056D01*
X-6633870Y3229302D01*
X-6652176Y3273496D01*
X-6633870Y3317690D01*
X-6610295Y3331296D01*
X-6610602Y3332038D01*
X-6606822Y3333605D01*
X-6606820Y3333607D01*
X-6606814Y3333608D01*
X-6492686Y3399500D01*
X-6485889Y3406297D01*
X-6441694Y3450491D01*
X-6397500Y3468797D01*
X-6353306Y3450491D01*
X-6335000Y3406297D01*
X-6335000Y3362750D01*
X-5735000Y3362750D01*
X-5235000Y3362750D01*
X-4635000Y3362750D01*
X-4635000Y3510573D01*
X-4635001Y3510586D01*
X-4641403Y3570128D01*
X-4691648Y3704842D01*
X-4691650Y3704845D01*
X-4777809Y3819937D01*
X-4777814Y3819942D01*
X-4892906Y3906101D01*
X-4892909Y3906103D01*
X-5027623Y3956348D01*
X-5087165Y3962750D01*
X-5235000Y3962750D01*
X-5235000Y3362750D01*
X-5735000Y3362750D01*
X-5735000Y3962750D01*
X-5882836Y3962750D01*
X-5942378Y3956348D01*
X-6077092Y3906103D01*
X-6077095Y3906101D01*
X-6192187Y3819942D01*
X-6192806Y3819322D01*
X-6193272Y3819130D01*
X-6195767Y3817261D01*
X-6196244Y3817898D01*
X-6237000Y3801016D01*
X-6281194Y3819322D01*
X-6298812Y3861854D01*
X-6298966Y3861833D01*
X-6299042Y3862411D01*
X-6299500Y3863516D01*
X-6299500Y3865891D01*
X-6299502Y3865899D01*
X-6333607Y3993183D01*
X-6333608Y3993186D01*
X-6341477Y4006815D01*
X-6399500Y4107314D01*
X-6399502Y4107316D01*
X-6399505Y4107320D01*
X-6492681Y4200496D01*
X-6492685Y4200499D01*
X-6492686Y4200500D01*
X-6576777Y4249050D01*
X-6606815Y4266393D01*
X-6606818Y4266394D01*
X-6734102Y4300499D01*
X-6734107Y4300500D01*
X-6734108Y4300500D01*
X-6865892Y4300500D01*
X-6865893Y4300500D01*
X-6865899Y4300499D01*
X-6993183Y4266394D01*
X-6993186Y4266393D01*
X-7107316Y4200499D01*
X-7107320Y4200496D01*
X-7200496Y4107320D01*
X-7200499Y4107316D01*
X-7266393Y3993186D01*
X-7266394Y3993183D01*
X-7300499Y3865899D01*
X-7300500Y3865891D01*
X-7300500Y3734104D01*
X-7300474Y3733906D01*
X-7300500Y3733809D01*
X-7300500Y3730012D01*
X-7301517Y3730012D01*
X-7312855Y3687701D01*
X-7354283Y3663785D01*
X-7362439Y3663250D01*
X-7684748Y3663250D01*
X-7743231Y3651618D01*
X-7743233Y3651617D01*
X-7809553Y3607303D01*
X-7853867Y3540983D01*
X-7853868Y3540981D01*
X-7865500Y3482499D01*
X-7865500Y3385820D01*
X-7883806Y3341626D01*
X-8296466Y2928967D01*
X-8296473Y2928958D01*
X-8331360Y2868531D01*
X-8331360Y2868530D01*
X-8342614Y2849040D01*
X-8342615Y2849038D01*
X-8366499Y2759901D01*
X-8366500Y2759893D01*
X-8366500Y2550678D01*
X-8384806Y2506484D01*
X-8429000Y2488178D01*
X-8466113Y2500390D01*
X-8537118Y2552793D01*
X-8665299Y2597646D01*
X-8665304Y2597647D01*
X-8685301Y2599522D01*
X-8695734Y2600500D01*
X-9667608Y2600500D01*
X-9711802Y2618806D01*
X-9730108Y2663000D01*
X-9730108Y2695641D01*
X-9730110Y2695649D01*
X-9764215Y2822933D01*
X-9764219Y2822942D01*
X-9817280Y2914845D01*
X-9823524Y2962271D01*
X-9794404Y3000221D01*
X-9746978Y3006465D01*
X-9742510Y3005087D01*
X-9738949Y3003841D01*
X-9734699Y3002354D01*
X-9704266Y2999500D01*
X-9704262Y2999500D01*
X-8695738Y2999500D01*
X-8695734Y2999500D01*
X-8665301Y3002354D01*
X-8537118Y3047207D01*
X-8427850Y3127850D01*
X-8347207Y3237118D01*
X-8302354Y3365301D01*
X-8299500Y3395734D01*
X-8299500Y4029266D01*
X-8302354Y4059699D01*
X-8347207Y4187882D01*
X-8356517Y4200496D01*
X-8392352Y4249051D01*
X-8427850Y4297150D01*
X-8537118Y4377793D01*
X-8581100Y4393183D01*
X-8665299Y4422646D01*
X-8665304Y4422647D01*
X-8685301Y4424522D01*
X-8695734Y4425500D01*
X-9704266Y4425500D01*
X-9713876Y4424599D01*
X-9734697Y4422647D01*
X-9734702Y4422646D01*
X-9862883Y4377793D01*
X-9862884Y4377793D01*
X-9972150Y4297150D01*
X-10052793Y4187884D01*
X-10052793Y4187883D01*
X-10097646Y4059702D01*
X-10097647Y4059697D01*
X-10100500Y4029263D01*
X-10100500Y3821071D01*
X-10118806Y3776877D01*
X-10531466Y3364218D01*
X-10531473Y3364209D01*
X-10568255Y3300502D01*
X-10568254Y3300501D01*
X-10577613Y3284292D01*
X-10577616Y3284285D01*
X-10601499Y3195151D01*
X-10601500Y3195143D01*
X-10601500Y2992561D01*
X-10619806Y2948367D01*
X-10631104Y2937070D01*
X-10631107Y2937066D01*
X-10697001Y2822936D01*
X-10697002Y2822933D01*
X-10731107Y2695649D01*
X-10731108Y2695641D01*
X-10731108Y2563860D01*
X-10731107Y2563852D01*
X-10697002Y2436568D01*
X-10697001Y2436565D01*
X-10697000Y2436564D01*
X-10631108Y2322436D01*
X-10619807Y2311135D01*
X-10601500Y2266942D01*
X-10601500Y1888049D01*
X-10619806Y1843855D01*
X-10664000Y1825549D01*
X-10708194Y1843855D01*
X-10731657Y1867318D01*
X-10880879Y1959359D01*
X-11047309Y2014508D01*
X-11150014Y2025000D01*
X-11200000Y2025000D01*
X-11700000Y2025000D01*
X-11700001Y2025001D01*
X-11749975Y2025000D01*
X-11749989Y2024999D01*
X-11852688Y2014508D01*
X-11852695Y2014507D01*
X-12019122Y1959359D01*
X-12168342Y1867319D01*
X-12209861Y1825800D01*
X-12254056Y1807495D01*
X-12298249Y1825801D01*
X-13152913Y2680466D01*
X-13152917Y2680469D01*
X-13152918Y2680470D01*
X-13197473Y2706194D01*
X-13232843Y2726615D01*
X-13232846Y2726616D01*
X-13321980Y2750499D01*
X-13321985Y2750500D01*
X-13321986Y2750500D01*
X-13588208Y2750500D01*
X-13588209Y2750500D01*
X-13588215Y2750499D01*
X-13677349Y2726616D01*
X-13677352Y2726615D01*
X-13757278Y2680469D01*
X-13757282Y2680466D01*
X-14124010Y2313736D01*
X-14168204Y2295430D01*
X-14213026Y2295430D01*
X-14213027Y2295430D01*
X-14213033Y2295429D01*
X-14340317Y2261324D01*
X-14340320Y2261323D01*
X-14454450Y2195429D01*
X-14454454Y2195426D01*
X-14547630Y2102250D01*
X-14547633Y2102246D01*
X-14613527Y1988116D01*
X-14613528Y1988113D01*
X-14647633Y1860829D01*
X-14647634Y1860821D01*
X-14647634Y1729040D01*
X-14647633Y1729032D01*
X-14613528Y1601748D01*
X-14613527Y1601745D01*
X-14603582Y1584520D01*
X-14550281Y1492200D01*
X-14547633Y1487615D01*
X-14547630Y1487611D01*
X-14454454Y1394435D01*
X-14454450Y1394432D01*
X-14454448Y1394430D01*
X-14349971Y1334110D01*
X-14340320Y1328538D01*
X-14340317Y1328537D01*
X-14227733Y1298370D01*
X-14189782Y1269250D01*
X-14183539Y1221824D01*
X-14212659Y1183873D01*
X-14243909Y1175500D01*
X-14450564Y1175500D01*
X-14549436Y1175500D01*
X-14549437Y1175500D01*
X-14549443Y1175499D01*
X-14644934Y1149913D01*
X-14644943Y1149909D01*
X-14730559Y1100478D01*
X-14730568Y1100471D01*
X-14897231Y933806D01*
X-14941425Y915500D01*
X-15961723Y915500D01*
X-16005917Y933806D01*
X-16019465Y954082D01*
X-16045190Y1016186D01*
X-16054059Y1037598D01*
X-16054061Y1037600D01*
X-16054061Y1037602D01*
X-16169023Y1209655D01*
X-16315346Y1355978D01*
X-16487399Y1470940D01*
X-16487402Y1470941D01*
X-16678582Y1550131D01*
X-16881535Y1590500D01*
X-17088465Y1590500D01*
X-17291419Y1550131D01*
X-17482599Y1470941D01*
X-17482602Y1470940D01*
X-17654655Y1355978D01*
X-17800978Y1209655D01*
X-17915940Y1037602D01*
X-17915941Y1037599D01*
X-17995131Y846419D01*
X-18035500Y643466D01*
X-18035500Y436535D01*
X-17995131Y233582D01*
X-17915941Y42402D01*
X-17915940Y42399D01*
X-17800978Y-129654D01*
X-17654655Y-275977D01*
X-17482602Y-390939D01*
X-17482600Y-390939D01*
X-17482598Y-390941D01*
X-17291420Y-470130D01*
X-17088465Y-510500D01*
X-16881535Y-510500D01*
X-16678580Y-470130D01*
X-16487402Y-390941D01*
X-16315345Y-275977D01*
X-16229397Y-190027D01*
X-16185203Y-171722D01*
X-16141009Y-190028D01*
X-15593806Y-737231D01*
X-15575500Y-781425D01*
X-15575500Y-875744D01*
X-15593806Y-919938D01*
X-15638000Y-938244D01*
X-15682194Y-919938D01*
X-15688681Y-911274D01*
X-15688967Y-911489D01*
X-15777809Y-792813D01*
X-15777814Y-792808D01*
X-15892906Y-706649D01*
X-15892909Y-706647D01*
X-16027623Y-656402D01*
X-16087165Y-650000D01*
X-16735000Y-650000D01*
X-16735000Y-1566988D01*
X-16792007Y-1534075D01*
X-16919174Y-1500000D01*
X-17050826Y-1500000D01*
X-17177993Y-1534075D01*
X-17235000Y-1566988D01*
X-17235000Y-650000D01*
X-17882836Y-650000D01*
X-17942378Y-656402D01*
X-18077092Y-706647D01*
X-18077095Y-706649D01*
X-18192187Y-792808D01*
X-18192192Y-792813D01*
X-18278351Y-907905D01*
X-18278353Y-907908D01*
X-18328598Y-1042622D01*
X-18335000Y-1102164D01*
X-18335000Y-1750000D01*
X-17418012Y-1750000D01*
X-17450925Y-1807007D01*
X-17485000Y-1934174D01*
X-17485000Y-2065826D01*
X-17450925Y-2192993D01*
X-17418012Y-2250000D01*
X-18335000Y-2250000D01*
X-18335000Y-2897835D01*
X-18328598Y-2957377D01*
X-18278353Y-3092091D01*
X-18278351Y-3092094D01*
X-18192192Y-3207186D01*
X-18192187Y-3207191D01*
X-18077095Y-3293350D01*
X-18077092Y-3293352D01*
X-17942378Y-3343597D01*
X-17882836Y-3349999D01*
X-17882822Y-3350000D01*
X-17235000Y-3350000D01*
X-17235000Y-2433012D01*
X-17177993Y-2465925D01*
X-17050826Y-2500000D01*
X-16919174Y-2500000D01*
X-16792007Y-2465925D01*
X-16735000Y-2433012D01*
X-16735000Y-3350000D01*
X-16087178Y-3350000D01*
X-16087165Y-3349999D01*
X-16027623Y-3343597D01*
X-15892909Y-3293352D01*
X-15892906Y-3293350D01*
X-15777814Y-3207191D01*
X-15777809Y-3207186D01*
X-15688967Y-3088511D01*
X-15687256Y-3089792D01*
X-15655616Y-3064289D01*
X-15608054Y-3069396D01*
X-15578034Y-3106639D01*
X-15575500Y-3124255D01*
X-15575500Y-3249439D01*
X-15569150Y-3273136D01*
X-15569149Y-3273137D01*
X-15549912Y-3344934D01*
X-15549911Y-3344937D01*
X-15500474Y-3430563D01*
X-14861049Y-4069988D01*
X-14842743Y-4114182D01*
X-14861049Y-4158376D01*
X-14905243Y-4176682D01*
X-14929161Y-4171924D01*
X-15058303Y-4118431D01*
X-15058311Y-4118429D01*
X-15251509Y-4080000D01*
X-15400000Y-4080000D01*
X-15400000Y-4780000D01*
X-15900000Y-4780000D01*
X-15900000Y-4080000D01*
X-16048491Y-4080000D01*
X-16241690Y-4118429D01*
X-16241698Y-4118431D01*
X-16423679Y-4193811D01*
X-16423681Y-4193812D01*
X-16587463Y-4303248D01*
X-16726752Y-4442537D01*
X-16836188Y-4606319D01*
X-16836189Y-4606321D01*
X-16911569Y-4788302D01*
X-16911571Y-4788310D01*
X-16919864Y-4829999D01*
X-16919863Y-4830000D01*
X-16116988Y-4830000D01*
X-16134205Y-4839940D01*
X-16190060Y-4895795D01*
X-16229556Y-4964204D01*
X-16250000Y-5040504D01*
X-16250000Y-5119496D01*
X-16229556Y-5195796D01*
X-16190060Y-5264205D01*
X-16134205Y-5320060D01*
X-16116988Y-5330000D01*
X-16919863Y-5330000D01*
X-16911571Y-5371689D01*
X-16911569Y-5371697D01*
X-16836189Y-5553678D01*
X-16836188Y-5553680D01*
X-16726752Y-5717462D01*
X-16587463Y-5856751D01*
X-16423684Y-5966185D01*
X-16330995Y-6004578D01*
X-16297171Y-6038403D01*
X-16297170Y-6086239D01*
X-16310719Y-6106515D01*
X-17430562Y-7226359D01*
X-17500471Y-7296267D01*
X-17500474Y-7296270D01*
X-17549910Y-7381896D01*
X-17552088Y-7390024D01*
X-17568291Y-7450498D01*
X-17568292Y-7450499D01*
X-17575500Y-7477395D01*
X-17575500Y-7477399D01*
X-17575500Y-10550564D01*
X-17575500Y-10649436D01*
X-17570392Y-10668500D01*
X-17549911Y-10744937D01*
X-17549910Y-10744940D01*
X-17506719Y-10819746D01*
X-17506719Y-10819747D01*
X-17500475Y-10830562D01*
X-17500470Y-10830568D01*
X-16918806Y-11412231D01*
X-16900500Y-11456425D01*
X-16900500Y-11465890D01*
X-16900499Y-11465898D01*
X-16866394Y-11593182D01*
X-16866393Y-11593185D01*
X-16852495Y-11617256D01*
X-16807276Y-11695578D01*
X-16800499Y-11707315D01*
X-16800496Y-11707319D01*
X-16707320Y-11800495D01*
X-16707316Y-11800498D01*
X-16707314Y-11800500D01*
X-16610927Y-11856149D01*
X-16593186Y-11866392D01*
X-16593183Y-11866393D01*
X-16515288Y-11887264D01*
X-16465892Y-11900500D01*
X-16465891Y-11900500D01*
X-16334109Y-11900500D01*
X-16334108Y-11900500D01*
X-16206814Y-11866392D01*
X-16092686Y-11800500D01*
X-15999500Y-11707314D01*
X-15933608Y-11593186D01*
X-15899500Y-11465892D01*
X-15899500Y-11334108D01*
X-15924028Y-11242567D01*
X-15933607Y-11206817D01*
X-15933608Y-11206814D01*
X-15946503Y-11184479D01*
X-15999500Y-11092686D01*
X-15999502Y-11092684D01*
X-15999505Y-11092680D01*
X-16092681Y-10999504D01*
X-16092685Y-10999501D01*
X-16092686Y-10999500D01*
X-16204614Y-10934878D01*
X-16206815Y-10933607D01*
X-16206818Y-10933606D01*
X-16334102Y-10899501D01*
X-16334107Y-10899500D01*
X-16334108Y-10899500D01*
X-16334109Y-10899500D01*
X-16343574Y-10899500D01*
X-16387768Y-10881194D01*
X-16806194Y-10462768D01*
X-16824500Y-10418574D01*
X-16824500Y-7708259D01*
X-16806195Y-7664066D01*
X-16801843Y-7659714D01*
X-16787575Y-7645445D01*
X-16743383Y-7627139D01*
X-16699188Y-7645444D01*
X-16680881Y-7689637D01*
X-16683010Y-7705815D01*
X-16692685Y-7741923D01*
X-16692685Y-7873705D01*
X-16692684Y-7873713D01*
X-16658579Y-8000997D01*
X-16658578Y-8001000D01*
X-16637051Y-8038285D01*
X-16600616Y-8101393D01*
X-16592684Y-8115130D01*
X-16592681Y-8115134D01*
X-16499505Y-8208310D01*
X-16499501Y-8208313D01*
X-16499499Y-8208315D01*
X-16385371Y-8274207D01*
X-16385368Y-8274208D01*
X-16307473Y-8295079D01*
X-16258077Y-8308315D01*
X-16258076Y-8308315D01*
X-16126294Y-8308315D01*
X-16126293Y-8308315D01*
X-15998999Y-8274207D01*
X-15884871Y-8208315D01*
X-15791685Y-8115129D01*
X-15725793Y-8001001D01*
X-15691685Y-7873707D01*
X-15691685Y-7741923D01*
X-15711830Y-7666740D01*
X-15725792Y-7614632D01*
X-15725793Y-7614629D01*
X-15756344Y-7561714D01*
X-15791685Y-7500501D01*
X-15791688Y-7500498D01*
X-15791690Y-7500495D01*
X-15873379Y-7418806D01*
X-15891685Y-7374612D01*
X-15891685Y-7342544D01*
X-15873379Y-7298350D01*
X-15769835Y-7194806D01*
X-15725641Y-7176500D01*
X-14363272Y-7176500D01*
X-14363267Y-7176499D01*
X-14340563Y-7170414D01*
X-14286845Y-7156021D01*
X-14218323Y-7116460D01*
X-14162374Y-7060511D01*
X-13359540Y-6257677D01*
X-13319978Y-6189154D01*
X-13299500Y-6112728D01*
X-13299500Y-6033604D01*
X-13299500Y-4087272D01*
X-13305762Y-4063902D01*
X-13319978Y-4010846D01*
X-13326529Y-3999500D01*
X-13359538Y-3942326D01*
X-13359545Y-3942317D01*
X-13629669Y-3672194D01*
X-13647975Y-3628000D01*
X-13629669Y-3583806D01*
X-13585475Y-3565500D01*
X-12690239Y-3565500D01*
X-12690236Y-3565500D01*
X-12660226Y-3562686D01*
X-12533821Y-3518455D01*
X-12426070Y-3438930D01*
X-12346545Y-3331179D01*
X-12302314Y-3204774D01*
X-12299500Y-3174764D01*
X-12299500Y-2580236D01*
X-12302314Y-2550226D01*
X-12346545Y-2423821D01*
X-12347558Y-2422449D01*
X-12426070Y-2316070D01*
X-12451926Y-2296987D01*
X-12509060Y-2254820D01*
X-12533747Y-2213849D01*
X-12532316Y-2188361D01*
X-12499500Y-2065892D01*
X-12499500Y-1934108D01*
X-12522943Y-1846617D01*
X-12533607Y-1806817D01*
X-12533608Y-1806814D01*
X-12533611Y-1806808D01*
X-12574392Y-1736175D01*
X-12580634Y-1688751D01*
X-12551514Y-1650800D01*
X-12540906Y-1645934D01*
X-12533821Y-1643455D01*
X-12426070Y-1563930D01*
X-12346545Y-1456179D01*
X-12307592Y-1344858D01*
X-12298192Y-1334338D01*
X-12292793Y-1321306D01*
X-12282874Y-1317197D01*
X-12275717Y-1309189D01*
X-12248599Y-1303000D01*
X-12151401Y-1303000D01*
X-12107207Y-1321306D01*
X-12092408Y-1344858D01*
X-12073121Y-1399977D01*
X-12053455Y-1456179D01*
X-11973930Y-1563930D01*
X-11919073Y-1604417D01*
X-11866181Y-1643454D01*
X-11866180Y-1643454D01*
X-11866179Y-1643455D01*
X-11739774Y-1687686D01*
X-11709764Y-1690500D01*
X-11307491Y-1690500D01*
X-11263297Y-1708806D01*
X-11244991Y-1753000D01*
X-11253365Y-1784250D01*
X-11266390Y-1806808D01*
X-11266394Y-1806817D01*
X-11300499Y-1934101D01*
X-11300500Y-1934109D01*
X-11300500Y-2065890D01*
X-11300499Y-2065898D01*
X-11288461Y-2110824D01*
X-11294704Y-2158250D01*
X-11332655Y-2187370D01*
X-11348831Y-2189500D01*
X-11709764Y-2189500D01*
X-11717480Y-2190223D01*
X-11739772Y-2192313D01*
X-11739774Y-2192314D01*
X-11866181Y-2236545D01*
X-11973930Y-2316070D01*
X-12053455Y-2423819D01*
X-12097686Y-2550226D01*
X-12097687Y-2550228D01*
X-12100500Y-2580239D01*
X-12100500Y-3174760D01*
X-12097687Y-3204771D01*
X-12097687Y-3204772D01*
X-12097686Y-3204774D01*
X-12089117Y-3229262D01*
X-12053455Y-3331180D01*
X-12020901Y-3375287D01*
X-11973930Y-3438930D01*
X-11913569Y-3483479D01*
X-11866181Y-3518454D01*
X-11866180Y-3518454D01*
X-11866179Y-3518455D01*
X-11739774Y-3562686D01*
X-11709764Y-3565500D01*
X-11709761Y-3565500D01*
X-10690239Y-3565500D01*
X-10690236Y-3565500D01*
X-10660226Y-3562686D01*
X-10533821Y-3518455D01*
X-10426070Y-3438930D01*
X-10346545Y-3331179D01*
X-10302314Y-3204774D01*
X-10299500Y-3174764D01*
X-10299500Y-2580236D01*
X-10302314Y-2550226D01*
X-10346545Y-2423821D01*
X-10389700Y-2365350D01*
X-10401214Y-2318923D01*
X-10393538Y-2296987D01*
X-10375588Y-2265898D01*
X-10333608Y-2193186D01*
X-10299500Y-2065892D01*
X-10299500Y-1934108D01*
X-10299958Y-1932401D01*
X-10302432Y-1923163D01*
X-10296189Y-1875737D01*
X-10258238Y-1846617D01*
X-10210812Y-1852860D01*
X-10197868Y-1862793D01*
X-10118344Y-1942317D01*
X-9969122Y-2034358D01*
X-9802692Y-2089507D01*
X-9779535Y-2091873D01*
X-9737430Y-2114575D01*
X-9723711Y-2160401D01*
X-9746413Y-2202506D01*
X-9765245Y-2213042D01*
X-9862882Y-2247207D01*
X-9862883Y-2247207D01*
X-9862884Y-2247208D01*
X-9972150Y-2327850D01*
X-10052793Y-2437116D01*
X-10052793Y-2437117D01*
X-10097646Y-2565298D01*
X-10097647Y-2565303D01*
X-10100500Y-2595737D01*
X-10100500Y-3229262D01*
X-10097647Y-3259696D01*
X-10097646Y-3259701D01*
X-10052793Y-3387882D01*
X-10052793Y-3387883D01*
X-9995750Y-3465173D01*
X-9972150Y-3497150D01*
X-9925886Y-3531293D01*
X-9901198Y-3572264D01*
X-9900500Y-3581580D01*
X-9900500Y-3966797D01*
X-9918806Y-4010991D01*
X-10000496Y-4092680D01*
X-10000499Y-4092684D01*
X-10066393Y-4206814D01*
X-10066394Y-4206817D01*
X-10100499Y-4334101D01*
X-10100500Y-4334109D01*
X-10100500Y-4334398D01*
X-10100556Y-4334532D01*
X-10101034Y-4338167D01*
X-10102009Y-4338038D01*
X-10118806Y-4378592D01*
X-10163000Y-4396898D01*
X-10207194Y-4378592D01*
X-10282538Y-4303248D01*
X-10446320Y-4193812D01*
X-10446322Y-4193811D01*
X-10628303Y-4118431D01*
X-10628311Y-4118429D01*
X-10821509Y-4080000D01*
X-11220000Y-4080000D01*
X-11220000Y-4780000D01*
X-11720000Y-4780000D01*
X-11720000Y-4080000D01*
X-12118491Y-4080000D01*
X-12311690Y-4118429D01*
X-12311698Y-4118431D01*
X-12493679Y-4193811D01*
X-12493681Y-4193812D01*
X-12657463Y-4303248D01*
X-12796752Y-4442537D01*
X-12906188Y-4606319D01*
X-12906189Y-4606321D01*
X-12981569Y-4788302D01*
X-12981571Y-4788310D01*
X-12989864Y-4829999D01*
X-12989863Y-4830000D01*
X-12186988Y-4830000D01*
X-12204205Y-4839940D01*
X-12260060Y-4895795D01*
X-12299556Y-4964204D01*
X-12320000Y-5040504D01*
X-12320000Y-5119496D01*
X-12299556Y-5195796D01*
X-12260060Y-5264205D01*
X-12204205Y-5320060D01*
X-12186988Y-5330000D01*
X-12989863Y-5330000D01*
X-12981571Y-5371689D01*
X-12981569Y-5371697D01*
X-12906189Y-5553678D01*
X-12906188Y-5553680D01*
X-12796752Y-5717462D01*
X-12657463Y-5856751D01*
X-12493680Y-5966188D01*
X-12493677Y-5966189D01*
X-12421982Y-5995886D01*
X-12388157Y-6029711D01*
X-12388156Y-6077546D01*
X-12401704Y-6097823D01*
X-12460514Y-6156633D01*
X-12536282Y-6287865D01*
X-12536283Y-6287868D01*
X-12575499Y-6434227D01*
X-12575500Y-6434235D01*
X-12575500Y-6585764D01*
X-12575499Y-6585772D01*
X-12536283Y-6732131D01*
X-12536282Y-6732134D01*
X-12536281Y-6732135D01*
X-12481020Y-6827850D01*
X-12460514Y-6863366D01*
X-12460511Y-6863370D01*
X-12353371Y-6970510D01*
X-12353367Y-6970513D01*
X-12353365Y-6970515D01*
X-12302297Y-6999999D01*
X-12222135Y-7046281D01*
X-12222132Y-7046282D01*
X-12169027Y-7060511D01*
X-12103088Y-7078179D01*
X-12065138Y-7107299D01*
X-12058894Y-7154725D01*
X-12075070Y-7182743D01*
X-13060461Y-8168132D01*
X-13060468Y-8168141D01*
X-13103319Y-8242360D01*
X-13108816Y-8262881D01*
X-13108817Y-8262883D01*
X-13125499Y-8325140D01*
X-13125500Y-8325148D01*
X-13125500Y-8991797D01*
X-13143806Y-9035991D01*
X-13200496Y-9092680D01*
X-13200499Y-9092684D01*
X-13266393Y-9206814D01*
X-13266394Y-9206817D01*
X-13300499Y-9334101D01*
X-13300500Y-9334109D01*
X-13300500Y-9465890D01*
X-13300499Y-9465898D01*
X-13266394Y-9593182D01*
X-13266393Y-9593185D01*
X-13247979Y-9625078D01*
X-13200500Y-9707314D01*
X-13143806Y-9764008D01*
X-13125500Y-9808201D01*
X-13125500Y-10474851D01*
X-13125499Y-10474859D01*
X-13103320Y-10557635D01*
X-13103316Y-10557644D01*
X-13060468Y-10631858D01*
X-13060461Y-10631867D01*
X-12075070Y-11617256D01*
X-12056764Y-11661450D01*
X-12075070Y-11705644D01*
X-12103088Y-11721820D01*
X-12222132Y-11753717D01*
X-12222135Y-11753718D01*
X-12353367Y-11829486D01*
X-12353371Y-11829489D01*
X-12460511Y-11936629D01*
X-12460514Y-11936633D01*
X-12536282Y-12067865D01*
X-12536283Y-12067868D01*
X-12575499Y-12214227D01*
X-12575500Y-12214235D01*
X-12575500Y-12365764D01*
X-12575499Y-12365772D01*
X-12536283Y-12512131D01*
X-12536282Y-12512134D01*
X-12460514Y-12643366D01*
X-12460511Y-12643370D01*
X-12401705Y-12702176D01*
X-12383399Y-12746370D01*
X-12401705Y-12790564D01*
X-12421981Y-12804112D01*
X-12493676Y-12833809D01*
X-12493680Y-12833812D01*
X-12657463Y-12943248D01*
X-12796752Y-13082537D01*
X-12906188Y-13246319D01*
X-12906189Y-13246321D01*
X-12981569Y-13428302D01*
X-12981571Y-13428310D01*
X-12989864Y-13469999D01*
X-12989863Y-13470000D01*
X-12186988Y-13470000D01*
X-12204205Y-13479940D01*
X-12260060Y-13535795D01*
X-12299556Y-13604204D01*
X-12320000Y-13680504D01*
X-12320000Y-13759496D01*
X-12299556Y-13835796D01*
X-12260060Y-13904205D01*
X-12204205Y-13960060D01*
X-12186988Y-13970000D01*
X-12989863Y-13970000D01*
X-12981571Y-14011689D01*
X-12981569Y-14011697D01*
X-12906189Y-14193678D01*
X-12906188Y-14193680D01*
X-12796752Y-14357462D01*
X-12761408Y-14392806D01*
X-12743102Y-14437000D01*
X-12761408Y-14481194D01*
X-12805602Y-14499500D01*
X-14564398Y-14499500D01*
X-14608592Y-14481194D01*
X-14626898Y-14437000D01*
X-14608592Y-14392806D01*
X-14573251Y-14357464D01*
X-14573249Y-14357462D01*
X-14463813Y-14193680D01*
X-14463812Y-14193678D01*
X-14388432Y-14011697D01*
X-14388430Y-14011689D01*
X-14380137Y-13970000D01*
X-15183012Y-13970000D01*
X-15165795Y-13960060D01*
X-15109940Y-13904205D01*
X-15070444Y-13835796D01*
X-15050000Y-13759496D01*
X-15050000Y-13680504D01*
X-15070444Y-13604204D01*
X-15109940Y-13535795D01*
X-15165795Y-13479940D01*
X-15183012Y-13470000D01*
X-14380137Y-13470000D01*
X-14380137Y-13469999D01*
X-14388430Y-13428310D01*
X-14388432Y-13428302D01*
X-14463812Y-13246321D01*
X-14463813Y-13246319D01*
X-14573249Y-13082537D01*
X-14712538Y-12943248D01*
X-14876320Y-12833812D01*
X-14876322Y-12833811D01*
X-15058303Y-12758431D01*
X-15058311Y-12758429D01*
X-15251509Y-12720000D01*
X-15400000Y-12720000D01*
X-15400000Y-13420000D01*
X-15900000Y-13420000D01*
X-15900000Y-12720000D01*
X-16048491Y-12720000D01*
X-16241690Y-12758429D01*
X-16241698Y-12758431D01*
X-16423679Y-12833811D01*
X-16423681Y-12833812D01*
X-16587463Y-12943248D01*
X-16726752Y-13082537D01*
X-16836188Y-13246319D01*
X-16836189Y-13246321D01*
X-16911569Y-13428302D01*
X-16911571Y-13428310D01*
X-16919864Y-13469999D01*
X-16919863Y-13470000D01*
X-16116988Y-13470000D01*
X-16134205Y-13479940D01*
X-16190060Y-13535795D01*
X-16229556Y-13604204D01*
X-16250000Y-13680504D01*
X-16250000Y-13759496D01*
X-16229556Y-13835796D01*
X-16190060Y-13904205D01*
X-16134205Y-13960060D01*
X-16116988Y-13970000D01*
X-16919863Y-13970000D01*
X-16911571Y-14011689D01*
X-16911569Y-14011697D01*
X-16836189Y-14193678D01*
X-16836188Y-14193680D01*
X-16726752Y-14357462D01*
X-16691408Y-14392806D01*
X-16673102Y-14437000D01*
X-16691408Y-14481194D01*
X-16735602Y-14499500D01*
X-16997764Y-14499500D01*
X-17002223Y-14499341D01*
X-17208943Y-14484555D01*
X-17217769Y-14483286D01*
X-17418093Y-14439709D01*
X-17426650Y-14437196D01*
X-17618727Y-14365555D01*
X-17626838Y-14361851D01*
X-17806767Y-14263602D01*
X-17814269Y-14258781D01*
X-17978389Y-14135922D01*
X-17985128Y-14130082D01*
X-18130083Y-13985127D01*
X-18135923Y-13978388D01*
X-18258782Y-13814268D01*
X-18263603Y-13806766D01*
X-18297185Y-13745266D01*
X-18361855Y-13626830D01*
X-18365555Y-13618727D01*
X-18409652Y-13500500D01*
X-18437197Y-13426649D01*
X-18439710Y-13418092D01*
X-18463835Y-13307191D01*
X-18483287Y-13217768D01*
X-18484556Y-13208942D01*
X-18499341Y-13002223D01*
X-18499500Y-12997764D01*
X-18499500Y4334240D01*
X-18481194Y4378434D01*
X-18437000Y4396740D01*
X-18432096Y4396547D01*
X-18415972Y4395278D01*
X-17736495Y5074755D01*
X-17736495Y5068539D01*
X-17709236Y4966806D01*
X-17656575Y4875594D01*
X-17582101Y4801120D01*
X-17490889Y4748459D01*
X-17389156Y4721200D01*
X-17382942Y4721200D01*
X-18062419Y4041725D01*
X-18017846Y4009341D01*
X-17835529Y3916447D01*
X-17835521Y3916443D01*
X-17640917Y3853212D01*
X-17438809Y3821201D01*
X-17438805Y3821200D01*
X-17234185Y3821200D01*
X-17234182Y3821201D01*
X-17032074Y3853212D01*
X-16837470Y3916443D01*
X-16837462Y3916447D01*
X-16655144Y4009342D01*
X-16610573Y4041726D01*
X-17290048Y4721200D01*
X-17283834Y4721200D01*
X-17182101Y4748459D01*
X-17090889Y4801120D01*
X-17016415Y4875594D01*
X-16963754Y4966806D01*
X-16936495Y5068539D01*
X-16936495Y5074753D01*
X-16336640Y4474898D01*
X-16321842Y4451347D01*
X-16289290Y4358322D01*
X-16289288Y4358317D01*
X-16271518Y4334240D01*
X-16208645Y4249050D01*
X-16099377Y4168407D01*
X-15971194Y4123554D01*
X-15940761Y4120700D01*
X-15940757Y4120700D01*
X-14732233Y4120700D01*
X-14732229Y4120700D01*
X-14701796Y4123554D01*
X-14573613Y4168407D01*
X-14464345Y4249050D01*
X-14383702Y4358318D01*
X-14338849Y4486501D01*
X-14335995Y4516934D01*
X-14335995Y4608200D01*
X-14317689Y4652394D01*
X-14273495Y4670700D01*
X-13334478Y4670700D01*
X-13297364Y4658487D01*
X-13227884Y4607208D01*
X-13227883Y4607208D01*
X-13227882Y4607207D01*
X-13170632Y4587175D01*
X-13147080Y4572376D01*
X-13145420Y4570716D01*
X-13145411Y4570709D01*
X-13042693Y4511404D01*
X-13042690Y4511403D01*
X-13042687Y4511401D01*
X-13042686Y4511401D01*
X-13042684Y4511400D01*
X-13027434Y4507314D01*
X-12928109Y4480701D01*
X-12928108Y4480701D01*
X-12809492Y4480701D01*
X-12809491Y4480701D01*
X-12694913Y4511401D01*
X-12626108Y4551127D01*
X-12594858Y4559500D01*
X-12010738Y4559500D01*
X-12010734Y4559500D01*
X-11980301Y4562354D01*
X-11852118Y4607207D01*
X-11742850Y4687850D01*
X-11671805Y4784115D01*
X-11630834Y4808802D01*
X-11621518Y4809500D01*
X-11458482Y4809500D01*
X-11414288Y4791194D01*
X-11408201Y4784121D01*
X-11337150Y4687850D01*
X-11227882Y4607207D01*
X-11099699Y4562354D01*
X-11069266Y4559500D01*
X-11069262Y4559500D01*
X-10010738Y4559500D01*
X-10010734Y4559500D01*
X-9980301Y4562354D01*
X-9852118Y4607207D01*
X-9742850Y4687850D01*
X-9671805Y4784115D01*
X-9630834Y4808802D01*
X-9621518Y4809500D01*
X-9458482Y4809500D01*
X-9414288Y4791194D01*
X-9408201Y4784121D01*
X-9337150Y4687850D01*
X-9227882Y4607207D01*
X-9099699Y4562354D01*
X-9069266Y4559500D01*
X-9069262Y4559500D01*
X-8010738Y4559500D01*
X-8010734Y4559500D01*
X-7980301Y4562354D01*
X-7852118Y4607207D01*
X-7742850Y4687850D01*
X-7671805Y4784115D01*
X-7630834Y4808802D01*
X-7621518Y4809500D01*
X-7458482Y4809500D01*
X-7414288Y4791194D01*
X-7408201Y4784121D01*
X-7337150Y4687850D01*
X-7227882Y4607207D01*
X-7099699Y4562354D01*
X-7069266Y4559500D01*
X-7069262Y4559500D01*
X-6010738Y4559500D01*
X-6010734Y4559500D01*
X-5980301Y4562354D01*
X-5852118Y4607207D01*
X-5742850Y4687850D01*
X-5701393Y4744025D01*
X-5660422Y4768712D01*
X-5634930Y4767280D01*
X-5611628Y4761037D01*
X-5605892Y4759500D01*
X-5605891Y4759500D01*
X-5474109Y4759500D01*
X-5474108Y4759500D01*
X-5474100Y4759502D01*
X-5445073Y4767280D01*
X-5397647Y4761037D01*
X-5378609Y4744024D01*
X-5337151Y4687851D01*
X-5337150Y4687850D01*
X-5227882Y4607207D01*
X-5099699Y4562354D01*
X-5069266Y4559500D01*
X-5069262Y4559500D01*
X-4010738Y4559500D01*
X-4010734Y4559500D01*
X-3980301Y4562354D01*
X-3852118Y4607207D01*
X-3742850Y4687850D01*
X-3671805Y4784115D01*
X-3630834Y4808802D01*
X-3621518Y4809500D01*
X-3458482Y4809500D01*
X-3414288Y4791194D01*
X-3408201Y4784121D01*
X-3337150Y4687850D01*
X-3227882Y4607207D01*
X-3099699Y4562354D01*
X-3069266Y4559500D01*
X-3069262Y4559500D01*
X-2010738Y4559500D01*
X-2010734Y4559500D01*
X-1980301Y4562354D01*
X-1852118Y4607207D01*
X-1742850Y4687850D01*
X-1662207Y4797118D01*
X-1617354Y4925301D01*
X-1614500Y4955734D01*
X-1614500Y5077000D01*
X-1596194Y5121194D01*
X-1552000Y5139500D01*
X-955621Y5139500D01*
X-911427Y5121194D01*
G37*
%TD.AperFunction*%
%TA.AperFunction,Conductor*%
G36*
X1107194Y-3167520D02*
G01*
X3409395Y-5469721D01*
X3409400Y-5469727D01*
X3411583Y-5471910D01*
X3472186Y-5532513D01*
X3499653Y-5548370D01*
X3519760Y-5559980D01*
X3519759Y-5559980D01*
X3546403Y-5575363D01*
X3546408Y-5575364D01*
X3546410Y-5575366D01*
X3571740Y-5582153D01*
X3629189Y-5597548D01*
X3629195Y-5597549D01*
X3718726Y-5597549D01*
X3718742Y-5597548D01*
X6090568Y-5597548D01*
X6134762Y-5615854D01*
X6191456Y-5672548D01*
X6274447Y-5720463D01*
X6305584Y-5738440D01*
X6305587Y-5738441D01*
X6333145Y-5745825D01*
X6432878Y-5772548D01*
X6432879Y-5772548D01*
X6526000Y-5772548D01*
X6570194Y-5790854D01*
X6588500Y-5835048D01*
X6588500Y-6302149D01*
X6588501Y-6302157D01*
X6610680Y-6384933D01*
X6610684Y-6384942D01*
X6653532Y-6459156D01*
X6653539Y-6459165D01*
X7821194Y-7626819D01*
X7839500Y-7671013D01*
X7839500Y-9887000D01*
X7821194Y-9931194D01*
X7777000Y-9949500D01*
X7695252Y-9949500D01*
X7636769Y-9961132D01*
X7636767Y-9961133D01*
X7565329Y-10008868D01*
X7563499Y-10006130D01*
X7530000Y-10020007D01*
X7496500Y-10006130D01*
X7494671Y-10008868D01*
X7423232Y-9961133D01*
X7423230Y-9961132D01*
X7364748Y-9949500D01*
X6425252Y-9949500D01*
X6366769Y-9961132D01*
X6366767Y-9961133D01*
X6295329Y-10008868D01*
X6293499Y-10006130D01*
X6260000Y-10020007D01*
X6226500Y-10006130D01*
X6224671Y-10008868D01*
X6153232Y-9961133D01*
X6153230Y-9961132D01*
X6094748Y-9949500D01*
X5742715Y-9949500D01*
X5698521Y-9931194D01*
X5330867Y-9563539D01*
X5330858Y-9563532D01*
X5256644Y-9520684D01*
X5256635Y-9520680D01*
X5173859Y-9498501D01*
X5173854Y-9498500D01*
X5173853Y-9498500D01*
X5173852Y-9498500D01*
X4784715Y-9498500D01*
X4740521Y-9480194D01*
X4489186Y-9228859D01*
X4470880Y-9184665D01*
X4473010Y-9168489D01*
X4488700Y-9109930D01*
X4500500Y-9065892D01*
X4500500Y-8934108D01*
X4466392Y-8806814D01*
X4400500Y-8692686D01*
X4400498Y-8692684D01*
X4400495Y-8692680D01*
X4307319Y-8599504D01*
X4307315Y-8599501D01*
X4307314Y-8599500D01*
X4221576Y-8549999D01*
X4193185Y-8533607D01*
X4193182Y-8533606D01*
X4065898Y-8499501D01*
X4065893Y-8499500D01*
X4065892Y-8499500D01*
X3934108Y-8499500D01*
X3934107Y-8499500D01*
X3934101Y-8499501D01*
X3806817Y-8533606D01*
X3806814Y-8533607D01*
X3692684Y-8599501D01*
X3692680Y-8599504D01*
X3599504Y-8692680D01*
X3599501Y-8692684D01*
X3533607Y-8806814D01*
X3533606Y-8806817D01*
X3499501Y-8934101D01*
X3499500Y-8934109D01*
X3499500Y-8936641D01*
X3499011Y-8937819D01*
X3498966Y-8938167D01*
X3498872Y-8938154D01*
X3481194Y-8980835D01*
X3437000Y-8999141D01*
X3392806Y-8980835D01*
X3171515Y-8759544D01*
X3171511Y-8759540D01*
X3152195Y-8748388D01*
X3152193Y-8748386D01*
X3122738Y-8731381D01*
X3102989Y-8719979D01*
X3102986Y-8719978D01*
X3026567Y-8699500D01*
X3026562Y-8699500D01*
X2433202Y-8699500D01*
X2389008Y-8681194D01*
X2307319Y-8599504D01*
X2307315Y-8599501D01*
X2307314Y-8599500D01*
X2221576Y-8549999D01*
X2193185Y-8533607D01*
X2193182Y-8533606D01*
X2065898Y-8499501D01*
X2065893Y-8499500D01*
X2065892Y-8499500D01*
X1934108Y-8499500D01*
X1934107Y-8499500D01*
X1934101Y-8499501D01*
X1806817Y-8533606D01*
X1806814Y-8533607D01*
X1692684Y-8599501D01*
X1692680Y-8599504D01*
X1599504Y-8692680D01*
X1599501Y-8692684D01*
X1533607Y-8806814D01*
X1533606Y-8806817D01*
X1499501Y-8934101D01*
X1499500Y-8934109D01*
X1499500Y-9065890D01*
X1499501Y-9065898D01*
X1533606Y-9193182D01*
X1533607Y-9193185D01*
X1533608Y-9193186D01*
X1598245Y-9305141D01*
X1599501Y-9307315D01*
X1599504Y-9307319D01*
X1692680Y-9400495D01*
X1692684Y-9400498D01*
X1692686Y-9400500D01*
X1799465Y-9462149D01*
X1806814Y-9466392D01*
X1806817Y-9466393D01*
X1858324Y-9480194D01*
X1934108Y-9500500D01*
X1934109Y-9500500D01*
X2065891Y-9500500D01*
X2065892Y-9500500D01*
X2193186Y-9466392D01*
X2307314Y-9400500D01*
X2389008Y-9318806D01*
X2433202Y-9300500D01*
X2836641Y-9300500D01*
X2880835Y-9318806D01*
X3316694Y-9754665D01*
X3335000Y-9798859D01*
X3335000Y-12150000D01*
X3582822Y-12150000D01*
X3582835Y-12149999D01*
X3642377Y-12143597D01*
X3777091Y-12093352D01*
X3777094Y-12093350D01*
X3892186Y-12007191D01*
X3978353Y-11892087D01*
X3978699Y-11891161D01*
X3979088Y-11890742D01*
X3980496Y-11888165D01*
X3981153Y-11888524D01*
X4011293Y-11856149D01*
X4037259Y-11850500D01*
X4824748Y-11850500D01*
X4883231Y-11838867D01*
X4913079Y-11818922D01*
X4954671Y-11791132D01*
X4956500Y-11793869D01*
X4990000Y-11779993D01*
X5023499Y-11793869D01*
X5025329Y-11791132D01*
X5096767Y-11838866D01*
X5096769Y-11838867D01*
X5155252Y-11850500D01*
X6094748Y-11850500D01*
X6153231Y-11838867D01*
X6183079Y-11818922D01*
X6224671Y-11791132D01*
X6226500Y-11793869D01*
X6260000Y-11779993D01*
X6293499Y-11793869D01*
X6295329Y-11791132D01*
X6366767Y-11838866D01*
X6366769Y-11838867D01*
X6425252Y-11850500D01*
X6507000Y-11850500D01*
X6551194Y-11868806D01*
X6569500Y-11913000D01*
X6569500Y-11942851D01*
X6569501Y-11942859D01*
X6591680Y-12025635D01*
X6591684Y-12025644D01*
X6634532Y-12099858D01*
X6634539Y-12099867D01*
X6993032Y-12458360D01*
X6993041Y-12458367D01*
X7067255Y-12501215D01*
X7067258Y-12501216D01*
X7067261Y-12501218D01*
X7067262Y-12501218D01*
X7067264Y-12501219D01*
X7114416Y-12513853D01*
X7150047Y-12523400D01*
X7235753Y-12523400D01*
X7303980Y-12523400D01*
X7348174Y-12541706D01*
X7366480Y-12585900D01*
X7348174Y-12630094D01*
X7274024Y-12704243D01*
X7274022Y-12704245D01*
X7159060Y-12876298D01*
X7159059Y-12876301D01*
X7079869Y-13067481D01*
X7039500Y-13270434D01*
X7039500Y-13477365D01*
X7079869Y-13680318D01*
X7159059Y-13871498D01*
X7159060Y-13871501D01*
X7274022Y-14043554D01*
X7420345Y-14189877D01*
X7592398Y-14304839D01*
X7592400Y-14304839D01*
X7592402Y-14304841D01*
X7772060Y-14379258D01*
X7805885Y-14413082D01*
X7805884Y-14460918D01*
X7772060Y-14494743D01*
X7748142Y-14499500D01*
X6554461Y-14499500D01*
X6510267Y-14481194D01*
X6491961Y-14437000D01*
X6510267Y-14392806D01*
X6519737Y-14385033D01*
X6544553Y-14368451D01*
X6587057Y-14304840D01*
X6588867Y-14302131D01*
X6600500Y-14243648D01*
X6600500Y-12504152D01*
X6588867Y-12445669D01*
X6563947Y-12408374D01*
X6544552Y-12379347D01*
X6478232Y-12335033D01*
X6478230Y-12335032D01*
X6419748Y-12323400D01*
X4680252Y-12323400D01*
X4621769Y-12335032D01*
X4621767Y-12335033D01*
X4555447Y-12379347D01*
X4511133Y-12445667D01*
X4511132Y-12445669D01*
X4499500Y-12504151D01*
X4499500Y-14243648D01*
X4511132Y-14302130D01*
X4511133Y-14302132D01*
X4555446Y-14368451D01*
X4580263Y-14385033D01*
X4606838Y-14424807D01*
X4597506Y-14471724D01*
X4557732Y-14498299D01*
X4545539Y-14499500D01*
X-10134398Y-14499500D01*
X-10178592Y-14481194D01*
X-10196898Y-14437000D01*
X-10178592Y-14392806D01*
X-10143251Y-14357464D01*
X-10143249Y-14357462D01*
X-10033813Y-14193680D01*
X-10033812Y-14193678D01*
X-9958432Y-14011697D01*
X-9958430Y-14011689D01*
X-9950137Y-13970000D01*
X-10753012Y-13970000D01*
X-10735795Y-13960060D01*
X-10679940Y-13904205D01*
X-10640444Y-13835796D01*
X-10620000Y-13759496D01*
X-10620000Y-13680504D01*
X-10640444Y-13604204D01*
X-10679940Y-13535795D01*
X-10735795Y-13479940D01*
X-10753012Y-13470000D01*
X-10305000Y-13470000D01*
X-9947144Y-13470000D01*
X-9910288Y-13450301D01*
X-9904163Y-13450000D01*
X-9782178Y-13450000D01*
X-9782165Y-13449999D01*
X-9722623Y-13443597D01*
X-9587909Y-13393352D01*
X-9587906Y-13393350D01*
X-9472814Y-13307191D01*
X-9472809Y-13307186D01*
X-9386650Y-13192094D01*
X-9386648Y-13192091D01*
X-9336403Y-13057377D01*
X-9330001Y-12997835D01*
X-9330000Y-12997822D01*
X-9330000Y-12900000D01*
X-10305000Y-12900000D01*
X-10305000Y-13470000D01*
X-10753012Y-13470000D01*
X-10804204Y-13440444D01*
X-10805000Y-13440230D01*
X-10805000Y-12900000D01*
X-11672297Y-12900000D01*
X-11716491Y-12881694D01*
X-11734797Y-12837500D01*
X-11716491Y-12793306D01*
X-11703547Y-12783374D01*
X-11660346Y-12758431D01*
X-11646635Y-12750515D01*
X-11539485Y-12643365D01*
X-11463719Y-12512135D01*
X-11456096Y-12483686D01*
X-11446085Y-12446324D01*
X-11416965Y-12408374D01*
X-11385715Y-12400000D01*
X-9330000Y-12400000D01*
X-9330000Y-12302177D01*
X-9330001Y-12302164D01*
X-9336403Y-12242622D01*
X-9386648Y-12107908D01*
X-9386650Y-12107905D01*
X-9472809Y-11992813D01*
X-9587913Y-11906646D01*
X-9588849Y-11906297D01*
X-9589271Y-11905904D01*
X-9591835Y-11904504D01*
X-9591478Y-11903849D01*
X-9623855Y-11873696D01*
X-9629500Y-11847740D01*
X-9629500Y-11530252D01*
X-9629501Y-11530248D01*
X-9630506Y-11525192D01*
X-9621173Y-11478275D01*
X-9581399Y-11451701D01*
X-9569207Y-11450500D01*
X-8312859Y-11450500D01*
X-8268665Y-11468806D01*
X-8243806Y-11493665D01*
X-8225500Y-11537859D01*
X-8225500Y-12304262D01*
X-8222647Y-12334696D01*
X-8222646Y-12334701D01*
X-8177793Y-12462882D01*
X-8177793Y-12462883D01*
X-8149502Y-12501215D01*
X-8097150Y-12572150D01*
X-7987882Y-12652793D01*
X-7859699Y-12697646D01*
X-7829266Y-12700500D01*
X-7829262Y-12700500D01*
X-7195738Y-12700500D01*
X-7195734Y-12700500D01*
X-7165301Y-12697646D01*
X-7037118Y-12652793D01*
X-6927850Y-12572150D01*
X-6847207Y-12462882D01*
X-6813042Y-12365242D01*
X-6781167Y-12329575D01*
X-6733407Y-12326892D01*
X-6697739Y-12358767D01*
X-6691873Y-12379533D01*
X-6689508Y-12402688D01*
X-6689507Y-12402694D01*
X-6634359Y-12569121D01*
X-6542318Y-12718343D01*
X-6418344Y-12842317D01*
X-6269122Y-12934358D01*
X-6102692Y-12989507D01*
X-5999982Y-12999999D01*
X-5937501Y-12999999D01*
X-5437500Y-12999999D01*
X-5375024Y-12999999D01*
X-5375013Y-12999998D01*
X-5272313Y-12989507D01*
X-5272306Y-12989506D01*
X-5105879Y-12934358D01*
X-4956657Y-12842317D01*
X-4832683Y-12718343D01*
X-4740642Y-12569121D01*
X-4722328Y-12513853D01*
X-4691050Y-12477660D01*
X-4643341Y-12474184D01*
X-4607148Y-12505462D01*
X-4600500Y-12533512D01*
X-4600500Y-12604262D01*
X-4597647Y-12634696D01*
X-4597646Y-12634701D01*
X-4552793Y-12762882D01*
X-4552793Y-12762883D01*
X-4520370Y-12806814D01*
X-4472150Y-12872150D01*
X-4362882Y-12952793D01*
X-4234699Y-12997646D01*
X-4204266Y-13000500D01*
X-4204262Y-13000500D01*
X-2995738Y-13000500D01*
X-2995734Y-13000500D01*
X-2965301Y-12997646D01*
X-2837118Y-12952793D01*
X-2727850Y-12872150D01*
X-2647207Y-12762882D01*
X-2614654Y-12669849D01*
X-2599858Y-12646303D01*
X-2000000Y-12046445D01*
X-2000000Y-12052661D01*
X-1972741Y-12154394D01*
X-1920080Y-12245606D01*
X-1845606Y-12320080D01*
X-1754394Y-12372741D01*
X-1652661Y-12400000D01*
X-1646447Y-12400000D01*
X-2325924Y-13079475D01*
X-2281351Y-13111859D01*
X-2099034Y-13204753D01*
X-2099026Y-13204757D01*
X-1904422Y-13267988D01*
X-1702314Y-13299999D01*
X-1702310Y-13300000D01*
X-1497690Y-13300000D01*
X-1497687Y-13299999D01*
X-1295579Y-13267988D01*
X-1100975Y-13204757D01*
X-1100967Y-13204753D01*
X-918649Y-13111858D01*
X-874078Y-13079474D01*
X-1553553Y-12400000D01*
X-1547339Y-12400000D01*
X-1445606Y-12372741D01*
X-1354394Y-12320080D01*
X-1279920Y-12245606D01*
X-1227259Y-12154394D01*
X-1200000Y-12052661D01*
X-1200000Y-12046447D01*
X-520526Y-12725922D01*
X-488142Y-12681351D01*
X-395247Y-12499033D01*
X-395243Y-12499025D01*
X-332012Y-12304421D01*
X-300001Y-12102313D01*
X-300000Y-12102309D01*
X-300000Y-11897690D01*
X-300001Y-11897686D01*
X-332012Y-11695578D01*
X-395243Y-11500974D01*
X-395247Y-11500966D01*
X-488141Y-11318649D01*
X-520526Y-11274076D01*
X-1200000Y-11953551D01*
X-1200000Y-11947339D01*
X-1227259Y-11845606D01*
X-1279920Y-11754394D01*
X-1354394Y-11679920D01*
X-1445606Y-11627259D01*
X-1547339Y-11600000D01*
X-1553555Y-11600000D01*
X-874078Y-10920523D01*
X-918650Y-10888140D01*
X-1100967Y-10795246D01*
X-1100975Y-10795242D01*
X-1295579Y-10732011D01*
X-1497687Y-10700000D01*
X-1702314Y-10700000D01*
X-1904422Y-10732011D01*
X-2099026Y-10795242D01*
X-2099034Y-10795246D01*
X-2281346Y-10888138D01*
X-2281349Y-10888140D01*
X-2325923Y-10920524D01*
X-1646447Y-11600000D01*
X-1652661Y-11600000D01*
X-1754394Y-11627259D01*
X-1845606Y-11679920D01*
X-1920080Y-11754394D01*
X-1972741Y-11845606D01*
X-2000000Y-11947339D01*
X-2000000Y-11953553D01*
X-2599858Y-11353695D01*
X-2614656Y-11330145D01*
X-2647207Y-11237118D01*
X-2727850Y-11127850D01*
X-2837118Y-11047207D01*
X-2883784Y-11030878D01*
X-2962491Y-11003337D01*
X-2965299Y-11002354D01*
X-2965304Y-11002353D01*
X-2985301Y-11000478D01*
X-2995734Y-10999500D01*
X-4204266Y-10999500D01*
X-4213876Y-11000401D01*
X-4234697Y-11002353D01*
X-4234702Y-11002354D01*
X-4362883Y-11047207D01*
X-4362884Y-11047207D01*
X-4472150Y-11127850D01*
X-4552793Y-11237116D01*
X-4552795Y-11237120D01*
X-4559702Y-11256860D01*
X-4591578Y-11292527D01*
X-4639338Y-11295208D01*
X-4675005Y-11263332D01*
X-4680871Y-11242567D01*
X-4685495Y-11197304D01*
X-4740642Y-11030878D01*
X-4832683Y-10881656D01*
X-4956657Y-10757682D01*
X-5105879Y-10665641D01*
X-5272309Y-10610492D01*
X-5375014Y-10600000D01*
X-5437500Y-10600000D01*
X-5437500Y-12999999D01*
X-5937501Y-12999999D01*
X-5937500Y-12999998D01*
X-5937500Y-10600000D01*
X-5999976Y-10600000D01*
X-5999989Y-10600001D01*
X-6102688Y-10610492D01*
X-6102695Y-10610493D01*
X-6207531Y-10645232D01*
X-6255240Y-10641756D01*
X-6286518Y-10605563D01*
X-6283042Y-10557854D01*
X-6271388Y-10541714D01*
X-6190535Y-10460862D01*
X-6147682Y-10386639D01*
X-6125500Y-10303853D01*
X-6125500Y-10303843D01*
X-6124966Y-10299794D01*
X-6123159Y-10300031D01*
X-6107194Y-10261490D01*
X-6063000Y-10243184D01*
X-6053993Y-10243836D01*
X-6008260Y-10250500D01*
X-6008259Y-10250500D01*
X-4916741Y-10250500D01*
X-4916740Y-10250500D01*
X-4848607Y-10240573D01*
X-4743517Y-10189198D01*
X-4660802Y-10106483D01*
X-4609427Y-10001393D01*
X-4606163Y-9978988D01*
X-4596062Y-9962035D01*
X-4588510Y-9943806D01*
X-4584114Y-9941984D01*
X-4581677Y-9937896D01*
X-4544316Y-9925500D01*
X-4488000Y-9925500D01*
X-4443806Y-9943806D01*
X-4425500Y-9988000D01*
X-4425500Y-10104262D01*
X-4422647Y-10134696D01*
X-4422646Y-10134701D01*
X-4377793Y-10262882D01*
X-4377793Y-10262883D01*
X-4338975Y-10315479D01*
X-4297150Y-10372150D01*
X-4187882Y-10452793D01*
X-4059699Y-10497646D01*
X-4029266Y-10500500D01*
X-4029262Y-10500500D01*
X-3395738Y-10500500D01*
X-3395734Y-10500500D01*
X-3365301Y-10497646D01*
X-3237118Y-10452793D01*
X-3127850Y-10372150D01*
X-3047207Y-10262882D01*
X-3002354Y-10134699D01*
X-2999500Y-10104266D01*
X-2999500Y-9095734D01*
X-3001055Y-9079158D01*
X-2986956Y-9033450D01*
X-2944664Y-9011097D01*
X-2907580Y-9019196D01*
X-2903427Y-9021594D01*
X-2903424Y-9021595D01*
X-2849696Y-9035991D01*
X-2776133Y-9055702D01*
X-2776132Y-9055702D01*
X-2663000Y-9055702D01*
X-2618806Y-9074008D01*
X-2600500Y-9118202D01*
X-2600500Y-10104262D01*
X-2597647Y-10134696D01*
X-2597646Y-10134701D01*
X-2552793Y-10262882D01*
X-2552793Y-10262883D01*
X-2513975Y-10315479D01*
X-2472150Y-10372150D01*
X-2362882Y-10452793D01*
X-2234699Y-10497646D01*
X-2204266Y-10500500D01*
X-2204262Y-10500500D01*
X-1570738Y-10500500D01*
X-1570734Y-10500500D01*
X-1540301Y-10497646D01*
X-1412118Y-10452793D01*
X-1302850Y-10372150D01*
X-1222207Y-10262882D01*
X-1177354Y-10134699D01*
X-1174500Y-10104266D01*
X-1174500Y-9988000D01*
X-1156194Y-9943806D01*
X-1112000Y-9925500D01*
X-963000Y-9925500D01*
X-918806Y-9943806D01*
X-900500Y-9988000D01*
X-900500Y-10119748D01*
X-888868Y-10178230D01*
X-888867Y-10178232D01*
X-844553Y-10244552D01*
X-778233Y-10288866D01*
X-778231Y-10288867D01*
X-719748Y-10300500D01*
X819748Y-10300500D01*
X878231Y-10288867D01*
X944552Y-10244552D01*
X988867Y-10178231D01*
X998411Y-10130251D01*
X1164500Y-10130251D01*
X1164500Y-11669748D01*
X1176132Y-11728230D01*
X1176133Y-11728232D01*
X1220447Y-11794552D01*
X1286767Y-11838866D01*
X1286769Y-11838867D01*
X1330216Y-11847509D01*
X1369990Y-11874085D01*
X1379322Y-11921001D01*
X1372150Y-11940058D01*
X1333607Y-12006814D01*
X1333606Y-12006817D01*
X1299501Y-12134101D01*
X1299500Y-12134109D01*
X1299500Y-12265890D01*
X1299501Y-12265898D01*
X1333606Y-12393182D01*
X1333607Y-12393185D01*
X1333608Y-12393186D01*
X1397674Y-12504152D01*
X1399501Y-12507315D01*
X1399504Y-12507319D01*
X1492680Y-12600495D01*
X1492684Y-12600498D01*
X1492686Y-12600500D01*
X1566932Y-12643366D01*
X1606814Y-12666392D01*
X1606817Y-12666393D01*
X1619738Y-12669855D01*
X1734108Y-12700500D01*
X1734109Y-12700500D01*
X1865891Y-12700500D01*
X1865892Y-12700500D01*
X1993186Y-12666392D01*
X2107314Y-12600500D01*
X2200500Y-12507314D01*
X2266392Y-12393186D01*
X2300500Y-12265892D01*
X2300500Y-12148231D01*
X2318806Y-12104037D01*
X2363000Y-12085731D01*
X2388551Y-12092252D01*
X2388723Y-12091791D01*
X2527622Y-12143597D01*
X2587164Y-12149999D01*
X2587178Y-12150000D01*
X2835000Y-12150000D01*
X2835000Y-9650000D01*
X2587164Y-9650000D01*
X2527622Y-9656402D01*
X2392908Y-9706647D01*
X2392905Y-9706649D01*
X2277813Y-9792808D01*
X2191646Y-9907912D01*
X2191301Y-9908839D01*
X2190911Y-9909257D01*
X2189504Y-9911835D01*
X2188846Y-9911475D01*
X2158707Y-9943851D01*
X2132741Y-9949500D01*
X1345252Y-9949500D01*
X1286769Y-9961132D01*
X1286767Y-9961133D01*
X1220447Y-10005447D01*
X1176133Y-10071767D01*
X1176132Y-10071769D01*
X1164500Y-10130251D01*
X998411Y-10130251D01*
X1000500Y-10119748D01*
X1000500Y-9180252D01*
X988867Y-9121769D01*
X965405Y-9086656D01*
X941132Y-9050329D01*
X943869Y-9048499D01*
X929993Y-9015000D01*
X943869Y-8981500D01*
X941132Y-8979671D01*
X988866Y-8908232D01*
X988867Y-8908231D01*
X1000500Y-8849748D01*
X1000500Y-7910252D01*
X988867Y-7851769D01*
X944552Y-7785448D01*
X941132Y-7780329D01*
X943869Y-7778499D01*
X929993Y-7745000D01*
X943869Y-7711500D01*
X941132Y-7709671D01*
X974512Y-7659714D01*
X988867Y-7638231D01*
X1000500Y-7579748D01*
X1000500Y-7363000D01*
X1018806Y-7318806D01*
X1063000Y-7300500D01*
X1166798Y-7300500D01*
X1210992Y-7318806D01*
X1292680Y-7400495D01*
X1292684Y-7400498D01*
X1292686Y-7400500D01*
X1399207Y-7462000D01*
X1406814Y-7466392D01*
X1406817Y-7466393D01*
X1484712Y-7487264D01*
X1534108Y-7500500D01*
X1534109Y-7500500D01*
X1665891Y-7500500D01*
X1665892Y-7500500D01*
X1793186Y-7466392D01*
X1907314Y-7400500D01*
X2000500Y-7307314D01*
X2066392Y-7193186D01*
X2100500Y-7065892D01*
X2100500Y-6934108D01*
X2066392Y-6806814D01*
X2000500Y-6692686D01*
X2000498Y-6692684D01*
X2000495Y-6692680D01*
X1907319Y-6599504D01*
X1907315Y-6599501D01*
X1907314Y-6599500D01*
X1834355Y-6557377D01*
X1793185Y-6533607D01*
X1793182Y-6533606D01*
X1665898Y-6499501D01*
X1665893Y-6499500D01*
X1665892Y-6499500D01*
X1534108Y-6499500D01*
X1534107Y-6499500D01*
X1534101Y-6499501D01*
X1406817Y-6533606D01*
X1406814Y-6533607D01*
X1292684Y-6599501D01*
X1292680Y-6599504D01*
X1210992Y-6681194D01*
X1166798Y-6699500D01*
X1062982Y-6699500D01*
X1018788Y-6681194D01*
X1000783Y-6643126D01*
X1000500Y-6640260D01*
X1000500Y-6640252D01*
X988867Y-6581769D01*
X988866Y-6581767D01*
X941132Y-6510329D01*
X943869Y-6508499D01*
X929993Y-6475000D01*
X943869Y-6441500D01*
X941132Y-6439671D01*
X979638Y-6382043D01*
X988867Y-6368231D01*
X1000500Y-6309748D01*
X1000500Y-6203000D01*
X1018806Y-6158806D01*
X1063000Y-6140500D01*
X2590910Y-6140500D01*
X2635104Y-6158806D01*
X2651280Y-6186824D01*
X2673005Y-6267906D01*
X2673006Y-6267909D01*
X2693995Y-6304262D01*
X2738700Y-6381694D01*
X2738900Y-6382039D01*
X2738903Y-6382043D01*
X2832079Y-6475219D01*
X2832083Y-6475222D01*
X2832085Y-6475224D01*
X2901755Y-6515448D01*
X2946213Y-6541116D01*
X2946216Y-6541117D01*
X3006900Y-6557377D01*
X3073507Y-6575224D01*
X3073508Y-6575224D01*
X3205290Y-6575224D01*
X3205291Y-6575224D01*
X3332585Y-6541116D01*
X3446713Y-6475224D01*
X3539899Y-6382038D01*
X3605791Y-6267910D01*
X3639899Y-6140616D01*
X3639899Y-6008832D01*
X3619111Y-5931250D01*
X3605792Y-5881541D01*
X3605791Y-5881538D01*
X3596758Y-5865892D01*
X3539899Y-5767410D01*
X3539897Y-5767408D01*
X3539894Y-5767404D01*
X3446718Y-5674228D01*
X3446714Y-5674225D01*
X3446713Y-5674224D01*
X3377840Y-5634460D01*
X3332584Y-5608331D01*
X3332581Y-5608330D01*
X3205297Y-5574225D01*
X3205292Y-5574224D01*
X3205291Y-5574224D01*
X3073507Y-5574224D01*
X3073504Y-5574224D01*
X3071596Y-5574475D01*
X3070334Y-5574224D01*
X3069411Y-5574224D01*
X3069411Y-5574040D01*
X3032195Y-5566636D01*
X3020667Y-5559980D01*
X3020661Y-5559978D01*
X2944242Y-5539500D01*
X2944237Y-5539500D01*
X1063000Y-5539500D01*
X1018806Y-5521194D01*
X1000500Y-5477000D01*
X1000500Y-5370252D01*
X988867Y-5311769D01*
X980669Y-5299500D01*
X941132Y-5240329D01*
X943869Y-5238499D01*
X929993Y-5205000D01*
X943869Y-5171500D01*
X941132Y-5169671D01*
X988866Y-5098232D01*
X988867Y-5098231D01*
X1000500Y-5039748D01*
X1000500Y-4100252D01*
X988867Y-4041769D01*
X983289Y-4033421D01*
X941132Y-3970329D01*
X943869Y-3968499D01*
X929993Y-3935000D01*
X943869Y-3901500D01*
X941132Y-3899671D01*
X968922Y-3858079D01*
X988867Y-3828231D01*
X1000500Y-3769748D01*
X1000500Y-3211714D01*
X1018806Y-3167520D01*
X1063000Y-3149214D01*
X1107194Y-3167520D01*
G37*
%TD.AperFunction*%
%TA.AperFunction,Conductor*%
G36*
X16581194Y-8698806D02*
G01*
X16599500Y-8743000D01*
X16599500Y-8849748D01*
X16611132Y-8908230D01*
X16611133Y-8908232D01*
X16658868Y-8979671D01*
X16656130Y-8981500D01*
X16670007Y-9015000D01*
X16656130Y-9048499D01*
X16658868Y-9050329D01*
X16611133Y-9121767D01*
X16611132Y-9121769D01*
X16599500Y-9180251D01*
X16599500Y-10119748D01*
X16611132Y-10178230D01*
X16611133Y-10178232D01*
X16655447Y-10244552D01*
X16721767Y-10288866D01*
X16721769Y-10288867D01*
X16780252Y-10300500D01*
X17287000Y-10300500D01*
X17331194Y-10318806D01*
X17349500Y-10363000D01*
X17349500Y-10962540D01*
X17341128Y-10993788D01*
X17333608Y-11006812D01*
X17333606Y-11006817D01*
X17299501Y-11134101D01*
X17299500Y-11134109D01*
X17299500Y-11265890D01*
X17299501Y-11265898D01*
X17333606Y-11393182D01*
X17333607Y-11393185D01*
X17355173Y-11430537D01*
X17375588Y-11465898D01*
X17399501Y-11507315D01*
X17399504Y-11507319D01*
X17492680Y-11600495D01*
X17492684Y-11600498D01*
X17492686Y-11600500D01*
X17572267Y-11646446D01*
X17606814Y-11666392D01*
X17606817Y-11666393D01*
X17684712Y-11687264D01*
X17734108Y-11700500D01*
X17734109Y-11700500D01*
X17865891Y-11700500D01*
X17865892Y-11700500D01*
X17993186Y-11666392D01*
X18107314Y-11600500D01*
X18200500Y-11507314D01*
X18266392Y-11393186D01*
X18300500Y-11265892D01*
X18300500Y-11134108D01*
X18266392Y-11006814D01*
X18263817Y-11002354D01*
X18258872Y-10993788D01*
X18250500Y-10962540D01*
X18250500Y-10363000D01*
X18268806Y-10318806D01*
X18313000Y-10300500D01*
X18319748Y-10300500D01*
X18378231Y-10288867D01*
X18402277Y-10272800D01*
X18449193Y-10263468D01*
X18488967Y-10290044D01*
X18499500Y-10324767D01*
X18499500Y-12997764D01*
X18499341Y-13002223D01*
X18484555Y-13208942D01*
X18483286Y-13217768D01*
X18439709Y-13418092D01*
X18437196Y-13426649D01*
X18365555Y-13618726D01*
X18361851Y-13626837D01*
X18263602Y-13806766D01*
X18258781Y-13814268D01*
X18135922Y-13978388D01*
X18130082Y-13985127D01*
X17985127Y-14130082D01*
X17978388Y-14135922D01*
X17814268Y-14258781D01*
X17806766Y-14263602D01*
X17626837Y-14361851D01*
X17618726Y-14365555D01*
X17426649Y-14437196D01*
X17418092Y-14439709D01*
X17217768Y-14483286D01*
X17208942Y-14484555D01*
X17002223Y-14499341D01*
X16997764Y-14499500D01*
X8431858Y-14499500D01*
X8387664Y-14481194D01*
X8369358Y-14437000D01*
X8387664Y-14392806D01*
X8407939Y-14379258D01*
X8587598Y-14304841D01*
X8759655Y-14189877D01*
X8905977Y-14043555D01*
X9020941Y-13871498D01*
X9100130Y-13680320D01*
X9140500Y-13477365D01*
X9140500Y-13270435D01*
X9100130Y-13067480D01*
X9020941Y-12876302D01*
X9020939Y-12876300D01*
X9020939Y-12876298D01*
X8905977Y-12704245D01*
X8831826Y-12630094D01*
X8813520Y-12585900D01*
X8831826Y-12541706D01*
X8876020Y-12523400D01*
X11437000Y-12523400D01*
X11481194Y-12541706D01*
X11499500Y-12585900D01*
X11499500Y-12665890D01*
X11499501Y-12665898D01*
X11533606Y-12793182D01*
X11533607Y-12793185D01*
X11539916Y-12804112D01*
X11595277Y-12900000D01*
X11599501Y-12907315D01*
X11599504Y-12907319D01*
X11692680Y-13000495D01*
X11692684Y-13000498D01*
X11692686Y-13000500D01*
X11791200Y-13057377D01*
X11806814Y-13066392D01*
X11806817Y-13066393D01*
X11884712Y-13087264D01*
X11934108Y-13100500D01*
X11934109Y-13100500D01*
X12065891Y-13100500D01*
X12065892Y-13100500D01*
X12193186Y-13066392D01*
X12307314Y-13000500D01*
X12400500Y-12907314D01*
X12466392Y-12793186D01*
X12500500Y-12665892D01*
X12500500Y-12534108D01*
X12481415Y-12462882D01*
X12466393Y-12406817D01*
X12466392Y-12406814D01*
X12458523Y-12393185D01*
X12400500Y-12292686D01*
X12400498Y-12292684D01*
X12400495Y-12292680D01*
X12307319Y-12199504D01*
X12307315Y-12199501D01*
X12307314Y-12199500D01*
X12239704Y-12160465D01*
X12193185Y-12133607D01*
X12193182Y-12133606D01*
X12065898Y-12099501D01*
X12065893Y-12099500D01*
X12065892Y-12099500D01*
X12065891Y-12099500D01*
X11985715Y-12099500D01*
X11941521Y-12081194D01*
X11817522Y-11957194D01*
X11799216Y-11913000D01*
X11817522Y-11868806D01*
X11861716Y-11850500D01*
X12444748Y-11850500D01*
X12503231Y-11838867D01*
X12533079Y-11818922D01*
X12574671Y-11791132D01*
X12576500Y-11793869D01*
X12610000Y-11779993D01*
X12643499Y-11793869D01*
X12645329Y-11791132D01*
X12716767Y-11838866D01*
X12716769Y-11838867D01*
X12775252Y-11850500D01*
X13714748Y-11850500D01*
X13773231Y-11838867D01*
X13803079Y-11818922D01*
X13844671Y-11791132D01*
X13846500Y-11793869D01*
X13880000Y-11779993D01*
X13913499Y-11793869D01*
X13915329Y-11791132D01*
X13986767Y-11838866D01*
X13986769Y-11838867D01*
X14045252Y-11850500D01*
X14152000Y-11850500D01*
X14196194Y-11868806D01*
X14214500Y-11913000D01*
X14214500Y-12054145D01*
X14234979Y-12130567D01*
X14234979Y-12130568D01*
X14252241Y-12160465D01*
X14252242Y-12160467D01*
X14274539Y-12199088D01*
X14531194Y-12455743D01*
X14549500Y-12499937D01*
X14549500Y-12615468D01*
X14549501Y-12615476D01*
X14583606Y-12742760D01*
X14583607Y-12742763D01*
X14649501Y-12856893D01*
X14649504Y-12856897D01*
X14742680Y-12950073D01*
X14742684Y-12950076D01*
X14742686Y-12950078D01*
X14833004Y-13002223D01*
X14856814Y-13015970D01*
X14856817Y-13015971D01*
X14900423Y-13027655D01*
X14984108Y-13050078D01*
X14984109Y-13050078D01*
X15115891Y-13050078D01*
X15115892Y-13050078D01*
X15222876Y-13021412D01*
X15270302Y-13027655D01*
X15299422Y-13065605D01*
X15333607Y-13193183D01*
X15333607Y-13193185D01*
X15345279Y-13213401D01*
X15399426Y-13307186D01*
X15399501Y-13307315D01*
X15399504Y-13307319D01*
X15492680Y-13400495D01*
X15492684Y-13400498D01*
X15492686Y-13400500D01*
X15578944Y-13450301D01*
X15606814Y-13466392D01*
X15606817Y-13466393D01*
X15620279Y-13470000D01*
X15734108Y-13500500D01*
X15734109Y-13500500D01*
X15865891Y-13500500D01*
X15865892Y-13500500D01*
X15993186Y-13466392D01*
X16107314Y-13400500D01*
X16200500Y-13307314D01*
X16266392Y-13193186D01*
X16300500Y-13065892D01*
X16300500Y-12934108D01*
X16279812Y-12856897D01*
X16266393Y-12806817D01*
X16266391Y-12806812D01*
X16258872Y-12793788D01*
X16250500Y-12762540D01*
X16250500Y-11902637D01*
X16268806Y-11858443D01*
X16300808Y-11841338D01*
X16313231Y-11838867D01*
X16379552Y-11794552D01*
X16423867Y-11728231D01*
X16435500Y-11669748D01*
X16435500Y-10130252D01*
X16423867Y-10071769D01*
X16411539Y-10053319D01*
X16379552Y-10005447D01*
X16313232Y-9961133D01*
X16313230Y-9961132D01*
X16254748Y-9949500D01*
X15315252Y-9949500D01*
X15256769Y-9961132D01*
X15256767Y-9961133D01*
X15185329Y-10008868D01*
X15183499Y-10006130D01*
X15150000Y-10020007D01*
X15116500Y-10006130D01*
X15114671Y-10008868D01*
X15043232Y-9961133D01*
X15043230Y-9961132D01*
X14984748Y-9949500D01*
X14971154Y-9949500D01*
X14926960Y-9931194D01*
X14908654Y-9887000D01*
X14926960Y-9842806D01*
X14954978Y-9826630D01*
X14993182Y-9816393D01*
X14993180Y-9816393D01*
X14993186Y-9816392D01*
X15107314Y-9750500D01*
X15200500Y-9657314D01*
X15266392Y-9543186D01*
X15300500Y-9415892D01*
X15300500Y-9300358D01*
X15318806Y-9256164D01*
X15876165Y-8698806D01*
X15920359Y-8680500D01*
X16537000Y-8680500D01*
X16581194Y-8698806D01*
G37*
%TD.AperFunction*%
%TA.AperFunction,Conductor*%
G36*
X18481194Y8331694D02*
G01*
X18499500Y8287500D01*
X18499500Y7859255D01*
X18481194Y7815061D01*
X18437000Y7796755D01*
X18415159Y7800695D01*
X18407375Y7803598D01*
X18347835Y7810000D01*
X17800000Y7810000D01*
X17800000Y6922500D01*
X17781694Y6878306D01*
X17737500Y6860000D01*
X17550000Y6860000D01*
X17550000Y6672500D01*
X17531694Y6628306D01*
X17487500Y6610000D01*
X16300000Y6610000D01*
X16300000Y6362165D01*
X16306402Y6302623D01*
X16356647Y6167909D01*
X16356649Y6167906D01*
X16442808Y6052814D01*
X16442813Y6052809D01*
X16475909Y6028033D01*
X16500318Y5986894D01*
X16488487Y5940545D01*
X16447348Y5916136D01*
X16438454Y5915500D01*
X9232853Y5915500D01*
X9147147Y5915500D01*
X9147146Y5915500D01*
X9147140Y5915499D01*
X9064364Y5893320D01*
X9064359Y5893318D01*
X9039620Y5879034D01*
X9027250Y5871892D01*
X9007753Y5860635D01*
X8990136Y5850464D01*
X8971825Y5832152D01*
X8929535Y5789862D01*
X6458479Y3318806D01*
X6414285Y3300500D01*
X6334108Y3300500D01*
X6334107Y3300500D01*
X6334101Y3300499D01*
X6206817Y3266394D01*
X6206814Y3266393D01*
X6092684Y3200499D01*
X6092680Y3200496D01*
X5999504Y3107320D01*
X5999501Y3107316D01*
X5933607Y2993186D01*
X5933606Y2993183D01*
X5899501Y2865899D01*
X5899500Y2865891D01*
X5899500Y2734110D01*
X5899501Y2734102D01*
X5933606Y2606818D01*
X5933607Y2606815D01*
X5958409Y2563858D01*
X5991061Y2507302D01*
X5999501Y2492685D01*
X5999504Y2492681D01*
X6092680Y2399505D01*
X6092684Y2399502D01*
X6092686Y2399500D01*
X6206814Y2333608D01*
X6206817Y2333607D01*
X6248509Y2322436D01*
X6334108Y2299500D01*
X6334109Y2299500D01*
X6465891Y2299500D01*
X6465892Y2299500D01*
X6593186Y2333608D01*
X6707314Y2399500D01*
X6800500Y2492686D01*
X6866392Y2606814D01*
X6900500Y2734108D01*
X6900500Y2814286D01*
X6918806Y2858480D01*
X9306520Y5246194D01*
X9350714Y5264500D01*
X16537000Y5264500D01*
X16581194Y5246194D01*
X16599500Y5202000D01*
X16599500Y5120252D01*
X16611132Y5061770D01*
X16611133Y5061768D01*
X16658868Y4990329D01*
X16656130Y4988500D01*
X16670007Y4955000D01*
X16656130Y4921501D01*
X16658868Y4919671D01*
X16611133Y4848233D01*
X16611132Y4848231D01*
X16599500Y4789749D01*
X16599500Y4746152D01*
X16581194Y4701958D01*
X16537000Y4683652D01*
X16520824Y4685782D01*
X16465898Y4700499D01*
X16465893Y4700500D01*
X16465892Y4700500D01*
X16334108Y4700500D01*
X16334107Y4700500D01*
X16334101Y4700499D01*
X16206817Y4666394D01*
X16206814Y4666393D01*
X16092684Y4600499D01*
X16092680Y4600496D01*
X15999504Y4507320D01*
X15999501Y4507316D01*
X15933607Y4393186D01*
X15933606Y4393183D01*
X15899501Y4265899D01*
X15899500Y4265891D01*
X15899500Y4134110D01*
X15899501Y4134102D01*
X15933606Y4006818D01*
X15933607Y4006815D01*
X15999501Y3892685D01*
X15999504Y3892681D01*
X16092680Y3799505D01*
X16092684Y3799502D01*
X16092686Y3799500D01*
X16205945Y3734110D01*
X16206814Y3733608D01*
X16206817Y3733607D01*
X16242190Y3724129D01*
X16334108Y3699500D01*
X16334109Y3699500D01*
X16465891Y3699500D01*
X16465892Y3699500D01*
X16465900Y3699502D01*
X16485840Y3704845D01*
X16581108Y3730372D01*
X16628534Y3724129D01*
X16657654Y3686179D01*
X16651411Y3638752D01*
X16649251Y3635279D01*
X16611133Y3578233D01*
X16611132Y3578231D01*
X16599500Y3519749D01*
X16599500Y3346152D01*
X16581194Y3301958D01*
X16537000Y3283652D01*
X16520824Y3285782D01*
X16465898Y3300499D01*
X16465893Y3300500D01*
X16465892Y3300500D01*
X16334108Y3300500D01*
X16334107Y3300500D01*
X16334101Y3300499D01*
X16206817Y3266394D01*
X16206814Y3266393D01*
X16092684Y3200499D01*
X16092680Y3200496D01*
X15999504Y3107320D01*
X15999501Y3107316D01*
X15933607Y2993186D01*
X15933606Y2993183D01*
X15899501Y2865899D01*
X15899500Y2865891D01*
X15899500Y2734110D01*
X15899501Y2734102D01*
X15933606Y2606818D01*
X15933607Y2606815D01*
X15958409Y2563858D01*
X15991061Y2507302D01*
X15999501Y2492685D01*
X15999504Y2492681D01*
X16092680Y2399505D01*
X16092684Y2399502D01*
X16092686Y2399500D01*
X16206814Y2333608D01*
X16206817Y2333607D01*
X16248509Y2322436D01*
X16334108Y2299500D01*
X16334109Y2299500D01*
X16465891Y2299500D01*
X16465892Y2299500D01*
X16465900Y2299502D01*
X16472183Y2301186D01*
X16520928Y2314247D01*
X16568353Y2308004D01*
X16597474Y2270054D01*
X16598890Y2252818D01*
X16599500Y2252818D01*
X16599500Y1946152D01*
X16581194Y1901958D01*
X16537000Y1883652D01*
X16520824Y1885782D01*
X16465898Y1900499D01*
X16465893Y1900500D01*
X16465892Y1900500D01*
X16334108Y1900500D01*
X16334107Y1900500D01*
X16334101Y1900499D01*
X16206817Y1866394D01*
X16206814Y1866393D01*
X16092684Y1800499D01*
X16092680Y1800496D01*
X15999504Y1707320D01*
X15999501Y1707316D01*
X15933607Y1593186D01*
X15933606Y1593183D01*
X15899501Y1465899D01*
X15899500Y1465891D01*
X15899500Y1334110D01*
X15899501Y1334102D01*
X15933606Y1206818D01*
X15933607Y1206815D01*
X15946853Y1183873D01*
X15995005Y1100471D01*
X15999501Y1092685D01*
X15999504Y1092681D01*
X16047991Y1044194D01*
X16066297Y1000000D01*
X16047991Y955806D01*
X15999504Y907320D01*
X15999501Y907316D01*
X15933607Y793186D01*
X15933606Y793183D01*
X15899501Y665899D01*
X15899500Y665891D01*
X15899500Y534110D01*
X15899501Y534102D01*
X15933606Y406818D01*
X15933607Y406815D01*
X15959201Y362485D01*
X15991054Y307314D01*
X15999501Y292685D01*
X15999504Y292681D01*
X16092680Y199505D01*
X16092684Y199502D01*
X16092686Y199500D01*
X16200499Y137254D01*
X16206814Y133608D01*
X16206817Y133607D01*
X16279175Y114219D01*
X16334108Y99500D01*
X16334109Y99500D01*
X16465891Y99500D01*
X16465892Y99500D01*
X16465900Y99502D01*
X16476644Y102381D01*
X16520824Y114219D01*
X16568249Y107976D01*
X16597370Y70026D01*
X16599500Y53849D01*
X16599500Y40252D01*
X16611132Y-18230D01*
X16611133Y-18232D01*
X16658868Y-89671D01*
X16656130Y-91500D01*
X16670007Y-125000D01*
X16656130Y-158499D01*
X16658868Y-160329D01*
X16611133Y-231767D01*
X16611133Y-231768D01*
X16604011Y-267573D01*
X16577435Y-307346D01*
X16530518Y-316678D01*
X16526536Y-315749D01*
X16465898Y-299501D01*
X16465893Y-299500D01*
X16465892Y-299500D01*
X16334108Y-299500D01*
X16334107Y-299500D01*
X16334101Y-299501D01*
X16206817Y-333606D01*
X16206814Y-333607D01*
X16092684Y-399501D01*
X16092680Y-399504D01*
X15999504Y-492680D01*
X15999501Y-492684D01*
X15933607Y-606814D01*
X15933606Y-606817D01*
X15899501Y-734101D01*
X15899500Y-734109D01*
X15899500Y-865890D01*
X15899501Y-865898D01*
X15933606Y-993182D01*
X15933607Y-993185D01*
X15962150Y-1042622D01*
X15996143Y-1101500D01*
X15999501Y-1107315D01*
X15999504Y-1107319D01*
X16092680Y-1200495D01*
X16092684Y-1200498D01*
X16092686Y-1200500D01*
X16160250Y-1239508D01*
X16206814Y-1266392D01*
X16206817Y-1266393D01*
X16254200Y-1279089D01*
X16334108Y-1300500D01*
X16334109Y-1300500D01*
X16465891Y-1300500D01*
X16465892Y-1300500D01*
X16465900Y-1300498D01*
X16511677Y-1288232D01*
X16552770Y-1277221D01*
X16566961Y-1279089D01*
X16580992Y-1276263D01*
X16589729Y-1282086D01*
X16600197Y-1283464D01*
X16620829Y-1302742D01*
X16655448Y-1354552D01*
X16655775Y-1354770D01*
X16659390Y-1360152D01*
X16663003Y-1378092D01*
X16670007Y-1395000D01*
X16667586Y-1400844D01*
X16668835Y-1407045D01*
X16658704Y-1422285D01*
X16656130Y-1428499D01*
X16658868Y-1430329D01*
X16611133Y-1501767D01*
X16611132Y-1501769D01*
X16599500Y-1560251D01*
X16599500Y-1653848D01*
X16581194Y-1698042D01*
X16537000Y-1716348D01*
X16520824Y-1714218D01*
X16465898Y-1699501D01*
X16465893Y-1699500D01*
X16465892Y-1699500D01*
X16334108Y-1699500D01*
X16334107Y-1699500D01*
X16334101Y-1699501D01*
X16206817Y-1733606D01*
X16206814Y-1733607D01*
X16092684Y-1799501D01*
X16092680Y-1799504D01*
X15999504Y-1892680D01*
X15999501Y-1892684D01*
X15933607Y-2006814D01*
X15933606Y-2006817D01*
X15899501Y-2134101D01*
X15899500Y-2134109D01*
X15899500Y-2265890D01*
X15899501Y-2265898D01*
X15933606Y-2393182D01*
X15933607Y-2393185D01*
X15951295Y-2423821D01*
X15998034Y-2504775D01*
X15999501Y-2507315D01*
X15999504Y-2507319D01*
X16092680Y-2600495D01*
X16092689Y-2600502D01*
X16171274Y-2645874D01*
X16200394Y-2683824D01*
X16194150Y-2731250D01*
X16171274Y-2754126D01*
X16092689Y-2799497D01*
X16092680Y-2799504D01*
X15999504Y-2892680D01*
X15999501Y-2892684D01*
X15933607Y-3006814D01*
X15933606Y-3006817D01*
X15899501Y-3134101D01*
X15899500Y-3134109D01*
X15899500Y-3265890D01*
X15899501Y-3265898D01*
X15933606Y-3393182D01*
X15933607Y-3393185D01*
X15955187Y-3430562D01*
X15993927Y-3497662D01*
X15999501Y-3507315D01*
X15999504Y-3507319D01*
X16092680Y-3600495D01*
X16092684Y-3600498D01*
X16092686Y-3600500D01*
X16200499Y-3662746D01*
X16206814Y-3666392D01*
X16206817Y-3666393D01*
X16247311Y-3677243D01*
X16334108Y-3700500D01*
X16334109Y-3700500D01*
X16465891Y-3700500D01*
X16465892Y-3700500D01*
X16465900Y-3700498D01*
X16473866Y-3698363D01*
X16520824Y-3685781D01*
X16568249Y-3692024D01*
X16597370Y-3729974D01*
X16599500Y-3746151D01*
X16599500Y-3769748D01*
X16611132Y-3828230D01*
X16611133Y-3828232D01*
X16658868Y-3899671D01*
X16656130Y-3901500D01*
X16670007Y-3935000D01*
X16656130Y-3968499D01*
X16658868Y-3970329D01*
X16611133Y-4041767D01*
X16611132Y-4041769D01*
X16599500Y-4100251D01*
X16599500Y-4144470D01*
X16581194Y-4188664D01*
X16537000Y-4206970D01*
X16505750Y-4198597D01*
X16393185Y-4133607D01*
X16393182Y-4133606D01*
X16265898Y-4099501D01*
X16265893Y-4099500D01*
X16265892Y-4099500D01*
X16134108Y-4099500D01*
X16134107Y-4099500D01*
X16134101Y-4099501D01*
X16006817Y-4133606D01*
X16006814Y-4133607D01*
X15892684Y-4199501D01*
X15892680Y-4199504D01*
X15799504Y-4292680D01*
X15799501Y-4292684D01*
X15733607Y-4406814D01*
X15733606Y-4406817D01*
X15699501Y-4534101D01*
X15699500Y-4534109D01*
X15699500Y-4665890D01*
X15699501Y-4665898D01*
X15733606Y-4793182D01*
X15733607Y-4793185D01*
X15760772Y-4840235D01*
X15796636Y-4902354D01*
X15799501Y-4907315D01*
X15799504Y-4907319D01*
X15892680Y-5000495D01*
X15892684Y-5000498D01*
X15892686Y-5000500D01*
X15991099Y-5057319D01*
X16006814Y-5066392D01*
X16006817Y-5066393D01*
X16022832Y-5070684D01*
X16134108Y-5100500D01*
X16134109Y-5100500D01*
X16265891Y-5100500D01*
X16265892Y-5100500D01*
X16393186Y-5066392D01*
X16507314Y-5000500D01*
X16507315Y-5000498D01*
X16507467Y-5000411D01*
X16554893Y-4994166D01*
X16592843Y-5023287D01*
X16600016Y-5042344D01*
X16611132Y-5098230D01*
X16611133Y-5098232D01*
X16658868Y-5169671D01*
X16656130Y-5171500D01*
X16670007Y-5205000D01*
X16659389Y-5239849D01*
X16655774Y-5245229D01*
X16655448Y-5245448D01*
X16621166Y-5296753D01*
X16620828Y-5297257D01*
X16600910Y-5310495D01*
X16581138Y-5323707D01*
X16581039Y-5323703D01*
X16580990Y-5323737D01*
X16580783Y-5323695D01*
X16552770Y-5322778D01*
X16465898Y-5299501D01*
X16465893Y-5299500D01*
X16465892Y-5299500D01*
X16334108Y-5299500D01*
X16334107Y-5299500D01*
X16334101Y-5299501D01*
X16206817Y-5333606D01*
X16206814Y-5333607D01*
X16092684Y-5399501D01*
X16092680Y-5399504D01*
X15999504Y-5492680D01*
X15999501Y-5492684D01*
X15933607Y-5606814D01*
X15933606Y-5606817D01*
X15899501Y-5734101D01*
X15899500Y-5734109D01*
X15899500Y-5865890D01*
X15899501Y-5865898D01*
X15933606Y-5993182D01*
X15933607Y-5993185D01*
X15947141Y-6016626D01*
X15994020Y-6097823D01*
X15999501Y-6107315D01*
X15999504Y-6107319D01*
X16092680Y-6200495D01*
X16092684Y-6200498D01*
X16092686Y-6200500D01*
X16191712Y-6257673D01*
X16206814Y-6266392D01*
X16206817Y-6266393D01*
X16212479Y-6267910D01*
X16334108Y-6300500D01*
X16334109Y-6300500D01*
X16465891Y-6300500D01*
X16465892Y-6300500D01*
X16497678Y-6291982D01*
X16526536Y-6284251D01*
X16573962Y-6290494D01*
X16603082Y-6328445D01*
X16604011Y-6332427D01*
X16611133Y-6368231D01*
X16611133Y-6368232D01*
X16658868Y-6439671D01*
X16656130Y-6441500D01*
X16670007Y-6475000D01*
X16656130Y-6508499D01*
X16658868Y-6510329D01*
X16611133Y-6581767D01*
X16611133Y-6581768D01*
X16602694Y-6624194D01*
X16576118Y-6663967D01*
X16541395Y-6674500D01*
X16008202Y-6674500D01*
X15964008Y-6656194D01*
X15907314Y-6599500D01*
X15834355Y-6557377D01*
X15793185Y-6533607D01*
X15793182Y-6533606D01*
X15665898Y-6499501D01*
X15665893Y-6499500D01*
X15665892Y-6499500D01*
X15534108Y-6499500D01*
X15534107Y-6499500D01*
X15534101Y-6499501D01*
X15406817Y-6533606D01*
X15406814Y-6533607D01*
X15292684Y-6599501D01*
X15292680Y-6599504D01*
X15199504Y-6692680D01*
X15199501Y-6692684D01*
X15133607Y-6806814D01*
X15133606Y-6806817D01*
X15099501Y-6934101D01*
X15099500Y-6934109D01*
X15099500Y-7065890D01*
X15099501Y-7065898D01*
X15133606Y-7193182D01*
X15133607Y-7193185D01*
X15199501Y-7307315D01*
X15199504Y-7307319D01*
X15292680Y-7400495D01*
X15292684Y-7400498D01*
X15292686Y-7400500D01*
X15399207Y-7462000D01*
X15406814Y-7466392D01*
X15406817Y-7466393D01*
X15484712Y-7487264D01*
X15534108Y-7500500D01*
X15534109Y-7500500D01*
X15665891Y-7500500D01*
X15665892Y-7500500D01*
X15793186Y-7466392D01*
X15907314Y-7400500D01*
X15964008Y-7343805D01*
X16008201Y-7325500D01*
X16537000Y-7325500D01*
X16581194Y-7343806D01*
X16599500Y-7388000D01*
X16599500Y-7579748D01*
X16611132Y-7638230D01*
X16611133Y-7638232D01*
X16658868Y-7709671D01*
X16656130Y-7711500D01*
X16670007Y-7745000D01*
X16656130Y-7778499D01*
X16658868Y-7780329D01*
X16611133Y-7851767D01*
X16611132Y-7851769D01*
X16599500Y-7910251D01*
X16599500Y-8017000D01*
X16581194Y-8061194D01*
X16537000Y-8079500D01*
X15730432Y-8079500D01*
X15654013Y-8099978D01*
X15654011Y-8099979D01*
X15620139Y-8119535D01*
X15620138Y-8119534D01*
X15585490Y-8139539D01*
X15585484Y-8139544D01*
X14893834Y-8831194D01*
X14849640Y-8849500D01*
X14734108Y-8849500D01*
X14734107Y-8849500D01*
X14734101Y-8849501D01*
X14606817Y-8883606D01*
X14606814Y-8883607D01*
X14492684Y-8949501D01*
X14492680Y-8949504D01*
X14399504Y-9042680D01*
X14399501Y-9042684D01*
X14333607Y-9156814D01*
X14333606Y-9156817D01*
X14299501Y-9284101D01*
X14299500Y-9284109D01*
X14299500Y-9415890D01*
X14299501Y-9415898D01*
X14333606Y-9543182D01*
X14333607Y-9543185D01*
X14362473Y-9593182D01*
X14398973Y-9656402D01*
X14399501Y-9657315D01*
X14399504Y-9657319D01*
X14492680Y-9750495D01*
X14492684Y-9750498D01*
X14492686Y-9750500D01*
X14576446Y-9798859D01*
X14606814Y-9816392D01*
X14606817Y-9816393D01*
X14645022Y-9826630D01*
X14682973Y-9855750D01*
X14689216Y-9903176D01*
X14660096Y-9941127D01*
X14628846Y-9949500D01*
X14045252Y-9949500D01*
X13986769Y-9961132D01*
X13986767Y-9961133D01*
X13915329Y-10008868D01*
X13913499Y-10006130D01*
X13880000Y-10020007D01*
X13846500Y-10006130D01*
X13844671Y-10008868D01*
X13773232Y-9961133D01*
X13773230Y-9961132D01*
X13745400Y-9955597D01*
X13705626Y-9929021D01*
X13696294Y-9882105D01*
X13697217Y-9878144D01*
X13700500Y-9865892D01*
X13700500Y-9734108D01*
X13671286Y-9625078D01*
X13666393Y-9606817D01*
X13666392Y-9606814D01*
X13658523Y-9593185D01*
X13600500Y-9492686D01*
X13600498Y-9492684D01*
X13600495Y-9492680D01*
X13507319Y-9399504D01*
X13507315Y-9399501D01*
X13507314Y-9399500D01*
X13394054Y-9334109D01*
X13393185Y-9333607D01*
X13393182Y-9333606D01*
X13265898Y-9299501D01*
X13265893Y-9299500D01*
X13265892Y-9299500D01*
X13134108Y-9299500D01*
X13134107Y-9299500D01*
X13134101Y-9299501D01*
X13006817Y-9333606D01*
X13006814Y-9333607D01*
X12892684Y-9399501D01*
X12892680Y-9399504D01*
X12799504Y-9492680D01*
X12799501Y-9492684D01*
X12733607Y-9606814D01*
X12733606Y-9606817D01*
X12699501Y-9734101D01*
X12699500Y-9734109D01*
X12699500Y-9865890D01*
X12699501Y-9865898D01*
X12712174Y-9913196D01*
X12710309Y-9927358D01*
X12713143Y-9941360D01*
X12707313Y-9950117D01*
X12705930Y-9960622D01*
X12686701Y-9981223D01*
X12686468Y-9981379D01*
X12650448Y-10005448D01*
X12650236Y-10005764D01*
X12644897Y-10009358D01*
X12626931Y-10012993D01*
X12610000Y-10020007D01*
X12604182Y-10017597D01*
X12598012Y-10018846D01*
X12582738Y-10008714D01*
X12576500Y-10006130D01*
X12574671Y-10008868D01*
X12503232Y-9961133D01*
X12503230Y-9961132D01*
X12444748Y-9949500D01*
X12144427Y-9949500D01*
X12100233Y-9931194D01*
X12081927Y-9887000D01*
X12081927Y-9823031D01*
X12081925Y-9823023D01*
X12047820Y-9695739D01*
X12047819Y-9695736D01*
X12032540Y-9669272D01*
X11981927Y-9581608D01*
X11981925Y-9581606D01*
X11981922Y-9581602D01*
X11888746Y-9488426D01*
X11888742Y-9488423D01*
X11888741Y-9488422D01*
X11827936Y-9453316D01*
X11774612Y-9422529D01*
X11774609Y-9422528D01*
X11647325Y-9388423D01*
X11647320Y-9388422D01*
X11647319Y-9388422D01*
X11515535Y-9388422D01*
X11515534Y-9388422D01*
X11515528Y-9388423D01*
X11388244Y-9422528D01*
X11388241Y-9422529D01*
X11274111Y-9488423D01*
X11274107Y-9488426D01*
X11180931Y-9581602D01*
X11180928Y-9581606D01*
X11147127Y-9640152D01*
X11109176Y-9669272D01*
X11061750Y-9663029D01*
X11032630Y-9625078D01*
X11030500Y-9608902D01*
X11030500Y-9462149D01*
X11030499Y-9462143D01*
X11028134Y-9453316D01*
X11008319Y-9379364D01*
X11008315Y-9379355D01*
X10965467Y-9305141D01*
X10965460Y-9305132D01*
X10918806Y-9258478D01*
X10900500Y-9214284D01*
X10900500Y-9134109D01*
X10900498Y-9134101D01*
X10889399Y-9092680D01*
X10878337Y-9051393D01*
X10866393Y-9006817D01*
X10866392Y-9006814D01*
X10833302Y-8949501D01*
X10800500Y-8892686D01*
X10800498Y-8892684D01*
X10800495Y-8892680D01*
X10707319Y-8799504D01*
X10707315Y-8799501D01*
X10707314Y-8799500D01*
X10650250Y-8766554D01*
X10593185Y-8733607D01*
X10593182Y-8733606D01*
X10465898Y-8699501D01*
X10465893Y-8699500D01*
X10465892Y-8699500D01*
X10334108Y-8699500D01*
X10334107Y-8699500D01*
X10334101Y-8699501D01*
X10206817Y-8733606D01*
X10206814Y-8733607D01*
X10092684Y-8799501D01*
X10092680Y-8799504D01*
X9999504Y-8892680D01*
X9999501Y-8892684D01*
X9933607Y-9006814D01*
X9933606Y-9006817D01*
X9899501Y-9134101D01*
X9899500Y-9134109D01*
X9899500Y-9265890D01*
X9899501Y-9265898D01*
X9933606Y-9393182D01*
X9933607Y-9393185D01*
X9950549Y-9422529D01*
X9994411Y-9498500D01*
X9999501Y-9507315D01*
X9999504Y-9507319D01*
X10092680Y-9600495D01*
X10092684Y-9600498D01*
X10092686Y-9600500D01*
X10191092Y-9657315D01*
X10206814Y-9666392D01*
X10206817Y-9666393D01*
X10217562Y-9669272D01*
X10333176Y-9700250D01*
X10346119Y-9710181D01*
X10361194Y-9716426D01*
X10364426Y-9724229D01*
X10371126Y-9729370D01*
X10379500Y-9760620D01*
X10379500Y-9887000D01*
X10361194Y-9931194D01*
X10317000Y-9949500D01*
X10235252Y-9949500D01*
X10176769Y-9961132D01*
X10176767Y-9961133D01*
X10105329Y-10008868D01*
X10103499Y-10006130D01*
X10070000Y-10020007D01*
X10036500Y-10006130D01*
X10034671Y-10008868D01*
X9963232Y-9961133D01*
X9963230Y-9961132D01*
X9904748Y-9949500D01*
X9823000Y-9949500D01*
X9778806Y-9931194D01*
X9760500Y-9887000D01*
X9760500Y-7942897D01*
X9760501Y-7942884D01*
X9760501Y-7852147D01*
X9760500Y-7852141D01*
X9747084Y-7802075D01*
X9738318Y-7769361D01*
X9700900Y-7704552D01*
X9695465Y-7695138D01*
X9634862Y-7634535D01*
X9634859Y-7634533D01*
X8863691Y-6863365D01*
X8058806Y-6058479D01*
X8040500Y-6014285D01*
X8040500Y-5934109D01*
X8040498Y-5934101D01*
X8006393Y-5806817D01*
X8006391Y-5806812D01*
X7998561Y-5793251D01*
X7992316Y-5745825D01*
X8021436Y-5707874D01*
X8052687Y-5699500D01*
X8268852Y-5699500D01*
X8268853Y-5699500D01*
X8351639Y-5677318D01*
X8425862Y-5634465D01*
X10260465Y-3799862D01*
X10303318Y-3725639D01*
X10325500Y-3642853D01*
X10325500Y-3557147D01*
X10325500Y-3208201D01*
X10343806Y-3164008D01*
X10400500Y-3107314D01*
X10466392Y-2993186D01*
X10500500Y-2865892D01*
X10500500Y-2734108D01*
X10476858Y-2645874D01*
X10466393Y-2606817D01*
X10466392Y-2606814D01*
X10451047Y-2580236D01*
X10400500Y-2492686D01*
X10400498Y-2492684D01*
X10400495Y-2492680D01*
X10307319Y-2399504D01*
X10307315Y-2399501D01*
X10307314Y-2399500D01*
X10245016Y-2363532D01*
X10193185Y-2333607D01*
X10193182Y-2333606D01*
X10065898Y-2299501D01*
X10065893Y-2299500D01*
X10065892Y-2299500D01*
X9934108Y-2299500D01*
X9934107Y-2299500D01*
X9934101Y-2299501D01*
X9806817Y-2333606D01*
X9806814Y-2333607D01*
X9692684Y-2399501D01*
X9692680Y-2399504D01*
X9599504Y-2492680D01*
X9599501Y-2492684D01*
X9533607Y-2606814D01*
X9533606Y-2606817D01*
X9499501Y-2734101D01*
X9499500Y-2734109D01*
X9499500Y-2865890D01*
X9499501Y-2865898D01*
X9533606Y-2993182D01*
X9533607Y-2993185D01*
X9533608Y-2993186D01*
X9599500Y-3107314D01*
X9656194Y-3164008D01*
X9674500Y-3208201D01*
X9674500Y-3439285D01*
X9656194Y-3483479D01*
X8109479Y-5030194D01*
X8065285Y-5048500D01*
X7323555Y-5048500D01*
X7237849Y-5048500D01*
X7237848Y-5048500D01*
X7237842Y-5048501D01*
X7155066Y-5070680D01*
X7155057Y-5070684D01*
X7080841Y-5113533D01*
X7073479Y-5120895D01*
X7029284Y-5139199D01*
X6985091Y-5120891D01*
X6968917Y-5092875D01*
X6965163Y-5078865D01*
X6965162Y-5078862D01*
X6952721Y-5057314D01*
X6899270Y-4964734D01*
X6899268Y-4964732D01*
X6899265Y-4964728D01*
X6855689Y-4921152D01*
X6837383Y-4876958D01*
X6855689Y-4832764D01*
X6868630Y-4822833D01*
X6907314Y-4800500D01*
X7000500Y-4707314D01*
X7066392Y-4593186D01*
X7100500Y-4465892D01*
X7100500Y-4334108D01*
X7066392Y-4206814D01*
X7000500Y-4092686D01*
X7000498Y-4092684D01*
X7000495Y-4092680D01*
X6907319Y-3999504D01*
X6907315Y-3999501D01*
X6907314Y-3999500D01*
X6833288Y-3956761D01*
X6793185Y-3933607D01*
X6793182Y-3933606D01*
X6665898Y-3899501D01*
X6665893Y-3899500D01*
X6665892Y-3899500D01*
X6534108Y-3899500D01*
X6534107Y-3899500D01*
X6534101Y-3899501D01*
X6406817Y-3933606D01*
X6406810Y-3933609D01*
X6370071Y-3954820D01*
X6322644Y-3961063D01*
X6294628Y-3944887D01*
X6110330Y-3760588D01*
X6110321Y-3760581D01*
X6036107Y-3717733D01*
X6036098Y-3717729D01*
X5953322Y-3695550D01*
X5953317Y-3695549D01*
X5953316Y-3695549D01*
X5953315Y-3695549D01*
X5781764Y-3695549D01*
X5737570Y-3677243D01*
X4743806Y-2683479D01*
X4725500Y-2639285D01*
X4725500Y-957148D01*
X4725498Y-957140D01*
X4703319Y-874365D01*
X4703318Y-874362D01*
X4698427Y-865890D01*
X4660465Y-800138D01*
X4599862Y-739535D01*
X4126718Y-266391D01*
X3637867Y222461D01*
X3637858Y222468D01*
X3563644Y265316D01*
X3563635Y265320D01*
X3480859Y287499D01*
X3480854Y287500D01*
X3480853Y287500D01*
X3480852Y287500D01*
X3360715Y287500D01*
X3316521Y305806D01*
X1581867Y2040461D01*
X1581858Y2040468D01*
X1507644Y2083316D01*
X1507635Y2083320D01*
X1424859Y2105499D01*
X1424854Y2105500D01*
X1424853Y2105500D01*
X1424852Y2105500D01*
X1063000Y2105500D01*
X1018806Y2123806D01*
X1000500Y2168000D01*
X1000500Y2249748D01*
X988867Y2308231D01*
X985189Y2313736D01*
X941132Y2379671D01*
X943869Y2381501D01*
X929993Y2415000D01*
X943869Y2448500D01*
X941132Y2450329D01*
X988866Y2521768D01*
X988867Y2521769D01*
X1000500Y2580252D01*
X1000500Y2662000D01*
X1018806Y2706194D01*
X1063000Y2724500D01*
X3092445Y2724500D01*
X3135909Y2724500D01*
X3167158Y2716128D01*
X3228920Y2680469D01*
X3250576Y2667966D01*
X3250579Y2667965D01*
X3297574Y2655373D01*
X3377870Y2633858D01*
X3377871Y2633858D01*
X3509653Y2633858D01*
X3509654Y2633858D01*
X3636948Y2667966D01*
X3751076Y2733858D01*
X3844262Y2827044D01*
X3910154Y2941172D01*
X3944262Y3068466D01*
X3944262Y3200250D01*
X3927516Y3262747D01*
X3910155Y3327541D01*
X3910154Y3327544D01*
X3899411Y3346152D01*
X3844262Y3441672D01*
X3844260Y3441674D01*
X3844257Y3441678D01*
X3751081Y3534854D01*
X3751077Y3534857D01*
X3751076Y3534858D01*
X3636948Y3600750D01*
X3636947Y3600751D01*
X3636946Y3600751D01*
X3536670Y3627620D01*
X3498720Y3656740D01*
X3492477Y3704167D01*
X3500500Y3734108D01*
X3500500Y3865892D01*
X3466392Y3993186D01*
X3400500Y4107314D01*
X3400498Y4107316D01*
X3400495Y4107320D01*
X3307319Y4200496D01*
X3307310Y4200503D01*
X3193192Y4266390D01*
X3193184Y4266393D01*
X3178659Y4270285D01*
X3150642Y4286461D01*
X2756619Y4680485D01*
X2756610Y4680492D01*
X2653892Y4739797D01*
X2653888Y4739799D01*
X2647400Y4741538D01*
X2629673Y4746287D01*
X2611600Y4751130D01*
X2539313Y4770500D01*
X2539309Y4770500D01*
X1055621Y4770500D01*
X1041947Y4776165D01*
X1027195Y4777339D01*
X1021759Y4784526D01*
X1011427Y4788806D01*
X996162Y4813742D01*
X995035Y4817221D01*
X988867Y4848231D01*
X981345Y4859488D01*
X978672Y4867742D01*
X979934Y4883596D01*
X976832Y4899194D01*
X981765Y4906577D01*
X982470Y4915426D01*
X994572Y4925744D01*
X1003409Y4938967D01*
X1013772Y4942111D01*
X1018873Y4946459D01*
X1026186Y4945877D01*
X1038131Y4949500D01*
X2962541Y4949500D01*
X2993790Y4941127D01*
X3006810Y4933610D01*
X3006812Y4933610D01*
X3006814Y4933608D01*
X3006815Y4933608D01*
X3006817Y4933607D01*
X3051998Y4921501D01*
X3134108Y4899500D01*
X3134109Y4899500D01*
X3265891Y4899500D01*
X3265892Y4899500D01*
X3393186Y4933608D01*
X3507314Y4999500D01*
X3600500Y5092686D01*
X3666392Y5206814D01*
X3700500Y5334108D01*
X3700500Y5465892D01*
X3666392Y5593186D01*
X3600500Y5707314D01*
X3600498Y5707316D01*
X3600495Y5707320D01*
X3507319Y5800496D01*
X3507315Y5800499D01*
X3507314Y5800500D01*
X3420774Y5850464D01*
X3393185Y5866393D01*
X3393182Y5866394D01*
X3265898Y5900499D01*
X3265893Y5900500D01*
X3265892Y5900500D01*
X3134108Y5900500D01*
X3134107Y5900500D01*
X3134101Y5900499D01*
X3006817Y5866394D01*
X3006810Y5866391D01*
X2993790Y5858873D01*
X2962541Y5850500D01*
X1074255Y5850500D01*
X1030061Y5868806D01*
X1011755Y5913000D01*
X1030061Y5957194D01*
X1038725Y5963681D01*
X1038510Y5963968D01*
X1157190Y6052813D01*
X1157191Y6052814D01*
X1243350Y6167906D01*
X1243352Y6167909D01*
X1293597Y6302623D01*
X1299999Y6362165D01*
X1300000Y6362178D01*
X1300000Y6610000D01*
X112500Y6610000D01*
X68306Y6628306D01*
X50000Y6672500D01*
X50000Y6860000D01*
X-137500Y6860000D01*
X-181694Y6878306D01*
X-200000Y6922500D01*
X-200000Y7110000D01*
X300000Y7110000D01*
X1300000Y7110000D01*
X1300000Y7357823D01*
X1299999Y7357836D01*
X16300000Y7357836D01*
X16300000Y7110000D01*
X17300000Y7110000D01*
X17300000Y7810000D01*
X16752164Y7810000D01*
X16692622Y7803598D01*
X16557908Y7753353D01*
X16557905Y7753351D01*
X16442813Y7667192D01*
X16442808Y7667187D01*
X16356649Y7552095D01*
X16356647Y7552092D01*
X16306402Y7417378D01*
X16300000Y7357836D01*
X1299999Y7357836D01*
X1293597Y7417378D01*
X1243352Y7552092D01*
X1243350Y7552095D01*
X1157191Y7667187D01*
X1157186Y7667192D01*
X1042094Y7753351D01*
X1042091Y7753353D01*
X907377Y7803598D01*
X847835Y7810000D01*
X300000Y7810000D01*
X300000Y7110000D01*
X-200000Y7110000D01*
X-200000Y7810000D01*
X-747836Y7810000D01*
X-807378Y7803598D01*
X-942092Y7753353D01*
X-942095Y7753351D01*
X-1057187Y7667192D01*
X-1057192Y7667187D01*
X-1143351Y7552095D01*
X-1143353Y7552092D01*
X-1193942Y7416455D01*
X-1226538Y7381445D01*
X-1274343Y7379738D01*
X-1309353Y7412334D01*
X-1315001Y7438297D01*
X-1315001Y7459976D01*
X-1315002Y7459988D01*
X-1325493Y7562688D01*
X-1325494Y7562695D01*
X-1380642Y7729122D01*
X-1472683Y7878344D01*
X-1596657Y8002318D01*
X-1745879Y8094359D01*
X-1912309Y8149508D01*
X-2015014Y8160000D01*
X-2290000Y8160000D01*
X-2290000Y6160001D01*
X-2277193Y6147194D01*
X-2258887Y6103000D01*
X-2277193Y6058806D01*
X-2321387Y6040500D01*
X-2519309Y6040500D01*
X-2519310Y6040500D01*
X-2519316Y6040499D01*
X-2633882Y6009801D01*
X-2633886Y6009800D01*
X-2686491Y5979428D01*
X-2704773Y5968873D01*
X-2736021Y5960500D01*
X-3069266Y5960500D01*
X-3078876Y5959599D01*
X-3099697Y5957647D01*
X-3099702Y5957646D01*
X-3227883Y5912793D01*
X-3227884Y5912793D01*
X-3337150Y5832151D01*
X-3360512Y5800496D01*
X-3408196Y5735886D01*
X-3449166Y5711198D01*
X-3458482Y5710500D01*
X-3621518Y5710500D01*
X-3665712Y5728806D01*
X-3671800Y5735880D01*
X-3742850Y5832150D01*
X-3742853Y5832152D01*
X-3852118Y5912793D01*
X-3980299Y5957646D01*
X-3980304Y5957647D01*
X-4000301Y5959522D01*
X-4010734Y5960500D01*
X-5069266Y5960500D01*
X-5078876Y5959599D01*
X-5099697Y5957647D01*
X-5099702Y5957646D01*
X-5227883Y5912793D01*
X-5227884Y5912793D01*
X-5337149Y5832152D01*
X-5337155Y5832146D01*
X-5378609Y5775977D01*
X-5419581Y5751289D01*
X-5445071Y5752720D01*
X-5474107Y5760500D01*
X-5474108Y5760500D01*
X-5605892Y5760500D01*
X-5605895Y5760500D01*
X-5634931Y5752720D01*
X-5682358Y5758965D01*
X-5701390Y5775973D01*
X-5742850Y5832150D01*
X-5852118Y5912793D01*
X-5861672Y5916136D01*
X-5980299Y5957646D01*
X-5980304Y5957647D01*
X-6000301Y5959522D01*
X-6010734Y5960500D01*
X-7069266Y5960500D01*
X-7078876Y5959599D01*
X-7099697Y5957647D01*
X-7099702Y5957646D01*
X-7227883Y5912793D01*
X-7227884Y5912793D01*
X-7337150Y5832151D01*
X-7360512Y5800496D01*
X-7408196Y5735886D01*
X-7449166Y5711198D01*
X-7458482Y5710500D01*
X-7621518Y5710500D01*
X-7665712Y5728806D01*
X-7671800Y5735880D01*
X-7742850Y5832150D01*
X-7742853Y5832152D01*
X-7852118Y5912793D01*
X-7980299Y5957646D01*
X-7980304Y5957647D01*
X-8000301Y5959522D01*
X-8010734Y5960500D01*
X-9069266Y5960500D01*
X-9078876Y5959599D01*
X-9099697Y5957647D01*
X-9099702Y5957646D01*
X-9227883Y5912793D01*
X-9227884Y5912793D01*
X-9337150Y5832151D01*
X-9360512Y5800496D01*
X-9408196Y5735886D01*
X-9449166Y5711198D01*
X-9458482Y5710500D01*
X-9621518Y5710500D01*
X-9665712Y5728806D01*
X-9671800Y5735880D01*
X-9742850Y5832150D01*
X-9742853Y5832152D01*
X-9852118Y5912793D01*
X-9980299Y5957646D01*
X-9980304Y5957647D01*
X-10000301Y5959522D01*
X-10010734Y5960500D01*
X-11069266Y5960500D01*
X-11078876Y5959599D01*
X-11099697Y5957647D01*
X-11099702Y5957646D01*
X-11227883Y5912793D01*
X-11227884Y5912793D01*
X-11337150Y5832151D01*
X-11360512Y5800496D01*
X-11408196Y5735886D01*
X-11449166Y5711198D01*
X-11458482Y5710500D01*
X-11621518Y5710500D01*
X-11665712Y5728806D01*
X-11671800Y5735880D01*
X-11742850Y5832150D01*
X-11742853Y5832152D01*
X-11852118Y5912793D01*
X-11980299Y5957646D01*
X-11980304Y5957647D01*
X-12000301Y5959522D01*
X-12010734Y5960500D01*
X-13069266Y5960500D01*
X-13078876Y5959599D01*
X-13099697Y5957647D01*
X-13099702Y5957646D01*
X-13227883Y5912793D01*
X-13227884Y5912793D01*
X-13337150Y5832150D01*
X-13417793Y5722884D01*
X-13417793Y5722883D01*
X-13456047Y5613558D01*
X-13487922Y5577889D01*
X-13515040Y5571700D01*
X-14273495Y5571700D01*
X-14317689Y5590006D01*
X-14335995Y5634200D01*
X-14335995Y5725463D01*
X-14336973Y5735887D01*
X-14338849Y5755899D01*
X-14383702Y5884082D01*
X-14397854Y5903257D01*
X-14409712Y5919325D01*
X-14464345Y5993350D01*
X-14573613Y6073993D01*
X-14701794Y6118846D01*
X-14701799Y6118847D01*
X-14721796Y6120722D01*
X-14732229Y6121700D01*
X-15940761Y6121700D01*
X-15950371Y6120799D01*
X-15971192Y6118847D01*
X-15971197Y6118846D01*
X-16099378Y6073993D01*
X-16099379Y6073993D01*
X-16208645Y5993350D01*
X-16289288Y5884084D01*
X-16289290Y5884079D01*
X-16321841Y5791056D01*
X-16336639Y5767505D01*
X-16936495Y5167649D01*
X-16936495Y5173861D01*
X-16963754Y5275594D01*
X-17016415Y5366806D01*
X-17090889Y5441280D01*
X-17182101Y5493941D01*
X-17283834Y5521200D01*
X-17290050Y5521200D01*
X-16610573Y6200677D01*
X-16655145Y6233060D01*
X-16837462Y6325954D01*
X-16837470Y6325958D01*
X-17032074Y6389189D01*
X-17234182Y6421200D01*
X-17438809Y6421200D01*
X-17640917Y6389189D01*
X-17835521Y6325958D01*
X-17835529Y6325954D01*
X-18017841Y6233062D01*
X-18017844Y6233060D01*
X-18062418Y6200676D01*
X-17382942Y5521200D01*
X-17389156Y5521200D01*
X-17490889Y5493941D01*
X-17582101Y5441280D01*
X-17656575Y5366806D01*
X-17709236Y5275594D01*
X-17736495Y5173861D01*
X-17736495Y5167647D01*
X-18415972Y5847124D01*
X-18432096Y5845854D01*
X-18477590Y5860635D01*
X-18499307Y5903257D01*
X-18499500Y5908161D01*
X-18499500Y6860013D01*
X-13764999Y6860013D01*
X-13754508Y6757313D01*
X-13754507Y6757306D01*
X-13699359Y6590879D01*
X-13607318Y6441657D01*
X-13483344Y6317683D01*
X-13334122Y6225642D01*
X-13167692Y6170493D01*
X-13064982Y6160001D01*
X-12790001Y6160001D01*
X-12290000Y6160001D01*
X-12015024Y6160001D01*
X-12015013Y6160002D01*
X-11912313Y6170493D01*
X-11912306Y6170494D01*
X-11745879Y6225642D01*
X-11596657Y6317683D01*
X-11596656Y6317684D01*
X-11584194Y6330145D01*
X-11540000Y6348451D01*
X-11495806Y6330145D01*
X-11483344Y6317683D01*
X-11334122Y6225642D01*
X-11167692Y6170493D01*
X-11064982Y6160001D01*
X-10790001Y6160001D01*
X-10290000Y6160001D01*
X-10015024Y6160001D01*
X-10015013Y6160002D01*
X-9912313Y6170493D01*
X-9912306Y6170494D01*
X-9745879Y6225642D01*
X-9596657Y6317683D01*
X-9596656Y6317684D01*
X-9584194Y6330145D01*
X-9540000Y6348451D01*
X-9495806Y6330145D01*
X-9483344Y6317683D01*
X-9334122Y6225642D01*
X-9167692Y6170493D01*
X-9064982Y6160001D01*
X-8790001Y6160001D01*
X-8290000Y6160001D01*
X-8015024Y6160001D01*
X-8015013Y6160002D01*
X-7912313Y6170493D01*
X-7912306Y6170494D01*
X-7745879Y6225642D01*
X-7596657Y6317683D01*
X-7596656Y6317684D01*
X-7584194Y6330145D01*
X-7540000Y6348451D01*
X-7495806Y6330145D01*
X-7483344Y6317683D01*
X-7334122Y6225642D01*
X-7167692Y6170493D01*
X-7064982Y6160001D01*
X-6790001Y6160001D01*
X-6290000Y6160001D01*
X-6015024Y6160001D01*
X-6015013Y6160002D01*
X-5912313Y6170493D01*
X-5912306Y6170494D01*
X-5745879Y6225642D01*
X-5596657Y6317683D01*
X-5596656Y6317684D01*
X-5584194Y6330145D01*
X-5540000Y6348451D01*
X-5495806Y6330145D01*
X-5483344Y6317683D01*
X-5334122Y6225642D01*
X-5167692Y6170493D01*
X-5064982Y6160001D01*
X-4790001Y6160001D01*
X-4290000Y6160001D01*
X-4015024Y6160001D01*
X-4015013Y6160002D01*
X-3912313Y6170493D01*
X-3912306Y6170494D01*
X-3745879Y6225642D01*
X-3596657Y6317683D01*
X-3596656Y6317684D01*
X-3584194Y6330145D01*
X-3540000Y6348451D01*
X-3495806Y6330145D01*
X-3483344Y6317683D01*
X-3334122Y6225642D01*
X-3167692Y6170493D01*
X-3064982Y6160001D01*
X-2790001Y6160001D01*
X-2790000Y6160002D01*
X-2790000Y6910000D01*
X-4290000Y6910000D01*
X-4290000Y6160001D01*
X-4790001Y6160001D01*
X-4790000Y6160002D01*
X-4790000Y6910000D01*
X-6290000Y6910000D01*
X-6290000Y6160001D01*
X-6790001Y6160001D01*
X-6790000Y6160002D01*
X-6790000Y6910000D01*
X-8290000Y6910000D01*
X-8290000Y6160001D01*
X-8790001Y6160001D01*
X-8790000Y6160002D01*
X-8790000Y6910000D01*
X-10290000Y6910000D01*
X-10290000Y6160001D01*
X-10790001Y6160001D01*
X-10790000Y6160002D01*
X-10790000Y6910000D01*
X-12290000Y6910000D01*
X-12290000Y6160001D01*
X-12790001Y6160001D01*
X-12790000Y6160002D01*
X-12790000Y6910000D01*
X-13764999Y6910000D01*
X-13764999Y6860013D01*
X-18499500Y6860013D01*
X-18499500Y7459987D01*
X-13765000Y7459987D01*
X-13765000Y7410000D01*
X-12790000Y7410000D01*
X-12290000Y7410000D01*
X-10790000Y7410000D01*
X-10290000Y7410000D01*
X-8790000Y7410000D01*
X-8290000Y7410000D01*
X-6790000Y7410000D01*
X-6290000Y7410000D01*
X-4790000Y7410000D01*
X-4290000Y7410000D01*
X-2790000Y7410000D01*
X-2790000Y8160000D01*
X-3064976Y8160000D01*
X-3064988Y8159999D01*
X-3167688Y8149508D01*
X-3167695Y8149507D01*
X-3334122Y8094359D01*
X-3483344Y8002318D01*
X-3483345Y8002317D01*
X-3495806Y7989855D01*
X-3540000Y7971549D01*
X-3584194Y7989855D01*
X-3596657Y8002318D01*
X-3745879Y8094359D01*
X-3912309Y8149508D01*
X-4015014Y8160000D01*
X-4290000Y8160000D01*
X-4290000Y7410000D01*
X-4790000Y7410000D01*
X-4790000Y8160000D01*
X-5064976Y8160000D01*
X-5064988Y8159999D01*
X-5167688Y8149508D01*
X-5167695Y8149507D01*
X-5334122Y8094359D01*
X-5483344Y8002318D01*
X-5483345Y8002317D01*
X-5495806Y7989855D01*
X-5540000Y7971549D01*
X-5584194Y7989855D01*
X-5596657Y8002318D01*
X-5745879Y8094359D01*
X-5912309Y8149508D01*
X-6015014Y8160000D01*
X-6290000Y8160000D01*
X-6290000Y7410000D01*
X-6790000Y7410000D01*
X-6790000Y8160000D01*
X-7064976Y8160000D01*
X-7064988Y8159999D01*
X-7167688Y8149508D01*
X-7167695Y8149507D01*
X-7334122Y8094359D01*
X-7483344Y8002318D01*
X-7483345Y8002317D01*
X-7495806Y7989855D01*
X-7540000Y7971549D01*
X-7584194Y7989855D01*
X-7596657Y8002318D01*
X-7745879Y8094359D01*
X-7912309Y8149508D01*
X-8015014Y8160000D01*
X-8290000Y8160000D01*
X-8290000Y7410000D01*
X-8790000Y7410000D01*
X-8790000Y8160000D01*
X-9064976Y8160000D01*
X-9064988Y8159999D01*
X-9167688Y8149508D01*
X-9167695Y8149507D01*
X-9334122Y8094359D01*
X-9483344Y8002318D01*
X-9483345Y8002317D01*
X-9495806Y7989855D01*
X-9540000Y7971549D01*
X-9584194Y7989855D01*
X-9596657Y8002318D01*
X-9745879Y8094359D01*
X-9912309Y8149508D01*
X-10015014Y8160000D01*
X-10290000Y8160000D01*
X-10290000Y7410000D01*
X-10790000Y7410000D01*
X-10790000Y8160000D01*
X-11064976Y8160000D01*
X-11064988Y8159999D01*
X-11167688Y8149508D01*
X-11167695Y8149507D01*
X-11334122Y8094359D01*
X-11483344Y8002318D01*
X-11483345Y8002317D01*
X-11495806Y7989855D01*
X-11540000Y7971549D01*
X-11584194Y7989855D01*
X-11596657Y8002318D01*
X-11745879Y8094359D01*
X-11912309Y8149508D01*
X-12015014Y8160000D01*
X-12290000Y8160000D01*
X-12290000Y7410000D01*
X-12790000Y7410000D01*
X-12790000Y8160000D01*
X-13064976Y8160000D01*
X-13064988Y8159999D01*
X-13167688Y8149508D01*
X-13167695Y8149507D01*
X-13334122Y8094359D01*
X-13483344Y8002318D01*
X-13607318Y7878344D01*
X-13699359Y7729122D01*
X-13754508Y7562692D01*
X-13765000Y7459987D01*
X-18499500Y7459987D01*
X-18499500Y8287500D01*
X-18481194Y8331694D01*
X-18437000Y8350000D01*
X-15200000Y8350000D01*
X18437000Y8350000D01*
X18481194Y8331694D01*
G37*
%TD.AperFunction*%
%TA.AperFunction,Conductor*%
G36*
X-4629060Y-5028410D02*
G01*
X-4602983Y-5053013D01*
X-4600501Y-5057313D01*
X-4600496Y-5057319D01*
X-4507320Y-5150495D01*
X-4507316Y-5150498D01*
X-4507314Y-5150500D01*
X-4393188Y-5216391D01*
X-4393186Y-5216392D01*
X-4393183Y-5216393D01*
X-4324654Y-5234755D01*
X-4265892Y-5250500D01*
X-4265891Y-5250500D01*
X-4134109Y-5250500D01*
X-4134108Y-5250500D01*
X-4006814Y-5216392D01*
X-3993251Y-5208560D01*
X-3945825Y-5202316D01*
X-3907874Y-5231436D01*
X-3899500Y-5262687D01*
X-3899500Y-6068851D01*
X-3899499Y-6068859D01*
X-3877320Y-6151635D01*
X-3877316Y-6151644D01*
X-3834468Y-6225858D01*
X-3834461Y-6225867D01*
X-3467521Y-6592806D01*
X-3449215Y-6637000D01*
X-3467521Y-6681194D01*
X-3511715Y-6699500D01*
X-4029266Y-6699500D01*
X-4038876Y-6700401D01*
X-4059697Y-6702353D01*
X-4059702Y-6702354D01*
X-4187883Y-6747207D01*
X-4187884Y-6747207D01*
X-4297150Y-6827850D01*
X-4377793Y-6937116D01*
X-4377793Y-6937117D01*
X-4422646Y-7065298D01*
X-4422647Y-7065303D01*
X-4425500Y-7095737D01*
X-4425500Y-7462000D01*
X-4443806Y-7506194D01*
X-4488000Y-7524500D01*
X-4606641Y-7524500D01*
X-4650835Y-7506194D01*
X-4657181Y-7497299D01*
X-4657790Y-7497735D01*
X-4660802Y-7493517D01*
X-4743516Y-7410803D01*
X-4743517Y-7410802D01*
X-4848607Y-7359427D01*
X-4848609Y-7359426D01*
X-4848610Y-7359426D01*
X-4902733Y-7351540D01*
X-4916740Y-7349500D01*
X-6008260Y-7349500D01*
X-6019879Y-7351192D01*
X-6076391Y-7359426D01*
X-6181485Y-7410803D01*
X-6264197Y-7493515D01*
X-6315574Y-7598609D01*
X-6325500Y-7666740D01*
X-6325500Y-8033259D01*
X-6315574Y-8101390D01*
X-6315574Y-8101391D01*
X-6315573Y-8101393D01*
X-6264198Y-8206483D01*
X-6264197Y-8206484D01*
X-6189875Y-8280806D01*
X-6171569Y-8325000D01*
X-6189875Y-8369194D01*
X-6264197Y-8443515D01*
X-6315574Y-8548609D01*
X-6325500Y-8616740D01*
X-6325500Y-8786962D01*
X-6343806Y-8831156D01*
X-6544344Y-9031694D01*
X-6588538Y-9050000D01*
X-8897296Y-9050000D01*
X-8897101Y-9052485D01*
X-8887174Y-9086656D01*
X-8892424Y-9134202D01*
X-8929757Y-9164111D01*
X-8977303Y-9158861D01*
X-8991387Y-9148286D01*
X-9195480Y-8944193D01*
X-9213786Y-8899999D01*
X-9195482Y-8855808D01*
X-8907980Y-8568305D01*
X-8863786Y-8550000D01*
X-6577704Y-8550000D01*
X-6577704Y-8549999D01*
X-6577900Y-8547511D01*
X-6623719Y-8389800D01*
X-6623720Y-8389798D01*
X-6707316Y-8248444D01*
X-6823445Y-8132315D01*
X-6847663Y-8117993D01*
X-6876384Y-8079740D01*
X-6877695Y-8055187D01*
X-6874500Y-8033260D01*
X-6874500Y-7666740D01*
X-6884427Y-7598607D01*
X-6935802Y-7493517D01*
X-7018517Y-7410802D01*
X-7123607Y-7359427D01*
X-7123609Y-7359426D01*
X-7123610Y-7359426D01*
X-7177733Y-7351540D01*
X-7191740Y-7349500D01*
X-8176096Y-7349500D01*
X-8220290Y-7331194D01*
X-8238596Y-7287000D01*
X-8220290Y-7242806D01*
X-7977482Y-6999999D01*
X-7696289Y-6718806D01*
X-7652095Y-6700500D01*
X-7195738Y-6700500D01*
X-7195734Y-6700500D01*
X-7165301Y-6697646D01*
X-7037118Y-6652793D01*
X-6927850Y-6572150D01*
X-6847207Y-6462882D01*
X-6813042Y-6365242D01*
X-6781167Y-6329575D01*
X-6733407Y-6326892D01*
X-6697739Y-6358767D01*
X-6691873Y-6379533D01*
X-6689508Y-6402688D01*
X-6689507Y-6402694D01*
X-6634359Y-6569121D01*
X-6542318Y-6718343D01*
X-6418344Y-6842317D01*
X-6269122Y-6934358D01*
X-6102692Y-6989507D01*
X-5999982Y-6999999D01*
X-5937501Y-6999999D01*
X-5437500Y-6999999D01*
X-5375024Y-6999999D01*
X-5375013Y-6999998D01*
X-5272313Y-6989507D01*
X-5272306Y-6989506D01*
X-5105879Y-6934358D01*
X-4956657Y-6842317D01*
X-4832683Y-6718343D01*
X-4740642Y-6569121D01*
X-4685493Y-6402691D01*
X-4675001Y-6299986D01*
X-4675000Y-6299977D01*
X-4675000Y-6050000D01*
X-5437500Y-6050000D01*
X-5437500Y-6999999D01*
X-5937501Y-6999999D01*
X-5937500Y-6999998D01*
X-5937500Y-5862500D01*
X-5919194Y-5818306D01*
X-5875000Y-5800000D01*
X-5687500Y-5800000D01*
X-5687500Y-5612500D01*
X-5669194Y-5568306D01*
X-5625000Y-5550000D01*
X-4675001Y-5550000D01*
X-4675001Y-5300024D01*
X-4675002Y-5300012D01*
X-4685493Y-5197312D01*
X-4685494Y-5197305D01*
X-4716438Y-5103921D01*
X-4712962Y-5056212D01*
X-4676769Y-5024934D01*
X-4629060Y-5028410D01*
G37*
%TD.AperFunction*%
%TA.AperFunction,Conductor*%
G36*
X1459079Y191194D02*
G01*
X3254690Y-1604417D01*
X3272454Y-1647303D01*
X3272462Y-1647302D01*
X3272465Y-1647331D01*
X3272996Y-1648611D01*
X3272996Y-1651359D01*
X3272997Y-1651367D01*
X3307102Y-1778651D01*
X3307103Y-1778654D01*
X3323363Y-1806817D01*
X3363154Y-1875737D01*
X3372997Y-1892784D01*
X3373000Y-1892788D01*
X3466176Y-1985964D01*
X3466180Y-1985967D01*
X3466182Y-1985969D01*
X3549994Y-2034358D01*
X3580310Y-2051861D01*
X3580313Y-2051862D01*
X3632667Y-2065890D01*
X3707604Y-2085969D01*
X3707605Y-2085969D01*
X3839387Y-2085969D01*
X3839388Y-2085969D01*
X3966682Y-2051861D01*
X3980749Y-2043738D01*
X4028175Y-2037494D01*
X4066126Y-2066614D01*
X4074500Y-2097865D01*
X4074500Y-2842851D01*
X4074501Y-2842859D01*
X4096680Y-2925635D01*
X4096684Y-2925644D01*
X4139532Y-2999858D01*
X4139539Y-2999867D01*
X4740168Y-3600495D01*
X5320842Y-4181169D01*
X5338691Y-4224258D01*
X5339148Y-4225363D01*
X5320843Y-4269557D01*
X5287156Y-4303243D01*
X5242964Y-4321549D01*
X3845573Y-4321549D01*
X3801379Y-4303243D01*
X1920806Y-2422669D01*
X1902500Y-2378475D01*
X1902500Y-1662148D01*
X1902499Y-1662142D01*
X1884218Y-1593918D01*
X1880318Y-1579362D01*
X1880318Y-1579361D01*
X1843729Y-1515988D01*
X1837465Y-1505138D01*
X1776862Y-1444535D01*
X1774684Y-1442357D01*
X1774673Y-1442347D01*
X1018806Y-686479D01*
X1000500Y-642285D01*
X1000500Y-290252D01*
X988867Y-231769D01*
X988866Y-231767D01*
X941132Y-160329D01*
X943869Y-158499D01*
X929993Y-125000D01*
X943869Y-91500D01*
X941132Y-89671D01*
X988866Y-18232D01*
X988867Y-18231D01*
X1000500Y40252D01*
X1000500Y147000D01*
X1018806Y191194D01*
X1063000Y209500D01*
X1414885Y209500D01*
X1459079Y191194D01*
G37*
%TD.AperFunction*%
%TA.AperFunction,Conductor*%
G36*
X-14068806Y406194D02*
G01*
X-14050500Y362000D01*
X-14050500Y270734D01*
X-14050046Y265892D01*
X-14047647Y240304D01*
X-14047646Y240299D01*
X-14002793Y112118D01*
X-14002793Y112117D01*
X-13974115Y73260D01*
X-13922150Y2850D01*
X-13812882Y-77793D01*
X-13684699Y-122646D01*
X-13654266Y-125500D01*
X-13654262Y-125500D01*
X-13045738Y-125500D01*
X-13045734Y-125500D01*
X-13015301Y-122646D01*
X-12966924Y-105718D01*
X-12919164Y-108399D01*
X-12887289Y-144067D01*
X-12889970Y-191827D01*
X-12902087Y-208904D01*
X-12989376Y-296194D01*
X-13033570Y-314500D01*
X-13709764Y-314500D01*
X-13717480Y-315223D01*
X-13739772Y-317313D01*
X-13739774Y-317314D01*
X-13866181Y-361545D01*
X-13973930Y-441070D01*
X-14053455Y-548820D01*
X-14092408Y-660142D01*
X-14124283Y-695811D01*
X-14151401Y-702000D01*
X-14242068Y-702000D01*
X-14318487Y-722478D01*
X-14318489Y-722479D01*
X-14378536Y-757147D01*
X-14378537Y-757146D01*
X-14387007Y-762037D01*
X-14387016Y-762044D01*
X-14717806Y-1092835D01*
X-14762000Y-1111141D01*
X-14806194Y-1092835D01*
X-14824500Y-1048641D01*
X-14824500Y-550566D01*
X-14824502Y-550558D01*
X-14835236Y-510500D01*
X-14850090Y-455062D01*
X-14899525Y-369438D01*
X-14969438Y-299525D01*
X-15326769Y57806D01*
X-15345075Y102000D01*
X-15326769Y146194D01*
X-15282575Y164500D01*
X-14710564Y164500D01*
X-14710560Y164501D01*
X-14702229Y166734D01*
X-14662814Y177295D01*
X-14615062Y190090D01*
X-14529438Y239525D01*
X-14459525Y309438D01*
X-14362769Y406194D01*
X-14318575Y424500D01*
X-14113000Y424500D01*
X-14068806Y406194D01*
G37*
%TD.AperFunction*%
%TD*%
M02*
